<svg width="11" height="14" viewBox="0 0 11 14" fill="none" xmlns="http://www.w3.org/2000/svg">
<path d="M6.85667 9C9.295 9 11 7.14194 11 4.47097C11 1.8 9.295 0 6.85667 0H2.17708C1.98725 0 1.83333 0.167906 1.83333 0.375V6.83225H0.34375C0.153914 6.83225 0 7.00016 0 7.20725V8.625C0 8.83209 0.153914 9 0.34375 9H1.83333V10H0.34375C0.153914 10 0 10.1679 0 10.375V11.625C0 11.8321 0.153914 12 0.34375 12H1.83333V13.625C1.83333 13.8321 1.98725 14 2.17708 14H3.85458C4.04442 14 4.19833 13.8321 4.19833 13.625V12H8.82292C9.01275 12 9.16667 11.8321 9.16667 11.625V10.375C9.16667 10.1679 9.01275 10 8.82292 10H4.19833V9H6.85667ZM4.19833 2.14838H6.45333C7.79167 2.14838 8.59833 3.05806 8.59833 4.47097C8.59833 5.90322 7.79167 6.83225 6.41667 6.83225H4.19833V2.14838Z" fill="#2F3BAC"/>
</svg>
