<svg width="34" height="23" viewBox="0 0 34 23" fill="none" xmlns="http://www.w3.org/2000/svg">
<path d="M12.6426 22H6.76855V10.6621C6.76855 9.28516 6.79785 8.02539 6.85645 6.88281C6.49512 7.32227 6.0459 7.78125 5.50879 8.25977L3.07715 10.2666L0.0742188 6.5752L7.42773 0.583984H12.6426V22ZM33.0186 10.3838C33.0186 14.5732 32.1152 17.6055 30.3086 19.4805C28.502 21.3555 25.6113 22.293 21.6367 22.293C20.3281 22.293 19.332 22.2441 18.6484 22.1465V17.5615C19.4883 17.7178 20.3281 17.7959 21.168 17.7959C23.2383 17.7959 24.835 17.3711 25.958 16.5215C27.0811 15.6621 27.6914 14.3096 27.7891 12.4639H27.6133C27.2324 13.167 26.8564 13.6748 26.4854 13.9873C26.1143 14.2998 25.6602 14.5391 25.123 14.7051C24.5859 14.8711 23.917 14.9541 23.1162 14.9541C21.2607 14.9541 19.8105 14.334 18.7656 13.0938C17.7207 11.8535 17.1982 10.1445 17.1982 7.9668C17.1982 5.59375 17.8721 3.7334 19.2197 2.38574C20.5771 1.03809 22.4326 0.364258 24.7861 0.364258C27.4033 0.364258 29.4297 1.2334 30.8652 2.97168C32.3008 4.70996 33.0186 7.18066 33.0186 10.3838ZM24.9473 4.99316C24.3125 4.99316 23.7949 5.22266 23.3945 5.68164C23.0039 6.14062 22.8086 6.87793 22.8086 7.89355C22.8086 8.69434 22.9795 9.33398 23.3213 9.8125C23.6631 10.2812 24.1855 10.5156 24.8887 10.5156C25.5234 10.5156 26.0752 10.2861 26.5439 9.82715C27.0127 9.36816 27.2471 8.81641 27.2471 8.17188C27.2471 7.30273 27.0273 6.55566 26.5879 5.93066C26.1582 5.30566 25.6113 4.99316 24.9473 4.99316Z" fill="#323232"/>
</svg>
