<svg width="17" height="23" viewBox="0 0 17 23" fill="none" xmlns="http://www.w3.org/2000/svg">
<path d="M8.26953 0.276367C10.5254 0.276367 12.2783 0.730469 13.5283 1.63867C14.7881 2.54688 15.418 3.83594 15.418 5.50586C15.418 6.63867 15.1201 7.63477 14.5244 8.49414C13.9385 9.34375 13.0059 10.0859 11.7266 10.7207C13.3086 11.6191 14.4219 12.5176 15.0664 13.416C15.7207 14.3047 16.0479 15.2666 16.0479 16.3018C16.0479 18.2061 15.3594 19.6807 13.9824 20.7256C12.6055 21.7705 10.6816 22.293 8.21094 22.293C5.69141 22.293 3.7627 21.7852 2.4248 20.7695C1.08691 19.7441 0.417969 18.2744 0.417969 16.3604C0.417969 15.1201 0.71582 14.0654 1.31152 13.1963C1.90723 12.3174 2.9082 11.5215 4.31445 10.8086C3.18164 10.0469 2.35156 9.23145 1.82422 8.3623C1.30664 7.4834 1.04785 6.52148 1.04785 5.47656C1.04785 3.83594 1.6875 2.56152 2.9668 1.65332C4.24609 0.735352 6.01367 0.276367 8.26953 0.276367ZM5.7207 16.126C5.7207 16.7314 5.93555 17.2197 6.36523 17.5908C6.79492 17.9521 7.39062 18.1328 8.15234 18.1328C9.87109 18.1328 10.7305 17.5029 10.7305 16.2432C10.7305 15.7646 10.54 15.2959 10.1592 14.8369C9.78809 14.3682 9.11914 13.8457 8.15234 13.2695C7.2832 13.7285 6.6582 14.1924 6.27734 14.6611C5.90625 15.1201 5.7207 15.6084 5.7207 16.126ZM8.24023 4.45117C7.74219 4.45117 7.32227 4.59766 6.98047 4.89062C6.63867 5.17383 6.46777 5.54492 6.46777 6.00391C6.46777 6.84375 7.03906 7.58594 8.18164 8.23047C8.875 7.83008 9.34863 7.46387 9.60254 7.13184C9.85645 6.7998 9.9834 6.42383 9.9834 6.00391C9.9834 5.53516 9.8125 5.15918 9.4707 4.87598C9.12891 4.59277 8.71875 4.45117 8.24023 4.45117Z" fill="#323232"/>
</svg>
