<svg width="13" height="14" viewBox="0 0 13 14" fill="none" xmlns="http://www.w3.org/2000/svg">
<path d="M8.10333 9C10.985 9 13 7.14194 13 4.47097C13 1.8 10.985 0 8.10333 0H2.57292C2.34857 0 2.16667 0.167906 2.16667 0.375V6.83225H0.40625C0.181898 6.83225 0 7.00016 0 7.20725V8.625C0 8.83209 0.181898 9 0.40625 9H2.16667V10H0.40625C0.181898 10 0 10.1679 0 10.375V11.625C0 11.8321 0.181898 12 0.40625 12H2.16667V13.625C2.16667 13.8321 2.34857 14 2.57292 14H4.55542C4.77977 14 4.96167 13.8321 4.96167 13.625V12H10.4271C10.6514 12 10.8333 11.8321 10.8333 11.625V10.375C10.8333 10.1679 10.6514 10 10.4271 10H4.96167V9H8.10333ZM4.96167 2.14838H7.62667C9.20833 2.14838 10.1617 3.05806 10.1617 4.47097C10.1617 5.90322 9.20833 6.83225 7.58333 6.83225H4.96167V2.14838Z" fill="#475DA8"/>
</svg>
