<svg width="80" height="80" viewBox="0 0 80 80" fill="none" xmlns="http://www.w3.org/2000/svg">
<path d="M40 80C62.0914 80 80 62.0914 80 40C80 17.9086 62.0914 0 40 0C17.9086 0 0 17.9086 0 40C0 62.0914 17.9086 80 40 80Z" fill="#F5F5F7"/>
<path d="M40 80C62.0914 80 80 62.0914 80 40C80 17.9086 62.0914 0 40 0C17.9086 0 0 17.9086 0 40C0 62.0914 17.9086 80 40 80Z" fill="url(#paint0_radial)"/>
<path d="M52.4441 13.333H27.5552C19.733 13.333 13.333 19.733 13.333 27.5552V52.4441C13.333 60.2663 19.733 66.6663 27.5552 66.6663H52.4441C60.2663 66.6663 66.6663 60.2663 66.6663 52.4441V27.5552C66.6663 19.733 60.2663 13.333 52.4441 13.333ZM62.2219 50.9597C62.2219 57.1552 57.1552 62.2219 50.9597 62.2219H29.0397C22.8441 62.2219 17.7775 57.1552 17.7775 50.9597V29.0397C17.7775 22.8441 22.8441 17.7775 29.0397 17.7775H50.9686C57.1552 17.7775 62.2219 22.8441 62.2219 29.0397V50.9597Z" fill="#F5F5F7"/>
<path d="M40.0002 24.7646C31.5824 24.7646 24.7646 31.5913 24.7646 40.0002C24.7646 48.4091 31.5824 55.2358 40.0002 55.2358C48.418 55.2358 55.2358 48.418 55.2358 40.0002C55.2358 31.5824 48.418 24.7646 40.0002 24.7646ZM40.0002 49.7246C34.6313 49.7246 30.2758 45.3691 30.2758 40.0002C30.2758 34.6313 34.6313 30.2758 40.0002 30.2758C45.3691 30.2758 49.7246 34.6313 49.7246 40.0002C49.7246 45.3691 45.3691 49.7246 40.0002 49.7246Z" fill="#F5F5F7"/>
<path d="M55.2354 27.8136C56.9193 27.8136 58.2843 26.4486 58.2843 24.7647C58.2843 23.0809 56.9193 21.7158 55.2354 21.7158C53.5516 21.7158 52.1865 23.0809 52.1865 24.7647C52.1865 26.4486 53.5516 27.8136 55.2354 27.8136Z" fill="#F5F5F7"/>
<defs>
<radialGradient id="paint0_radial" cx="0" cy="0" r="1" gradientUnits="userSpaceOnUse" gradientTransform="translate(15.8733 77.8938) scale(103.189)">
<stop stop-color="#FCEE21"/>
<stop offset="0.0443152" stop-color="#FBE721"/>
<stop offset="0.1099" stop-color="#FAD322"/>
<stop offset="0.1887" stop-color="#F8B222"/>
<stop offset="0.2769" stop-color="#F48523"/>
<stop offset="0.35" stop-color="#F15A24"/>
<stop offset="0.5" stop-color="#D4145A"/>
<stop offset="0.8" stop-color="#93278F"/>
<stop offset="1" stop-color="#93278F"/>
</radialGradient>
</defs>
</svg>
