<svg width="80" height="80" viewBox="0 0 80 80" fill="none" xmlns="http://www.w3.org/2000/svg">
<path d="M40 80C62.0914 80 80 62.0914 80 40C80 17.9086 62.0914 0 40 0C17.9086 0 0 17.9086 0 40C0 62.0914 17.9086 80 40 80Z" fill="#55ACEE"/>
<path d="M64.5012 28.7473C62.787 29.5074 60.9431 30.0215 59.0094 30.2511C60.9838 29.0681 62.499 27.1964 63.2141 24.9624C61.3667 26.0584 59.3195 26.8534 57.1426 27.282C55.3985 25.4245 52.9136 24.2637 50.162 24.2637C44.8826 24.2637 40.6009 28.5455 40.6009 33.8248C40.6009 34.5742 40.6857 35.3036 40.8497 36.0038C32.9036 35.6053 25.8581 31.7991 21.142 26.0128C20.3192 27.4246 19.8472 29.0681 19.8472 30.8201C19.8472 34.1364 21.5364 37.0641 24.1004 38.7783C22.5339 38.7291 21.0586 38.2991 19.7702 37.5811C19.7694 37.6217 19.7694 37.6624 19.7694 37.7023C19.7694 42.3349 23.0665 46.1989 27.4396 47.0766C26.6381 47.2962 25.7918 47.4124 24.9211 47.4124C24.3037 47.4124 23.7054 47.3533 23.1222 47.242C24.3386 51.0397 27.8688 53.8041 32.0537 53.8818C28.7808 56.4466 24.6587 57.9747 20.178 57.9747C19.4079 57.9747 18.645 57.9298 17.8984 57.8406C22.1275 60.5544 27.1544 62.1367 32.5535 62.1367C50.1399 62.1367 59.7573 47.5679 59.7573 34.9321C59.7573 34.5179 59.7481 34.105 59.7295 33.6957C61.5991 32.3481 63.2198 30.6646 64.5012 28.7473Z" fill="#F5F5F7"/>
</svg>
