<svg width="80" height="80" viewBox="0 0 80 80" fill="none" xmlns="http://www.w3.org/2000/svg">
<path d="M40 80C62.0914 80 80 62.0914 80 40C80 17.9086 62.0914 0 40 0C17.9086 0 0 17.9086 0 40C0 62.0914 17.9086 80 40 80Z" fill="#4D76A1"/>
<path fill-rule="evenodd" clip-rule="evenodd" d="M38.4895 57.5433H41.629C41.629 57.5433 42.5773 57.4391 43.0615 56.9172C43.5071 56.438 43.4929 55.5382 43.4929 55.5382C43.4929 55.5382 43.4316 51.3256 45.3867 50.7052C47.3141 50.0941 49.789 54.7767 52.4123 56.5771C54.3959 57.9397 55.9033 57.6409 55.9033 57.6409L62.9175 57.5433C62.9175 57.5433 66.5868 57.3172 64.847 54.4323C64.7043 54.1963 63.8337 52.2981 59.6318 48.3978C55.2338 44.3157 55.8227 44.976 61.1206 37.9147C64.3471 33.6144 65.637 30.989 65.2341 29.8645C64.8498 28.7936 62.4768 29.0766 62.4768 29.0766L54.5792 29.1258C54.5792 29.1258 53.9938 29.046 53.5596 29.3055C53.1353 29.5601 52.8622 30.1533 52.8622 30.1533C52.8622 30.1533 51.6122 33.4811 49.9452 36.3111C46.4285 42.2828 45.0224 42.598 44.4476 42.2272C43.1107 41.363 43.4444 38.7554 43.4444 36.9029C43.4444 31.1159 44.3221 28.703 41.7352 28.0784C40.8768 27.8709 40.245 27.734 38.0496 27.7119C35.2316 27.6827 32.8465 27.7204 31.496 28.3821C30.5976 28.8221 29.9045 29.8025 30.3266 29.8588C30.8486 29.9287 32.0308 30.1776 32.6576 31.0311C33.4669 32.132 33.4383 34.6048 33.4383 34.6048C33.4383 34.6048 33.9032 41.4172 32.3524 42.2636C31.2878 42.844 29.8275 41.6589 26.6923 36.2412C25.0858 33.4661 23.8729 30.3986 23.8729 30.3986C23.8729 30.3986 23.6391 29.8253 23.2219 29.5187C22.7157 29.1472 22.0083 29.0289 22.0083 29.0289L14.5036 29.0781C14.5036 29.0781 13.377 29.1094 12.9635 29.5993C12.5955 30.035 12.9342 30.9362 12.9342 30.9362C12.9342 30.9362 18.8097 44.6822 25.4623 51.6094C31.5623 57.9604 38.4895 57.5433 38.4895 57.5433Z" fill="#F5F5F7"/>
</svg>
