<svg width="80" height="80" viewBox="0 0 80 80" fill="none" xmlns="http://www.w3.org/2000/svg">
<path d="M40.0001 80.0002C62.0915 80.0002 80.0002 62.0915 80.0002 40.0001C80.0002 17.9086 62.0915 0 40.0001 0C17.9086 0 0 17.9086 0 40.0001C0 62.0915 17.9086 80.0002 40.0001 80.0002Z" fill="#FF0000"/>
<path d="M64 31.049C64 27.1556 60.8555 24 56.9762 24H24.0225C20.1439 24 17 27.1564 17 31.049V49.951C17 53.8444 20.1445 57 24.0225 57H56.9756C60.8557 57 63.9994 53.8436 63.9994 49.951V31.049H64ZM35.7985 48.474V30.7205L49.2211 39.5977L35.7985 48.474Z" fill="#F5F5F7"/>
</svg>
