<svg width="96" height="80" viewBox="0 0 96 80" fill="none" xmlns="http://www.w3.org/2000/svg">
<g clip-path="url(#clip0)">
<path d="M94.0942 9.82814H87.7149V1.85405C87.7149 0.976903 86.9973 0.259235 86.1201 0.259235C86.0802 0.259235 86.0204 0.259235 85.9806 0.259235L81.834 0.598134C71.7468 1.43541 61.839 3.84757 52.5093 7.75487L47.8445 9.68859L43.1996 7.75487C33.85 3.84757 23.9621 1.43541 13.8749 0.598134L9.70845 0.259235C8.8313 0.179494 8.05382 0.837356 7.99402 1.71451C7.99402 1.75438 7.99402 1.81418 7.99402 1.85405V9.82814H1.59482C0.717668 9.82814 0 10.5458 0 11.423V78.4053C0 79.2824 0.717668 80.0001 1.59482 80.0001H94.0942C94.9713 80.0001 95.689 79.2824 95.689 78.4053V11.423C95.689 10.5259 94.9713 9.82814 94.0942 9.82814ZM3.18963 76.8104V13.0178H7.97408V68.8363C7.97408 69.6736 8.61201 70.3514 9.42935 70.4312L13.7154 70.79C14.8916 70.8897 16.0478 71.0093 17.224 71.1488C17.6227 71.1887 18.0015 71.2485 18.4002 71.3083C19.1777 71.408 19.9551 71.5077 20.7127 71.6472C21.1712 71.727 21.6297 71.8067 22.0882 71.8864C22.7859 72.0061 23.4837 72.1257 24.1814 72.2652C24.6599 72.3649 25.1383 72.4646 25.6167 72.5642C26.2945 72.7038 26.9524 72.8633 27.6302 73.0227C28.1086 73.1424 28.5871 73.262 29.0855 73.3816C29.7433 73.5411 30.4012 73.7205 31.0591 73.8999C31.5375 74.0394 32.0159 74.179 32.4944 74.3185C33.1523 74.5179 33.7902 74.7172 34.448 74.9166C34.9265 75.0761 35.4049 75.2156 35.8634 75.3751C36.5213 75.5944 37.1592 75.8137 37.8171 76.0529C38.2756 76.2124 38.7341 76.3918 39.1926 76.5513C39.392 76.631 39.5913 76.7108 39.7907 76.7905L3.18963 76.8104ZM46.2497 76.013L43.2993 74.777C33.9696 70.8697 24.0817 68.4376 13.9945 67.6004L11.1637 67.3611V3.58842L13.5958 3.78777C23.3641 4.58518 32.933 6.93753 41.9636 10.7053L46.2497 12.4795V76.013ZM49.4393 76.013V12.4795L53.7254 10.7053C62.756 6.9176 72.3249 4.58518 82.0932 3.78777L84.5253 3.58842V67.3611L81.9138 67.5804C71.8266 68.4177 61.9188 70.8299 52.5692 74.7172L49.4393 76.013ZM92.4994 76.8104H55.9382C56.1575 76.7307 56.3768 76.631 56.5961 76.5513C57.0745 76.3719 57.553 76.1924 58.0513 76.013C58.6693 75.7937 59.3073 75.5745 59.9252 75.3552C60.4236 75.1957 60.9021 75.0362 61.4004 74.8767C62.0384 74.6774 62.6564 74.478 63.2943 74.2986C63.7927 74.1591 64.2911 73.9996 64.7894 73.86C65.4274 73.6806 66.0653 73.5211 66.7232 73.3417C67.2215 73.2221 67.7199 73.0826 68.2183 72.9629C68.8762 72.8035 69.5539 72.6639 70.2118 72.5244C70.6903 72.4247 71.1687 72.3051 71.6471 72.2253C72.3449 72.0858 73.0625 71.9662 73.7603 71.8466C74.2188 71.7668 74.6773 71.6871 75.1358 71.6073C75.9133 71.4877 76.7107 71.3681 77.5081 71.2684C77.8869 71.2286 78.2656 71.1488 78.6444 71.109C79.8206 70.9694 80.9968 70.8498 82.1729 70.7501L86.2597 70.4112C87.0969 70.3514 87.7349 69.6537 87.7149 68.8164V12.9978H92.4994V76.8104Z" fill="#F5F5F7"/>
</g>
<defs>
<clipPath id="clip0">
<rect width="95.689" height="80" fill="white"/>
</clipPath>
</defs>
</svg>
