<svg width="99" height="80" viewBox="0 0 99 80" fill="none" xmlns="http://www.w3.org/2000/svg">
<g clip-path="url(#clip0)">
<path d="M42.4895 14.1372L41.357 20.6395C41.2398 21.2839 41.6694 21.8892 42.3138 21.9868C42.5676 22.0259 42.8215 21.9868 43.0558 21.8697L48.9137 18.804L54.7521 21.8892C55.3184 22.1821 56.0409 21.9673 56.3338 21.401C56.4509 21.1667 56.49 20.9129 56.451 20.659L55.3575 14.1567L60.0829 9.56798C60.5515 9.11887 60.5515 8.37686 60.1024 7.90822C59.9267 7.73249 59.6923 7.5958 59.4385 7.55675L52.9167 6.59995L50.0072 0.6639C49.8119 0.253844 49.4019 0 48.9528 0C48.5037 0 48.0936 0.253844 47.8984 0.644374L44.9694 6.5609L38.428 7.49817C37.7836 7.5958 37.3345 8.1816 37.4322 8.82597C37.4712 9.07981 37.5884 9.31413 37.7641 9.48987L42.4895 14.1372ZM45.9067 8.80644C46.2972 8.74786 46.6096 8.51355 46.7853 8.16207L48.9333 3.82719L51.0616 8.1816C51.2374 8.53307 51.5693 8.76739 51.9403 8.82597L56.7243 9.52892L53.2486 12.907C52.9752 13.1804 52.8386 13.5709 52.9167 13.9419L53.7172 18.7259L49.4409 16.4608C49.109 16.2851 48.6989 16.2851 48.3475 16.4608L44.0516 18.7064L44.8913 13.9419C44.9499 13.5709 44.8327 13.1804 44.5593 12.907L41.1031 9.5094L45.9067 8.80644Z" fill="#F5F5F7"/>
<path d="M72.9314 18.4328L71.9356 24.1541C71.8184 24.7984 72.248 25.4038 72.8924 25.5014C73.1462 25.5404 73.4001 25.5014 73.6344 25.3842L78.7699 22.6896L83.9053 25.4038C84.4716 25.6967 85.1941 25.4819 85.487 24.9156C85.6041 24.6813 85.6432 24.4274 85.6041 24.1736L84.6278 18.4523L88.7869 14.4103C89.2556 13.9612 89.2556 13.2192 88.8065 12.7506C88.6307 12.5749 88.3964 12.4382 88.1426 12.3991L82.4018 11.5595L79.8633 6.36544C79.6681 5.95538 79.258 5.70154 78.8089 5.70154C78.3598 5.70154 77.9497 5.95538 77.7545 6.34591L75.177 11.54L69.4362 12.3601C68.7918 12.4577 68.3427 13.0435 68.4403 13.6879C68.4794 13.9417 68.5966 14.176 68.7723 14.3518L72.9314 18.4328ZM76.1142 13.7855C76.5048 13.7269 76.8172 13.4926 76.9929 13.1411L78.7894 9.52873L80.5663 13.1607C80.742 13.5121 81.074 13.7464 81.445 13.805L85.4479 14.3908L82.5385 17.2026C82.2651 17.476 82.1284 17.8665 82.2065 18.2375L82.8899 22.2209L79.3166 20.3269C78.9846 20.1511 78.5746 20.1511 78.2231 20.3269L74.6498 22.2014L75.3332 18.218C75.3918 17.847 75.2746 17.4565 75.0012 17.1831L72.1113 14.3518L76.1142 13.7855Z" fill="#F5F5F7"/>
<path d="M13.1998 18.4329L12.204 24.1542C12.0868 24.7986 12.5164 25.4039 13.1608 25.5015C13.4146 25.5406 13.6684 25.5015 13.9028 25.3843L19.0382 22.6897L24.1737 25.4039C24.74 25.6968 25.4624 25.482 25.7553 24.9157C25.8725 24.6814 25.9115 24.4276 25.8725 24.1737L24.8962 18.4524L29.0553 14.4105C29.5239 13.9614 29.5239 13.2194 29.0748 12.7507C28.8991 12.575 28.6648 12.4383 28.4109 12.3992L22.6702 11.5596L20.1122 6.34603C19.9169 5.93597 19.5069 5.68213 19.0578 5.68213C18.6086 5.68213 18.1986 5.93597 18.0033 6.3265L15.4649 11.5401L9.72409 12.3602C9.07972 12.4578 8.63061 13.0436 8.72824 13.688C8.7673 13.9418 8.88445 14.1761 9.06019 14.3519L13.1998 18.4329ZM16.4022 13.7856C16.7927 13.727 17.1246 13.4927 17.2808 13.1412L19.0773 9.52885L20.8542 13.1608C21.0299 13.5122 21.3619 13.7466 21.7329 13.8051L25.7358 14.3909L22.8459 17.2028C22.5725 17.4761 22.4358 17.8667 22.5139 18.2377L23.1778 22.2211L19.6045 20.327C19.2725 20.1513 18.8625 20.1513 18.511 20.327L14.9377 22.2015L15.6211 18.2181C15.6797 17.8471 15.5625 17.4566 15.2891 17.1832L12.3992 14.3519L16.4022 13.7856Z" fill="#F5F5F7"/>
<path d="M49.0111 26.556C43.8171 26.556 39.6189 30.7738 39.6189 35.9483V41.4352C39.6189 46.6293 43.8171 50.8274 49.0111 50.8274C54.2052 50.8274 58.4034 46.6293 58.4034 41.4352V35.9483C58.4034 30.7738 54.2052 26.5756 49.0111 26.556ZM56.0602 41.4352C56.0602 45.321 52.8969 48.4843 49.0111 48.4843C45.1254 48.4843 41.9621 45.321 41.9621 41.4352V35.9483C41.9621 32.0625 45.1254 28.8992 49.0111 28.8992C52.8969 28.8992 56.0602 32.0625 56.0602 35.9483V41.4352Z" fill="#F5F5F7"/>
<path d="M78.1645 31.2035C73.4 31.2035 69.5143 35.0697 69.5143 39.8537V44.833C69.5143 49.617 73.3805 53.4832 78.1645 53.4832C82.9485 53.4832 86.8147 49.617 86.8147 44.833V39.8537C86.8147 35.0893 82.929 31.223 78.1645 31.2035ZM84.4716 44.833C84.4716 48.3087 81.6402 51.14 78.1645 51.14C74.6888 51.14 71.8575 48.3282 71.8575 44.833V39.8537C71.8575 36.378 74.6888 33.5467 78.1645 33.5467C81.6402 33.5467 84.4716 36.378 84.4716 39.8537V44.833Z" fill="#F5F5F7"/>
<path d="M88.123 55.2404H84.9793C84.3935 55.2404 83.9248 54.7718 83.9053 54.1665C83.9053 53.5221 83.3781 52.9949 82.7337 52.9949C82.2456 52.9949 81.7964 53.3073 81.6402 53.7759L80.3905 57.2712C79.961 58.4818 78.6136 59.1262 77.3835 58.6771C76.7196 58.4427 76.1923 57.896 75.958 57.2321L74.7669 53.7564C74.5521 53.1511 73.8882 52.8191 73.2829 53.0339C73.1071 53.0925 72.9705 53.1901 72.8338 53.3073L72.8143 53.3268C72.5995 53.5416 72.4628 53.854 72.4628 54.1469C72.4628 54.7327 71.9941 55.2014 71.3888 55.2209H68.1865C67.6788 55.2209 67.1711 55.2599 66.6829 55.338C64.7889 53.815 62.4066 52.9753 59.9658 52.9753H56.5096C55.8067 52.9753 55.2209 52.3895 55.2209 51.6866C55.2209 51.0422 54.6937 50.515 54.0493 50.515C53.5611 50.515 53.112 50.8274 52.9558 51.2961L51.5694 55.1428C51.0618 56.5487 49.5192 57.2712 48.1133 56.7635C47.3517 56.4901 46.7464 55.8848 46.473 55.1037L45.1648 51.2765C44.95 50.6712 44.2861 50.3393 43.6807 50.5541C43.505 50.6126 43.3683 50.7103 43.2316 50.8274L43.1926 50.8665C42.9778 51.0813 42.8411 51.3742 42.8411 51.6866C42.8411 52.3895 42.2553 52.9753 41.5524 52.9753H38.0376C35.5968 52.9753 33.2341 53.815 31.3205 55.338C30.8128 55.2599 30.3246 55.2209 29.8169 55.2209H26.6732C26.0874 55.2209 25.6187 54.7522 25.5992 54.1469C25.5992 53.5025 25.072 52.9753 24.4276 52.9753C23.9395 52.9753 23.4904 53.2878 23.3341 53.7564L22.0845 57.2516C21.6549 58.4623 20.3075 59.1066 19.0774 58.6575C18.4135 58.4232 17.8863 57.8765 17.6519 57.2126L16.4608 53.7369C16.246 53.1316 15.5821 52.7996 14.9768 53.0144C14.8011 53.073 14.6644 53.1706 14.5277 53.2878L14.5082 53.3073C14.2934 53.5221 14.1567 53.8345 14.1567 54.1274C14.1567 54.7132 13.6881 55.1818 13.0827 55.2014H9.89993C4.43251 55.2014 0.0195265 59.6339 0 65.1013V78.8089C0 79.4532 0.527215 79.9804 1.17159 79.9804H96.8514C97.4957 79.9804 98.0229 79.4532 98.0229 78.8089V65.1013C98.0229 59.6729 93.5904 55.2404 88.123 55.2404ZM27.2785 63.754V77.6568H2.34318V65.1208C2.34318 60.9617 5.72126 57.5836 9.89993 57.5641H13.0827C13.8052 57.5641 14.4887 57.3493 15.0744 56.9197L15.4454 57.9741C16.2851 60.4149 18.9602 61.7232 21.401 60.8836C22.7484 60.4149 23.8028 59.38 24.2909 58.0327L24.701 56.9197C25.2477 57.3102 25.8921 57.5445 26.5755 57.5641C26.5951 57.5641 26.6146 57.5641 26.6341 57.5641H29.2507C27.9619 59.38 27.2785 61.5475 27.2785 63.754ZM68.4013 77.6568H29.6217V63.754C29.6217 59.1067 33.3903 55.338 38.0376 55.338H41.5524C42.3725 55.338 43.1535 55.0647 43.7979 54.557L44.247 55.8848C45.1452 58.5209 48.0156 59.9072 50.6517 59.009C52.0967 58.5013 53.2292 57.3883 53.7564 55.9434L54.2446 54.557C54.8499 55.0256 55.5919 55.299 56.373 55.338C56.3925 55.338 56.412 55.338 56.4315 55.338H59.9463C64.5936 55.338 68.3622 59.1067 68.3622 63.754L68.4013 77.6568ZM95.6798 77.6568H70.7444V63.754C70.7444 61.5475 70.061 59.38 68.7918 57.5836H71.4083C72.1308 57.5836 72.8143 57.3688 73.4 56.9392L73.771 57.9936C74.6107 60.4345 77.2858 61.7427 79.7266 60.9031C81.074 60.4344 82.1284 59.3995 82.6166 58.0522L83.0266 56.9392C83.5733 57.3297 84.2177 57.5641 84.9011 57.5836C84.9207 57.5836 84.9402 57.5836 84.9597 57.5836H88.1621C92.3212 57.5836 95.6993 60.9617 95.7188 65.1403V77.6568H95.6798Z" fill="#F5F5F7"/>
<path d="M11.2079 39.8537V44.833C11.2079 49.617 15.0741 53.4832 19.8581 53.4832C24.6421 53.4832 28.5083 49.617 28.5083 44.833V39.8537C28.5083 35.0697 24.6421 31.2035 19.8581 31.2035C15.0741 31.2035 11.2079 35.0893 11.2079 39.8537ZM26.1652 39.8537V44.833C26.1652 48.3087 23.3534 51.14 19.8581 51.14C16.3824 51.14 13.5511 48.3282 13.5511 44.833V39.8537C13.5511 36.378 16.3824 33.5467 19.8581 33.5467C23.3338 33.5467 26.1652 36.378 26.1652 39.8537Z" fill="#F5F5F7"/>
</g>
<defs>
<clipPath id="clip0">
<rect width="98.0229" height="80" fill="white"/>
</clipPath>
</defs>
</svg>
