<svg width="103" height="80" viewBox="0 0 103 80" fill="none" xmlns="http://www.w3.org/2000/svg">
<g clip-path="url(#clip0)">
<path d="M86.8421 13.017L78.1253 21.7338L80.9622 24.5707L89.679 15.8539L86.8421 13.017Z" fill="#F5F5F7"/>
<path d="M78.1314 15.851L86.8482 24.5677L89.6851 21.7309L80.9683 13.0141L78.1314 15.851Z" fill="#F5F5F7"/>
<path d="M58.6027 18.1911H7.32105C4.90356 18.1911 2.93185 20.1628 2.93185 22.5803V28.4269H58.6027C59.3913 28.4269 60.0772 29.0098 60.1286 29.7985C60.18 30.6558 59.5628 31.3587 58.7227 31.3587H2.93185V40.8744H77.8568C78.6284 40.8744 79.3142 41.4573 79.3656 42.246C79.4171 43.1033 78.7484 43.8062 77.9083 43.8062H1.45735C0.651522 43.8062 0 43.1547 0 42.3489V22.5803C0 18.534 3.27475 15.2593 7.32105 15.2593H58.6027V18.1911ZM87.784 43.7891V72.6961C87.784 76.7423 84.5092 80.0171 80.4629 80.0171H7.32105C3.27475 80 0 76.7252 0 72.6961V50.8015C0 50.03 0.58294 49.3441 1.37162 49.2927C2.22889 49.2413 2.93185 49.9099 2.93185 50.7501V72.6961C2.93185 75.1135 4.90356 77.0853 7.32105 77.0853H80.4801C82.8976 77.0853 84.8693 75.1135 84.8693 72.6961V43.7891H87.784ZM76.0737 60.6258C76.0737 56.8709 71.8903 54.5906 68.7355 56.6309C71.8388 61.7231 68.1697 68.3069 62.1689 68.3069C57.934 68.3069 54.4878 64.8607 54.4878 60.6258C54.4878 54.3163 61.706 50.7158 66.7467 54.4534C71.8045 50.7158 79.0056 54.3334 79.0056 60.6258C79.0056 64.8607 75.5594 68.3069 71.3245 68.3069C70.5186 68.3069 69.8671 67.6553 69.8671 66.8495C69.8671 66.0437 70.5186 65.3922 71.3245 65.3922C73.9477 65.375 76.0737 63.2318 76.0737 60.6258ZM66.9353 60.6258C66.9353 58.0025 64.8093 55.8765 62.186 55.8765C59.5628 55.8765 57.4368 58.0025 57.4368 60.6258C57.4368 63.249 59.5628 65.375 62.186 65.375C64.8093 65.375 66.9353 63.2318 66.9353 60.6258ZM13.3562 57.5053H25.6151C26.4209 57.5053 27.0724 56.8538 27.0724 56.048C27.0724 55.2421 26.4209 54.5906 25.6151 54.5906H13.3562C12.5504 54.5906 11.8988 55.2421 11.8988 56.048C11.8817 56.8538 12.5504 57.5053 13.3562 57.5053ZM13.3562 66.6609H25.6151C26.4209 66.6609 27.0724 66.0094 27.0724 65.2036C27.0724 64.3977 26.4209 63.7462 25.6151 63.7462H13.3562C12.5504 63.7462 11.8988 64.3977 11.8988 65.2036C11.8988 66.0094 12.5504 66.6609 13.3562 66.6609Z" fill="#F5F5F7"/>
<path d="M83.9088 3.70334C92.2414 3.70334 98.9967 10.4586 98.9967 18.7912C98.9967 27.1238 92.2414 33.8791 83.9088 33.8791C75.5762 33.8791 68.8209 27.1238 68.8209 18.7912C68.8209 10.4586 75.5762 3.70334 83.9088 3.70334ZM83.9088 0.617188C73.8788 0.617188 65.7348 8.77835 65.7348 18.7912C65.7348 28.8041 73.8959 36.9652 83.9088 36.9652C93.9217 36.9652 102.083 28.8041 102.083 18.7912C102.083 8.77835 93.9217 0.617188 83.9088 0.617188Z" fill="#F5F5F7"/>
<path d="M87.7837 43.7893H84.8518V40.8575C84.8518 40.0517 85.5033 39.4001 86.3092 39.4001C87.115 39.4001 87.7665 40.0517 87.7665 40.8575V43.7893H87.7837Z" fill="#F5F5F7"/>
<path d="M63.0087 16.7338C63.0087 17.5396 62.3572 18.2083 61.5513 18.2083H58.6195V15.2593H61.5513C62.3572 15.2593 63.0087 15.9108 63.0087 16.7338Z" fill="#F5F5F7"/>
</g>
<defs>
<clipPath id="clip0">
<rect width="102.272" height="80" fill="white"/>
</clipPath>
</defs>
</svg>
