<svg width="62" height="80" viewBox="0 0 62 80" fill="none" xmlns="http://www.w3.org/2000/svg">
<g clip-path="url(#clip0)">
<path d="M30.8075 11.5385C32.082 11.5385 33.1152 10.5053 33.1152 9.23079C33.1152 7.95628 32.082 6.9231 30.8075 6.9231C29.533 6.9231 28.4998 7.95628 28.4998 9.23079C28.4998 10.5053 29.533 11.5385 30.8075 11.5385Z" fill="#F5F5F7"/>
<path d="M61.5385 18.4615C61.5385 15.0577 58.7885 12.3077 55.3846 12.3077H46.8462C45.7115 11.0385 44.25 10.0769 42.5577 9.59615C41.1346 9.19231 40.0577 8.09615 39.6346 6.67308C38.5385 2.82692 34.9808 0 30.7692 0C26.5577 0 23 2.82692 21.9038 6.67308C21.5 8.09615 20.4038 9.17308 18.9808 9.59615C17.3077 10.0769 15.8462 11.0385 14.6923 12.3077H6.15385C2.75 12.3077 0 15.0577 0 18.4615V73.8462C0 77.25 2.75 80 6.15385 80C20.2885 80 37.6538 80 55.3846 80C58.7885 80 61.5385 77.25 61.5385 73.8462C61.5385 56.3654 61.5385 39.6346 61.5385 18.4615ZM15.3846 18.4038C15.4038 15.6923 17.2308 13.2885 19.8269 12.5385C22.2692 11.8269 24.1538 9.96154 24.8462 7.51923C25.6154 4.90385 28.0385 3.07692 30.7692 3.07692C33.5 3.07692 35.9231 4.90385 36.6923 7.51923C37.4038 9.96154 39.2692 11.8462 41.7115 12.5385C44.3269 13.3077 46.1538 15.7308 46.1538 18.4615V21.5385H15.3846V18.4038ZM55.3846 76.9231C38.9423 76.9231 22.5385 76.9231 6.15385 76.9231C4.46154 76.9231 3.07692 75.5385 3.07692 73.8462V18.4615C3.07692 16.7692 4.46154 15.3846 6.15385 15.3846H12.8269C12.5 16.3269 12.3077 17.3269 12.3077 18.3846V24.6154H49.2308V18.4615C49.2308 17.3846 49.0385 16.3462 48.6923 15.3846H55.3846C57.0769 15.3846 58.4615 16.7692 58.4615 18.4615C58.4615 27.25 58.4615 68.5192 58.4615 73.8462C58.4615 75.5385 57.0769 76.9231 55.3846 76.9231Z" fill="#F5F5F7"/>
<path d="M43.558 37.4038L25.058 55.9038L16.9234 47.75L14.7311 49.923L25.058 60.25L45.7311 39.5769L43.558 37.4038Z" fill="#F5F5F7"/>
</g>
<defs>
<clipPath id="clip0">
<rect width="61.5385" height="80" fill="white"/>
</clipPath>
</defs>
</svg>
