<svg width="102" height="80" viewBox="0 0 102 80" fill="none" xmlns="http://www.w3.org/2000/svg">
<g clip-path="url(#clip0)">
<path d="M84.4758 43.7893V72.6963C84.4758 75.1138 82.5128 77.0855 80.1061 77.0855H7.28858C4.88181 77.0855 2.91884 75.1138 2.91884 72.6963V50.7503C2.91884 49.9102 2.219 49.2415 1.36554 49.293C0.597424 49.3444 0 50.0302 0 50.8017V72.6963C0 76.7426 3.26023 80.0174 7.28858 80.0174H80.1231C84.1515 80.0174 87.4117 76.7426 87.4117 72.6963V43.7893H84.4758Z" fill="#F5F5F7"/>
<path d="M83.5367 3.70334C91.8324 3.70334 98.5577 10.4586 98.5577 18.7912C98.5577 27.1238 91.8324 33.8791 83.5367 33.8791C75.2411 33.8791 68.5158 27.1238 68.5158 18.7912C68.5158 10.4586 75.2411 3.70334 83.5367 3.70334ZM83.5367 0.617188C73.5512 0.617188 65.4433 8.77835 65.4433 18.7912C65.4433 28.8041 73.5683 36.9652 83.5367 36.9652C93.5052 36.9652 101.63 28.8041 101.63 18.7912C101.63 8.77835 93.5052 0.617188 83.5367 0.617188Z" fill="#F5F5F7"/>
<path d="M87.3945 43.7893H84.4756V40.8575C84.4756 40.0517 85.1243 39.4001 85.9265 39.4001C86.7288 39.4001 87.3774 40.0517 87.3774 40.8575V43.7893H87.3945Z" fill="#F5F5F7"/>
<path d="M62.7294 16.7338C62.7294 17.5396 62.0807 18.2083 61.2785 18.2083H58.3596V15.2593H61.2785C62.0807 15.2593 62.7294 15.9108 62.7294 16.7338Z" fill="#F5F5F7"/>
<path d="M43.8849 27.1924H10.7705C9.9853 27.1924 9.33667 27.8268 9.33667 28.6326V32.0616C9.33667 32.8503 9.96823 33.5019 10.7705 33.5019C11.5727 33.5019 12.2043 32.8675 12.2043 32.0616V30.0556H42.4681V65.0321H12.2043V37.8053C12.2043 37.0166 11.5727 36.3651 10.7705 36.3651C9.96823 36.3651 9.33667 36.9995 9.33667 37.8053V66.4723C9.33667 67.261 9.96823 67.9125 10.7705 67.9125H43.8849C44.67 67.9125 45.3187 67.2781 45.3187 66.4723V28.6326C45.3187 27.8439 44.67 27.1924 43.8849 27.1924Z" fill="#F5F5F7"/>
<path d="M60.2546 30.5188H52.2662C51.481 30.5188 50.8324 31.1532 50.8324 31.959C50.8324 32.7648 51.4639 33.3992 52.2662 33.3992H60.2546C61.0398 33.3992 61.6884 32.7648 61.6884 31.959C61.6884 31.1532 61.0398 30.5188 60.2546 30.5188Z" fill="#F5F5F7"/>
<path d="M52.2489 43.7891H74.3194C75.1046 43.7891 75.7533 43.1547 75.7533 42.3489C75.7533 41.5431 75.1217 40.9087 74.3194 40.9087H52.2489C51.4637 40.9087 50.8151 41.5431 50.8151 42.3489C50.8151 43.1547 51.4637 43.7891 52.2489 43.7891Z" fill="#F5F5F7"/>
<path d="M71.6737 61.7231H52.2489C51.4637 61.7231 50.8151 62.3575 50.8151 63.1633C50.8151 63.952 51.4466 64.6036 52.2489 64.6036H71.6566C72.4418 64.6036 73.0905 63.9692 73.0905 63.1633C73.0905 62.3575 72.4589 61.7231 71.6737 61.7231Z" fill="#F5F5F7"/>
<path d="M17.3425 61.8945C17.3425 62.6832 17.9741 63.3347 18.7763 63.3347C19.5615 63.3347 20.2102 62.7004 20.2102 61.8945C20.2102 57.934 23.4192 54.7278 27.3451 54.7278C31.271 54.7278 34.4801 57.9511 34.4801 61.8945C34.4801 62.6832 35.1116 63.3347 35.9139 63.3347C36.7161 63.3347 37.3477 62.7004 37.3477 61.8945C37.3477 58.2426 35.4018 55.0535 32.5 53.2876C35.4018 51.5388 37.3477 48.3326 37.3477 44.6806C37.3477 39.1427 32.8585 34.6506 27.3622 34.6506C21.8488 34.6506 17.3767 39.1599 17.3767 44.6806C17.3767 48.3326 19.3226 51.5216 22.2243 53.2876C19.2884 55.0364 17.3425 58.2426 17.3425 61.8945ZM20.1931 44.6806C20.1931 40.7201 23.4021 37.5139 27.328 37.5139C31.254 37.5139 34.463 40.7372 34.463 44.6806C34.463 48.6241 31.254 51.8474 27.328 51.8474C23.4021 51.8474 20.1931 48.6412 20.1931 44.6806Z" fill="#F5F5F7"/>
<path d="M5.82062 15.2593C2.6116 15.2593 0 17.8825 0 21.123V41.1487C0.495009 40.8915 1.04123 40.7543 1.60451 40.7543C2.08245 40.7543 2.50918 40.8401 2.91884 41.0115V21.123C2.91884 19.5113 4.21611 18.1911 5.83769 18.1911H58.3598V15.2593H5.82062Z" fill="#F5F5F7"/>
<path d="M1.46796 43.7891C0.665702 43.7891 0 43.1376 0 42.3317V39.3999H2.91884V42.3317C2.91884 43.1376 2.27021 43.7891 1.46796 43.7891Z" fill="#F5F5F7"/>
<path d="M52.2489 54.179H74.3194C75.1046 54.179 75.7533 53.5446 75.7533 52.7388C75.7533 51.9501 75.1217 51.2986 74.3194 51.2986H52.2489C51.4637 51.2986 50.8151 51.933 50.8151 52.7388C50.8321 53.5446 51.4637 54.179 52.2489 54.179Z" fill="#F5F5F7"/>
<path d="M76.0264 19.2024L77.8357 17.385L81.8641 21.4485L91.0302 12.2415L92.8225 14.0589L81.8641 25.0661L76.0264 19.2024Z" fill="#F5F5F7"/>
<path d="M91.0303 12.9788L92.1057 14.059L81.8641 24.3462L76.7434 19.2026L77.8358 18.1224L81.8641 22.1859L91.0303 12.9788ZM91.0303 11.5215L90.3134 12.2416L81.8812 20.7114L78.5698 17.3852L77.8529 16.6651L77.1359 17.3852L76.0435 18.4653L75.3095 19.1854L76.0435 19.9227L81.1643 25.0663L81.8812 25.7864L82.5981 25.0663L92.8397 14.7791L93.5566 14.059L92.8397 13.3389L91.7643 12.2587L91.0303 11.5215Z" fill="#F5F5F7"/>
</g>
<defs>
<clipPath id="clip0">
<rect width="101.818" height="80" fill="white"/>
</clipPath>
</defs>
</svg>
