<svg width="80" height="80" viewBox="0 0 80 80" fill="none" xmlns="http://www.w3.org/2000/svg">
<path d="M74.5717 14.5003C73.855 14.5003 73.2729 13.8405 73.2729 13.0276V6.96676C73.2729 4.53088 71.2881 2.5459 68.8526 2.5459H41.475C39.0391 2.5459 37.0536 4.53069 37.0536 6.96676V12.2385C37.0536 13.0511 36.3957 13.7937 35.6134 14.0142C31.9072 15.0659 29.8179 17.852 28.8221 19.7587C28.4454 20.4804 27.584 21.2449 26.8121 21.4995C23.7198 22.5226 20.7968 24.5416 19.2359 26.8018L6.35076 45.4553C4.18161 48.5986 1.82253 53.6173 1.09501 56.6405L0.0509749 60.9728C-0.138781 61.7641 0.217617 62.528 0.848024 62.6793C1.47787 62.8307 2.14388 62.313 2.33364 61.5218L3.37487 57.1932C4.04927 54.4009 6.24898 49.7353 8.28131 46.7935L21.1664 28.1387C23.0746 25.3748 27.3615 23.1292 30.7189 23.1292H40.4938H41.3585H50.1858C52.1242 23.1292 53.7012 24.7052 53.7012 26.6414V27.375C53.7012 29.3127 52.1252 30.89 50.1858 30.89H41.3585H40.4938H32.5093C31.8627 30.89 31.3361 31.4153 31.3361 32.0636C31.3361 32.7102 31.8614 33.2368 32.5093 33.2368H35.5812C36.3937 33.2368 37.0534 33.8966 37.0534 34.7095V35.0659C37.0534 35.879 36.8741 37.1745 36.5853 37.9344C32.2739 49.3028 18.7658 50.9905 18.1221 51.0653C17.8103 51.0966 17.532 51.2528 17.3346 51.4968C17.1387 51.7411 17.0502 52.0487 17.0843 52.36C17.1504 52.9544 17.6513 53.4033 18.2575 53.4033C18.2593 53.4033 18.3786 53.3947 18.3786 53.3947C18.53 53.3787 29.9543 51.9816 36.2274 43.4305C36.7087 42.7745 37.0532 42.872 37.0532 43.6851V63.2626C37.0532 64.5262 37.588 65.6651 38.4422 66.4685C39.0339 67.0269 39.1446 67.6952 38.4702 68.1515C33.6637 71.4047 28.302 72.0804 24.6881 72.0804C22.6975 72.0804 21.3733 71.8666 21.2309 71.8447C20.9375 71.7869 20.6374 71.876 20.4089 72.0691C20.1837 72.2585 20.0544 72.5366 20.0544 72.8346V76.4497C20.0544 77.0014 20.5064 77.454 21.0615 77.454C21.6153 77.454 22.0671 77.0014 22.0671 76.4497C22.0671 76.4497 22.0671 75.8912 22.0671 75.204C22.0671 74.5158 22.581 74.0019 23.2172 74.0255C23.5678 74.0388 23.9537 74.0473 24.3701 74.0473C28.7602 74.0473 35.4824 73.1556 41.1253 68.6415C41.7594 68.1342 42.9028 67.6864 43.7151 67.6864H68.8496C71.2849 67.6864 73.2699 65.6979 73.2699 63.2624V50.8004C73.2699 49.9873 73.852 49.3276 74.5686 49.3276H75.8672C78.1456 49.3276 79.9999 47.1251 79.9999 44.4152V44.0243C79.9999 42.9945 79.729 42.044 79.2681 41.2585C78.8574 40.556 78.8574 39.6795 79.2681 38.9774C79.7272 38.1907 79.9999 37.2414 79.9999 36.2115V35.8201C79.9999 34.7908 79.729 33.8409 79.2681 33.0528C78.8584 32.3504 78.8574 31.473 79.2681 30.7707C79.7272 29.9841 79.9999 29.0344 79.9999 28.0049V27.6134C79.9999 26.5841 79.729 25.6342 79.2681 24.8476C78.8574 24.1453 78.8574 23.2694 79.2681 22.5683C79.7272 21.7817 79.9999 20.832 79.9999 19.8025V19.4111C79.9999 16.7015 78.1456 14.4987 75.8672 14.4987C75.872 14.5003 75.2908 14.5003 74.5717 14.5003ZM42.8303 33.2342H50.1858C53.4203 33.2342 56.0487 30.6055 56.0487 27.3732V26.6401C56.0487 23.4105 53.4201 20.7805 50.1858 20.7805H42.8303C42.0182 20.7805 41.3585 20.1207 41.3585 19.3082V12.0719C41.3585 11.2594 42.0182 10.5997 42.8303 10.5997H67.4961C68.309 10.5997 68.9689 11.2594 68.9689 12.0719V57.6847C68.9689 58.4976 68.309 59.1575 67.4961 59.1575H42.8303C42.0182 59.1575 41.3585 58.4976 41.3585 57.6847V34.7069C41.3585 33.8938 42.0182 33.2342 42.8303 33.2342ZM68.8526 65.9564H41.475C39.9916 65.9564 38.7839 64.7458 38.7839 63.2616V40.2607C38.7839 39.4486 38.7593 38.8489 38.7239 38.9212C38.6898 38.9932 38.9136 38.4396 39.1627 37.6668C39.4617 36.7314 39.7073 35.742 39.8887 34.6952C40.0274 33.8938 40.183 33.237 40.2938 33.237C40.4041 33.237 40.4939 33.8968 40.4939 34.7097V59.589C40.4939 59.8274 40.6865 60.0233 40.9251 60.0233H69.4017C69.6401 60.0233 69.8332 59.8274 69.8332 59.589V10.168C69.8332 9.92942 69.6401 9.73351 69.4017 9.73351H40.9251C40.6865 9.73351 40.4939 9.92942 40.4939 10.168V19.3082C40.4939 20.1207 39.8343 20.7805 39.0212 20.7805H32.3609C31.5482 20.7805 31.1696 20.18 31.6496 19.5231C32.7158 18.0626 34.5521 16.4691 37.2839 16.0389C38.0866 15.9125 38.752 15.4322 38.752 14.8211C38.752 14.2116 38.7696 13.0572 38.7742 12.2441C38.786 10.2579 38.786 6.96676 38.786 6.96676C38.786 5.48208 39.9933 4.27477 41.4761 4.27477H68.8537C70.3399 4.27477 71.5449 5.48208 71.5449 6.96676V63.2616C71.5427 64.7458 70.3387 65.9564 68.8526 65.9564ZM75.872 47.3134C75.872 47.3134 75.3978 47.3134 74.8118 47.3134C74.2259 47.3134 73.7517 46.6537 73.7517 45.8406V42.5969C73.7517 41.784 74.2259 41.1241 74.8118 41.1241H75.872C77.041 41.1241 77.9914 42.4248 77.9914 44.0245V44.4154C77.9914 46.0129 77.0412 47.3134 75.872 47.3134ZM75.872 39.1097C75.872 39.1097 75.3978 39.1097 74.8118 39.1097C74.2259 39.1097 73.7517 38.4498 73.7517 37.6369V34.3904C73.7517 33.5773 74.2259 32.9177 74.8118 32.9177H75.872C77.041 32.9177 77.9914 34.2212 77.9914 35.8203V36.2117C77.9914 37.8092 77.0412 39.1097 75.872 39.1097ZM75.872 30.9047C75.872 30.9047 75.3978 30.9047 74.8118 30.9047C74.2259 30.9047 73.7517 30.245 73.7517 29.432V26.1882C73.7517 25.3751 74.2259 24.7155 74.8118 24.7155H75.872C77.041 24.7155 77.9914 26.0162 77.9914 27.6153V28.0067C77.9914 29.6042 77.0412 30.9047 75.872 30.9047ZM75.872 22.7025C75.872 22.7025 75.3978 22.7025 74.8118 22.7025C74.2259 22.7025 73.7517 22.0427 73.7517 21.2298V17.983C73.7517 17.17 74.2259 16.5103 74.8118 16.5103H75.872C77.041 16.5103 77.9914 17.8138 77.9914 19.4129V19.8047C77.9914 21.4018 77.0412 22.7025 75.872 22.7025Z" fill="#F5F5F7"/>
<path d="M57.5943 6.23938H52.7339C52.4965 6.23938 52.3024 6.43193 52.3024 6.67034C52.3024 6.90893 52.4965 7.10484 52.7339 7.10484H57.5943C57.8327 7.10484 58.0259 6.90893 58.0259 6.67034C58.026 6.43193 57.8329 6.23938 57.5943 6.23938Z" fill="#F5F5F7"/>
<path d="M57.6531 61.0078H52.6743C51.6539 61.0078 50.8192 61.839 50.8192 62.8603V63.1566C50.8192 64.1772 51.6532 65.0119 52.6743 65.0119H57.6531C58.6743 65.0119 59.5092 64.1789 59.5092 63.1566V62.8603C59.5074 61.8399 58.6743 61.0078 57.6531 61.0078ZM58.6414 63.1565C58.6414 63.7026 58.1985 64.1466 57.6521 64.1466H52.6734C52.1281 64.1466 51.6832 63.7026 51.6832 63.1565V62.8601C51.6832 62.3139 52.1281 61.871 52.6734 61.871H57.6521C58.1985 61.871 58.6414 62.3139 58.6414 62.8601V63.1565Z" fill="#F5F5F7"/>
</svg>
