<svg width="80" height="80" viewBox="0 0 80 80" fill="none" xmlns="http://www.w3.org/2000/svg">
<path d="M40 0C17.944 0 0 17.944 0 40C0 62.056 17.944 80 40 80C62.056 80 80 62.056 80 40C80 17.944 62.056 0 40 0ZM40 77.3333C19.4147 77.3333 2.66667 60.5853 2.66667 40C2.66667 19.4147 19.4147 2.66667 40 2.66667C60.5853 2.66667 77.3333 19.4147 77.3333 40C77.3333 60.5853 60.5853 77.3333 40 77.3333Z" fill="#F5F5F7"/>
<path d="M40 8C39.264 8 38.6667 8.596 38.6667 9.33333V40H18.6667C17.9307 40 17.3333 40.596 17.3333 41.3333C17.3333 42.0707 17.9307 42.6667 18.6667 42.6667H40C40.736 42.6667 41.3333 42.0707 41.3333 41.3333V9.33333C41.3333 8.596 40.736 8 40 8Z" fill="#F5F5F7"/>
</svg>
