<svg width="80" height="80" viewBox="0 0 80 80" fill="none" xmlns="http://www.w3.org/2000/svg">
<path d="M72.9688 3.125C75.125 3.125 76.875 4.875 76.875 7.03125V72.9688C76.875 75.125 75.125 76.875 72.9688 76.875H7.03125C4.875 76.875 3.125 75.125 3.125 72.9688V7.03125C3.125 4.875 4.875 3.125 7.03125 3.125H72.9688ZM72.9688 0H7.03125C3.14062 0 0 3.14062 0 7.03125V72.9688C0 76.8594 3.14062 80 7.03125 80H72.9688C76.8594 80 80 76.8594 80 72.9688V7.03125C80 3.14062 76.8594 0 72.9688 0Z" fill="#F5F5F7"/>
<path d="M18.4528 60.1876H14.9059L25.1403 32.3126H28.6247L38.859 60.1876H35.3122L26.984 36.7189H26.7653L18.4528 60.1876ZM19.7497 49.297H34.0153V52.297H19.7497V49.297Z" fill="#F5F5F7"/>
<path d="M51.812 60.1876H43.2183V32.3126H52.187C54.8901 32.3126 57.2026 32.8751 59.1245 33.9845C61.0464 35.0939 62.5151 36.6876 63.5464 38.7657C64.5776 40.8439 65.0776 43.3126 65.0776 46.2032C65.0776 49.1095 64.562 51.6095 63.5308 53.6876C62.4995 55.7814 60.9839 57.3907 59.0151 58.5001C57.0464 59.6251 54.6401 60.1876 51.812 60.1876ZM46.5776 57.1876H51.5776C53.8745 57.1876 55.7964 56.7501 57.312 55.8595C58.8276 54.9689 59.9526 53.7032 60.7026 52.0626C61.4526 50.422 61.812 48.4689 61.812 46.2032C61.812 43.9532 61.437 42.0157 60.7026 40.3907C59.9683 38.7657 58.8745 37.5157 57.4058 36.6407C55.9526 35.7657 54.1245 35.3282 51.9526 35.3282H46.562V57.1876H46.5776Z" fill="#F5F5F7"/>
<path d="M68.1043 9.45412L60.1605 17.3979L62.7458 19.9833L70.6896 12.0395L68.1043 9.45412Z" fill="#F5F5F7"/>
<path d="M60.1577 12.0457L68.1015 19.9895L70.6869 17.4042L62.743 9.46034L60.1577 12.0457Z" fill="#F5F5F7"/>
</svg>
