<svg width="85" height="80" viewBox="0 0 85 80" fill="none" xmlns="http://www.w3.org/2000/svg">
<g clip-path="url(#clip0)">
<path d="M82.0392 65.989C82.4394 65.9915 82.8359 65.9127 83.2046 65.7572C83.5732 65.6018 83.9063 65.373 84.1835 65.0849C84.4606 64.7967 84.676 64.4553 84.8166 64.0813C84.9572 63.7073 85.02 63.3087 85.0011 62.9097V43.7873H84.9086V2.35544C84.9287 2.04218 84.882 1.72822 84.7715 1.43432C84.6611 1.14043 84.4893 0.873302 84.2676 0.650613C84.046 0.427925 83.7794 0.254753 83.4857 0.142555C83.192 0.0303572 82.8777 -0.0183088 82.5637 -0.000223082H2.34592C2.03411 -0.00432521 1.7246 0.0536903 1.43553 0.170428C1.14645 0.287165 0.883607 0.46028 0.662383 0.679639C0.44116 0.898998 0.265999 1.16019 0.147153 1.44794C0.0283068 1.73569 -0.031837 2.04421 -0.0297583 2.35544V63.5564C-0.0625187 63.8799 -0.0235651 64.2067 0.084341 64.5135C0.192247 64.8204 0.366464 65.0998 0.59464 65.3319C0.822816 65.564 1.09936 65.7432 1.40468 65.8568C1.71 65.9704 2.0366 66.0155 2.36135 65.989H16.5229V77.7519C16.5259 78.2018 16.6623 78.6407 16.9149 79.0133C17.1674 79.3859 17.5249 79.6756 17.9421 79.8458C18.3758 80.0297 18.854 80.0825 19.3174 79.9977C19.7809 79.9128 20.2092 79.6941 20.5492 79.3685L33.9857 65.989H82.0392ZM32.8595 61.7396L20.0247 75.0883L20.1635 61.7858H4.10454V4.09523H80.8514V61.7396H32.8595Z" fill="#F5F5F7"/>
<path d="M42.4995 10.7002C40.0007 10.7002 37.558 11.4397 35.4803 12.8253C33.4026 14.2109 31.7832 16.1803 30.827 18.4844C29.8707 20.7885 29.6205 23.3239 30.108 25.7699C30.5955 28.216 31.7988 30.4628 33.5657 32.2263C35.3327 33.9898 37.5839 35.1908 40.0347 35.6773C42.4855 36.1639 45.0259 35.9141 47.3345 34.9597C49.6431 34.0053 51.6163 32.3891 53.0046 30.3155C54.3929 28.2418 55.1338 25.8039 55.1338 23.3099C55.1338 21.654 54.807 20.0143 54.1721 18.4844C53.5372 16.9545 52.6065 15.5644 51.4333 14.3935C50.2601 13.2226 48.8673 12.2937 47.3345 11.6601C45.8016 11.0264 44.1587 10.7002 42.4995 10.7002ZM42.4995 31.9473C40.7842 31.9473 39.1074 31.4394 37.6813 30.488C36.2553 29.5365 35.1441 28.1842 34.4883 26.6022C33.8326 25.0202 33.6618 23.2796 33.9976 21.6007C34.3334 19.9219 35.1606 18.3801 36.3746 17.1706C37.5886 15.9611 39.1349 15.1382 40.8176 14.8061C42.5004 14.4739 44.2441 14.6475 45.828 15.3048C47.4119 15.962 48.7648 17.0735 49.7156 18.4985C50.6664 19.9234 51.1723 21.5979 51.1692 23.3099C51.1651 25.6021 50.2499 27.799 48.6245 29.4184C46.9991 31.0378 44.7962 31.9473 42.4995 31.9473Z" fill="#F5F5F7"/>
<path d="M27.5517 57.2443C27.5517 53.2875 29.1266 49.4927 31.93 46.6948C34.7333 43.897 38.5354 42.3251 42.5 42.3251C46.4645 42.3251 50.2667 43.897 53.07 46.6948C55.8733 49.4927 57.4482 53.2875 57.4482 57.2443H61.4746C61.4746 52.2217 59.4755 47.4048 55.917 43.8533C52.3586 40.3019 47.5324 38.3066 42.5 38.3066C37.4676 38.3066 32.6413 40.3019 29.0829 43.8533C25.5245 47.4048 23.5254 52.2217 23.5254 57.2443H27.5517Z" fill="#F5F5F7"/>
</g>
<defs>
<clipPath id="clip0">
<rect width="85" height="80" fill="white"/>
</clipPath>
</defs>
</svg>
