<svg width="80" height="80" viewBox="0 0 80 80" fill="none" xmlns="http://www.w3.org/2000/svg">
<g clip-path="url(#clip0)">
<path d="M57.8121 46.2786C55.8459 46.0155 53.9152 45.5338 52.0559 44.8422C51.0498 44.4657 49.9572 44.3844 48.9065 44.608C47.8558 44.8317 46.891 45.3509 46.1255 46.1045L44.1451 48.1066C39.6652 45.3803 35.901 41.6236 33.1658 37.1491L35.1571 35.1469C35.915 34.3865 36.4381 33.424 36.6639 32.3743C36.8897 31.3247 36.8085 30.2322 36.4302 29.2274C35.7353 27.3766 35.2535 25.4527 34.9938 23.4929C34.8106 22.1423 34.1396 20.9054 33.1073 20.0154C32.075 19.1255 30.7528 18.6439 29.3899 18.6616H22.9481H22.4476C21.7123 18.7285 20.9975 18.9398 20.3439 19.2834C19.6904 19.627 19.1111 20.096 18.6391 20.6638C18.1597 21.2301 17.7991 21.887 17.5785 22.5955C17.3579 23.3039 17.282 24.0495 17.3551 24.7878C18.0851 31.6124 20.4111 38.1693 24.1451 43.9282C27.5497 49.2591 32.0811 53.7793 37.4204 57.1709C43.179 60.8892 49.725 63.2141 56.539 63.9608H57.0613C58.5514 63.9551 59.9784 63.3583 61.029 62.3016C62.0797 61.2448 62.6681 59.8144 62.6652 58.3243V51.9587C62.6939 50.5814 62.2153 49.2416 61.3205 48.1943C60.4256 47.147 59.177 46.4652 57.8121 46.2786ZM59.9884 51.9478V58.3787C59.9898 58.7659 59.915 59.1497 59.7681 59.508C59.6212 59.8663 59.4052 60.1922 59.1324 60.467C58.8596 60.7419 58.5353 60.9603 58.1781 61.1098C57.8208 61.2593 57.4377 61.337 57.0504 61.3384H56.7893C50.3942 60.6347 44.2509 58.4516 38.8458 54.9619C33.8339 51.7672 29.5814 47.5147 26.3866 42.5027C22.8863 37.099 20.7023 30.9495 20.0102 24.5484C19.9406 23.7709 20.1822 22.9975 20.6819 22.3979C21.1816 21.7982 21.8988 21.4211 22.6761 21.3493H29.4226C30.132 21.3494 30.8179 21.6044 31.3551 22.0677C31.8924 22.5311 32.2453 23.172 32.3497 23.8738C32.6371 26.0301 33.1664 28.1471 33.9275 30.185C34.1238 30.7114 34.1656 31.283 34.048 31.8324C33.9304 32.3818 33.6583 32.8862 33.2637 33.2862L30.5433 36.0065C30.333 36.2102 30.1972 36.4786 30.1577 36.7687C30.1183 37.0588 30.1774 37.3537 30.3257 37.6061C33.5022 43.1787 38.1269 47.7883 43.7098 50.9467C43.9638 51.0895 44.2574 51.1455 44.5461 51.1062C44.8348 51.0669 45.1028 50.9345 45.3094 50.7291L48.0297 48.0196C48.4309 47.6197 48.9391 47.3442 49.4932 47.2265C50.0473 47.1087 50.6236 47.1536 51.1527 47.3558C53.2025 48.1124 55.3302 48.638 57.4966 48.9228C58.2076 49.0289 58.855 49.3922 59.3162 49.9436C59.7775 50.4951 60.0205 51.1965 59.9993 51.9151L59.9884 51.9478Z" fill="#F5F5F7"/>
<path d="M40.0004 2.5016e-06C32.8412 0.0104673 25.816 1.94165 19.6574 5.59212C13.4988 9.2426 8.43246 14.4786 4.98683 20.7541C1.5412 27.0296 -0.157523 34.1147 0.0678401 41.2703C0.293203 48.426 2.43439 55.3901 6.26809 61.4363L0.0765776 78.2046C-0.0104267 78.4409 -0.0290113 78.6969 0.0229588 78.9433C0.0749289 79.1897 0.195345 79.4164 0.370375 79.5974C0.62373 79.853 0.968056 79.9978 1.32794 80C1.47187 79.9996 1.61492 79.9776 1.75231 79.9347L19.1625 74.1349C24.4346 77.3555 30.3811 79.3111 36.5356 79.8484C42.6901 80.3857 48.8855 79.4902 54.6359 77.2319C60.3863 74.9737 65.5355 71.4141 69.6797 66.8324C73.824 62.2506 76.8506 56.7712 78.5223 50.8238C80.194 44.8763 80.4654 38.6224 79.3151 32.5525C78.1649 26.4826 75.6243 20.7616 71.8925 15.8381C68.1607 10.9146 63.3392 6.92241 57.806 4.17454C52.2728 1.42667 46.1784 -0.00218224 40.0004 2.5016e-06ZM40.0004 77.3341C32.9333 77.3402 26.0108 75.3321 20.0439 71.5452C19.8295 71.4083 19.5801 71.3365 19.3258 71.3384C19.1818 71.3388 19.0388 71.3608 18.9014 71.4037L3.53686 76.5288L8.97756 61.7301C9.04672 61.533 9.06993 61.3227 9.04541 61.1153C9.02089 60.9078 8.9493 60.7087 8.8361 60.5332C4.26401 53.5903 2.13995 45.3201 2.80055 37.0332C3.46116 28.7464 6.86864 20.9171 12.4829 14.7863C18.0972 8.65542 25.5971 4.57375 33.794 3.18817C41.9908 1.8026 50.4156 3.1924 57.733 7.13729C65.0505 11.0822 70.842 17.3565 74.1897 24.9658C77.5373 32.575 78.2496 41.0839 76.2135 49.1438C74.1775 57.2038 69.5097 64.3536 62.9498 69.4601C56.39 74.5666 48.3135 77.3377 40.0004 77.3341Z" fill="#F5F5F7"/>
</g>
<defs>
<clipPath id="clip0">
<rect width="80" height="80" fill="white"/>
</clipPath>
</defs>
</svg>
