<svg width="65" height="80" viewBox="0 0 65 80" fill="none" xmlns="http://www.w3.org/2000/svg">
<g clip-path="url(#clip0)">
<path d="M59.5877 5.33024H56.8763V4.03171C56.7868 3.03593 56.3218 2.10927 55.5729 1.43429C54.824 0.7593 53.8456 0.384931 52.8303 0.384931C51.815 0.384931 50.8366 0.7593 50.0877 1.43429C49.3388 2.10927 48.8738 3.03593 48.7843 4.03171V5.33024H16.2474V4.03171C16.2474 2.97098 15.8194 1.9537 15.0577 1.20365C14.2959 0.453599 13.2628 0.0322266 12.1855 0.0322266C11.1083 0.0322266 10.0751 0.453599 9.31337 1.20365C8.55162 1.9537 8.12368 2.97098 8.12368 4.03171V5.33024H5.41227C3.97588 5.33299 2.59927 5.89677 1.58458 6.89783C0.56988 7.8989 -2.71842e-06 9.25546 0 10.6698V73.3318C0 75.1006 0.713608 76.797 1.98384 78.0477C3.25407 79.2984 4.97687 80.0011 6.77325 80.0011H58.2795C59.1694 80.0024 60.0508 79.8309 60.8732 79.4962C61.6955 79.1615 62.4428 78.6703 63.072 78.0507C63.7012 77.4312 64.2001 76.6954 64.54 75.8856C64.8799 75.0759 65.0541 74.208 65.0527 73.3318V10.6698C65.0528 9.96509 64.9111 9.26735 64.636 8.6168C64.3608 7.96625 63.9576 7.37577 63.4496 6.8794C62.9415 6.38302 62.3387 5.99058 61.6759 5.7247C61.0131 5.45882 60.3034 5.32476 59.5877 5.33024ZM51.2003 4.03171C51.2003 3.61844 51.367 3.22209 51.6638 2.92987C51.9606 2.63764 52.3631 2.47347 52.7828 2.47347C53.2025 2.47347 53.6051 2.63764 53.9018 2.92987C54.1986 3.22209 54.3654 3.61844 54.3654 4.03171V9.32972C54.3654 9.74299 54.1986 10.1393 53.9018 10.4316C53.6051 10.7238 53.2025 10.888 52.7828 10.888C52.3631 10.888 51.9606 10.7238 51.6638 10.4316C51.367 10.1393 51.2003 9.74299 51.2003 9.32972V4.03171ZM10.8034 4.03171C10.8034 3.61844 10.9702 3.22209 11.267 2.92987C11.5637 2.63764 11.9663 2.47347 12.386 2.47347C12.8057 2.47347 13.2082 2.63764 13.505 2.92987C13.8018 3.22209 13.9685 3.61844 13.9685 4.03171V9.32972C13.9685 9.74299 13.8018 10.1393 13.505 10.4316C13.2082 10.7238 12.8057 10.888 12.386 10.888C11.9663 10.888 11.5637 10.7238 11.267 10.4316C10.9702 10.1393 10.8034 9.74299 10.8034 9.32972V4.03171ZM61.9615 73.0098C61.9643 74.0604 61.5439 75.0693 60.7923 75.8152C60.0408 76.561 59.0195 76.983 57.9524 76.9885H7.14251C6.07547 76.983 5.05419 76.561 4.30264 75.8152C3.55109 75.0693 3.13061 74.0604 3.13342 73.0098V18.6688H61.9615V73.0098ZM62.3624 15.6146H2.80636V10.7217C2.83918 10.0428 3.14422 9.40447 3.65454 8.94678C4.16486 8.48909 4.83876 8.24947 5.52832 8.28051H8.22918V9.50632C8.27577 10.5205 8.72794 11.4753 9.48697 12.1623C10.246 12.8494 11.2502 13.2128 12.2805 13.1734C13.3125 13.2156 14.3195 12.8534 15.0808 12.1661C15.8421 11.4788 16.2957 10.5223 16.3423 9.50632V8.28051H48.7843V9.50632C48.8583 10.5172 49.3184 11.4631 50.072 12.1535C50.8256 12.8439 51.8168 13.2277 52.8461 13.2277C53.8755 13.2277 54.8667 12.8439 55.6202 12.1535C56.3738 11.4631 56.8339 10.5172 56.908 9.50632V8.28051H59.651C60.3388 8.25229 61.01 8.49319 61.518 8.95058C62.026 9.40797 62.3296 10.0447 62.3624 10.7217V15.6146Z" fill="#F5F5F7"/>
<path d="M17.3656 37.6682C17.2819 37.6697 17.1987 37.6549 17.1208 37.6246C17.0429 37.5943 16.9719 37.5491 16.9119 37.4916L7.87039 28.5784C7.81009 28.5213 7.76211 28.4527 7.72934 28.3768C7.69658 28.301 7.67969 28.2194 7.67969 28.1369C7.67969 28.0545 7.69658 27.9729 7.72934 27.897C7.76211 27.8212 7.81009 27.7526 7.87039 27.6954C7.92938 27.6358 7.99992 27.5883 8.07784 27.5559C8.15576 27.5235 8.23948 27.5068 8.32406 27.5068C8.40863 27.5068 8.49236 27.5235 8.57027 27.5559C8.64819 27.5883 8.71873 27.6358 8.77772 27.6954L17.8193 36.5982C17.8799 36.6563 17.9281 36.7257 17.961 36.8024C17.9939 36.8792 18.0108 36.9616 18.0108 37.0449C18.0108 37.1282 17.9939 37.2106 17.961 37.2873C17.9281 37.364 17.8799 37.4335 17.8193 37.4916C17.7596 37.5496 17.6887 37.5951 17.6107 37.6255C17.5328 37.6558 17.4494 37.6703 17.3656 37.6682Z" fill="#F5F5F7" stroke="#F5F5F7" stroke-miterlimit="10"/>
<path d="M8.32489 37.6682C8.24109 37.6703 8.15771 37.6558 8.07975 37.6255C8.0018 37.5951 7.93087 37.5496 7.87123 37.4916C7.81061 37.4335 7.76243 37.364 7.72953 37.2873C7.69664 37.2106 7.67969 37.1282 7.67969 37.0449C7.67969 36.9616 7.69664 36.8792 7.72953 36.8024C7.76243 36.7257 7.81061 36.6563 7.87123 36.5982L16.9128 27.6954C16.9718 27.6358 17.0423 27.5883 17.1202 27.5559C17.1981 27.5235 17.2819 27.5068 17.3664 27.5068C17.451 27.5068 17.5347 27.5235 17.6127 27.5559C17.6906 27.5883 17.7611 27.6358 17.8201 27.6954C17.8804 27.7526 17.9284 27.8212 17.9611 27.897C17.9939 27.9729 18.0108 28.0545 18.0108 28.1369C18.0108 28.2194 17.9939 28.301 17.9611 28.3768C17.9284 28.4527 17.8804 28.5213 17.8201 28.5784L8.77855 37.4916C8.71855 37.5491 8.64756 37.5943 8.56969 37.6246C8.49182 37.6549 8.40861 37.6697 8.32489 37.6682Z" fill="#F5F5F7" stroke="#F5F5F7" stroke-miterlimit="10"/>
<path d="M55.3364 30.4688H24.6563C23.8289 30.4688 23.1582 31.1292 23.1582 31.9439V32.0478C23.1582 32.8625 23.8289 33.5229 24.6563 33.5229H55.3364C56.1638 33.5229 56.8346 32.8625 56.8346 32.0478V31.9439C56.8346 31.1292 56.1638 30.4688 55.3364 30.4688Z" fill="#F5F5F7"/>
<path d="M18.031 59.8881C17.9465 59.8883 17.8629 59.8718 17.785 59.8397C17.707 59.8076 17.6364 59.7605 17.5773 59.7011L8.52522 50.7776C8.42008 50.6563 8.36522 50.5005 8.37159 50.3412C8.37796 50.1819 8.44509 50.0308 8.55959 49.918C8.67409 49.8053 8.82754 49.7392 8.98934 49.7329C9.15114 49.7266 9.3094 49.7807 9.43254 49.8842L18.4846 58.7973C18.5609 58.8872 18.6104 58.9962 18.6276 59.1121C18.6448 59.228 18.6291 59.3464 18.5821 59.454C18.5351 59.5616 18.4587 59.6543 18.3614 59.7218C18.2641 59.7892 18.1497 59.8288 18.031 59.8361V59.8881Z" fill="#F5F5F7" stroke="#F5F5F7" stroke-miterlimit="10"/>
<path d="M8.97842 59.8879C8.85967 59.8806 8.7453 59.841 8.64801 59.7736C8.55073 59.7061 8.47434 59.6134 8.42734 59.5058C8.38034 59.3981 8.36456 59.2798 8.38176 59.1639C8.39895 59.0479 8.44846 58.939 8.52476 58.8491L17.5769 49.936C17.697 49.8211 17.8578 49.7568 18.0252 49.7568C18.1927 49.7568 18.3535 49.8211 18.4736 49.936C18.5342 49.994 18.5824 50.0635 18.6153 50.1402C18.6482 50.2169 18.6652 50.2994 18.6652 50.3826C18.6652 50.4659 18.6482 50.5484 18.6153 50.6251C18.5824 50.7018 18.5342 50.7713 18.4736 50.8293L9.43208 59.7009C9.37296 59.7603 9.30236 59.8074 9.22445 59.8396C9.14653 59.8717 9.06288 59.8881 8.97842 59.8879Z" fill="#F5F5F7" stroke="#F5F5F7" stroke-miterlimit="10"/>
<path d="M55.3364 53.2812H24.6563C23.8289 53.2812 23.1582 53.9417 23.1582 54.7564V54.8603C23.1582 55.675 23.8289 56.3354 24.6563 56.3354H55.3364C56.1638 56.3354 56.8346 55.675 56.8346 54.8603V54.7564C56.8346 53.9417 56.1638 53.2812 55.3364 53.2812Z" fill="#F5F5F7"/>
</g>
<defs>
<clipPath id="clip0">
<rect width="65" height="80" fill="white"/>
</clipPath>
</defs>
</svg>
