<svg width="80" height="80" viewBox="0 0 80 80" fill="none" xmlns="http://www.w3.org/2000/svg">
<g clip-path="url(#clip0)">
<path d="M78.3002 31.6604H61.2758V1.70077C61.2882 1.47422 61.2527 1.24759 61.1717 1.03566C61.0906 0.823735 60.9658 0.631275 60.8054 0.470837C60.645 0.310398 60.4525 0.185585 60.2406 0.104538C60.0286 0.023492 59.802 -0.0119665 59.5755 0.00047595H1.70082C1.47427 -0.0119665 1.24764 0.023492 1.03571 0.104538C0.823787 0.185585 0.631328 0.310398 0.470889 0.470837C0.31045 0.631275 0.185637 0.823735 0.104591 1.03566C0.0235442 1.24759 -0.0119141 1.47422 0.000528411 1.70077V45.9623C-0.0120649 46.1884 0.0233754 46.4146 0.104516 46.626C0.185657 46.8374 0.310658 47.0292 0.47129 47.1888C0.631921 47.3485 0.824539 47.4722 1.03646 47.552C1.24839 47.6318 1.47481 47.6658 1.70082 47.6518H11.9241V56.164C11.9244 56.4985 12.0279 56.8248 12.2205 57.0983C12.4131 57.3718 12.6854 57.5792 13.0003 57.6922C13.3116 57.8212 13.6535 57.8583 13.9853 57.7992C14.3171 57.7401 14.6251 57.5872 14.8727 57.3586L24.558 47.6733H28.9809V69.9601C28.9683 70.1862 29.0037 70.4124 29.0849 70.6238C29.166 70.8352 29.291 71.0271 29.4517 71.1867C29.6123 71.3463 29.8049 71.4701 30.0168 71.5499C30.2288 71.6297 30.4552 71.6637 30.6812 71.6497H59.414L67.2483 79.5485C67.4976 79.7891 67.8141 79.9484 68.1559 80.0052C68.4977 80.0621 68.8486 80.0138 69.1624 79.8669C69.4762 79.7199 69.7379 79.4811 69.913 79.1822C70.0882 78.8832 70.1684 78.5381 70.1431 78.1926V71.4882H78.3002C78.5267 71.504 78.7539 71.4712 78.9666 71.3921C79.1793 71.3129 79.3726 71.1892 79.5336 71.0292C79.6947 70.8692 79.8196 70.6766 79.9001 70.4644C79.9807 70.2522 80.0149 70.0252 80.0005 69.7987V33.3607C80.013 33.1342 79.9775 32.9075 79.8965 32.6956C79.8154 32.4837 79.6906 32.2912 79.5302 32.1308C79.3697 31.9703 79.1773 31.8455 78.9653 31.7645C78.7534 31.6834 78.5268 31.648 78.3002 31.6604ZM23.7186 44.6386L14.4208 54.3239L14.5176 44.7032H2.93838V2.97061H58.3379V44.6386H23.7186ZM77.0412 68.8409H67.3559L67.6034 76.051L60.1996 68.8409H31.7896V47.5657H59.64C59.8722 47.58 60.1048 47.5446 60.3222 47.4619C60.5396 47.3792 60.7369 47.2511 60.9008 47.0861C61.0648 46.9211 61.1917 46.7231 61.2731 46.5051C61.3544 46.2872 61.3884 46.0545 61.3726 45.8224V34.5767H77.0412V68.8409Z" fill="#F5F5F7"/>
<path d="M19.7048 23.2656C19.3071 23.2685 18.9267 23.4284 18.6464 23.7107C18.3662 23.9929 18.209 24.3745 18.209 24.7722C18.209 25.1689 18.3666 25.5494 18.6471 25.8299C18.9276 26.1104 19.3081 26.268 19.7048 26.268C20.1025 26.2681 20.4841 26.1108 20.7663 25.8306C21.0486 25.5504 21.2086 25.1699 21.2114 24.7722C21.2114 24.3726 21.0527 23.9894 20.7701 23.7069C20.4876 23.4244 20.1044 23.2656 19.7048 23.2656Z" fill="#F5F5F7"/>
<path d="M41.5701 23.2656C41.1723 23.2685 40.7919 23.4284 40.5117 23.7107C40.2315 23.9929 40.0742 24.3745 40.0742 24.7722C40.0742 25.1689 40.2318 25.5494 40.5123 25.8299C40.7929 26.1104 41.1733 26.268 41.5701 26.268C41.9668 26.268 42.3472 26.1104 42.6278 25.8299C42.9083 25.5494 43.0659 25.1689 43.0659 24.7722C43.0659 24.3745 42.9086 23.9929 42.6284 23.7107C42.3482 23.4284 41.9678 23.2685 41.5701 23.2656Z" fill="#F5F5F7"/>
<path d="M30.6267 23.2656C30.229 23.2685 29.8485 23.4284 29.5683 23.7107C29.2881 23.9929 29.1308 24.3745 29.1309 24.7722C29.1309 25.1689 29.2885 25.5494 29.569 25.8299C29.8495 26.1104 30.23 26.268 30.6267 26.268C31.0169 26.2569 31.3875 26.0947 31.6606 25.8157C31.9336 25.5367 32.0876 25.1626 32.0902 24.7722C32.0904 24.38 31.9376 24.0032 31.6643 23.7218C31.391 23.4405 31.0188 23.2768 30.6267 23.2656Z" fill="#F5F5F7"/>
</g>
<defs>
<clipPath id="clip0">
<rect width="80" height="80" fill="white"/>
</clipPath>
</defs>
</svg>
