<svg width="80" height="80" viewBox="0 0 80 80" fill="none" xmlns="http://www.w3.org/2000/svg">
<g clip-path="url(#clip0)">
<path d="M52.5735 30.5752C51.2486 28.1039 49.1993 26.0971 46.7007 24.8242C44.2021 23.5514 41.3739 23.0735 38.5958 23.4547C35.8177 23.8359 33.2228 25.058 31.1594 26.9568C29.096 28.8557 27.663 31.3403 27.0528 34.0772C24.4965 34.2448 22.1115 35.421 20.4224 37.3471C18.7333 39.2732 17.8785 41.7913 18.0461 44.3476C18.2137 46.9039 19.3899 49.289 21.316 50.9781C23.242 52.6671 25.7602 53.5219 28.3165 53.3543H50.9243C53.7768 53.2928 56.5037 52.1694 58.5718 50.2038C60.6399 48.2382 61.9003 45.5718 62.1065 42.7261C62.3127 39.8804 61.45 37.0601 59.6869 34.8169C57.9239 32.5736 55.3874 31.0688 52.5735 30.5966V30.5752ZM51.0528 50.2379H28.1559C26.4417 50.2194 24.8051 49.5208 23.6061 48.2956C23.0124 47.689 22.544 46.9714 22.2276 46.1837C21.9113 45.3961 21.7532 44.5538 21.7623 43.7051C21.7714 42.8563 21.9477 42.0177 22.2809 41.237C22.6142 40.4564 23.0979 39.749 23.7045 39.1553C24.9297 37.9563 26.5809 37.293 28.2951 37.3115C28.7118 37.3228 29.1178 37.179 29.4344 36.9079C29.751 36.6368 29.9557 36.2578 30.0086 35.8443C30.3353 33.2713 31.5784 30.9023 33.5099 29.1714C35.4415 27.4405 37.9321 26.4637 40.5253 26.4199C42.5669 26.4336 44.5614 27.0347 46.2705 28.1514C47.9797 29.268 49.3313 30.853 50.1639 32.7171C50.2879 32.9994 50.4876 33.2418 50.7409 33.4176C50.9942 33.5934 51.2912 33.6957 51.599 33.7131C53.7082 33.8912 55.669 34.8704 57.0785 36.4496C58.4881 38.0287 59.2392 40.0877 59.1774 42.2035C59.1157 44.3193 58.2459 46.3311 56.7468 47.8254C55.2476 49.3197 53.233 50.183 51.117 50.2379H51.0528Z" fill="#F5F5F7"/>
<path d="M2.5604 50.0022C2.18288 49.9992 1.81751 49.8684 1.52384 49.6311C1.23018 49.3938 1.02553 49.0641 0.943263 48.6957C0.312946 45.8404 0.0040195 42.9235 0.0222461 39.9995C0.0178455 31.5789 2.67383 23.3721 7.61104 16.5508C12.5483 9.72945 19.5143 4.64225 27.5147 2.01543C35.5151 -0.611399 44.1409 -0.643557 52.1607 1.92354C60.1805 4.49064 67.1842 9.52576 72.1722 16.3101C72.3205 16.485 72.4313 16.6886 72.4975 16.9082C72.5637 17.1278 72.584 17.3586 72.5572 17.5864C72.5303 17.8142 72.4568 18.034 72.3413 18.2321C72.2258 18.4303 72.0707 18.6025 71.8857 18.7381C71.7008 18.8737 71.4899 18.9698 71.2662 19.0203C71.0424 19.0708 70.8107 19.0748 70.5854 19.0319C70.3601 18.9889 70.146 18.9001 69.9566 18.7709C69.7671 18.6416 69.6063 18.4748 69.4841 18.2807C64.4983 11.5081 57.336 6.65515 49.1977 4.53514C41.0594 2.41514 32.4398 3.15694 24.7833 6.63622C17.1269 10.1155 10.8991 16.1208 7.1437 23.6456C3.38828 31.1704 2.33349 39.7574 4.15612 47.9674C4.25197 48.3991 4.17277 48.8511 3.93589 49.2245C3.69901 49.5979 3.32377 49.8622 2.89239 49.9594C2.77124 49.9697 2.64942 49.9697 2.52827 49.9594L2.5604 50.0022Z" fill="#F5F5F7"/>
<path d="M39.9997 79.9995C33.6905 79.9909 27.473 78.4892 21.8554 75.6171C16.2378 72.745 11.3798 68.5842 7.67842 63.4748C7.41995 63.1169 7.31423 62.671 7.38453 62.2352C7.45482 61.7993 7.69537 61.4093 8.05325 61.1508C8.41113 60.8924 8.85703 60.7866 9.29286 60.8569C9.72869 60.9272 10.1187 61.1678 10.3772 61.5257C14.9188 67.7974 21.3314 72.4684 28.6937 74.8678C36.0561 77.2671 43.9895 77.2713 51.3544 74.8798C58.7193 72.4883 65.1368 67.8241 69.6851 61.5572C74.2334 55.2902 76.6784 47.743 76.669 39.9996C76.6826 37.3252 76.3843 34.6584 75.7802 32.0531C75.6898 31.8303 75.6487 31.5906 75.6595 31.3504C75.6703 31.1102 75.7329 30.8752 75.8429 30.6614C75.9528 30.4476 76.1077 30.26 76.2968 30.1115C76.4859 29.963 76.7048 29.8571 76.9386 29.801C77.1724 29.7449 77.4156 29.7399 77.6515 29.7864C77.8874 29.8329 78.1105 29.9297 78.3055 30.0703C78.5005 30.2109 78.6629 30.392 78.7816 30.6011C78.9002 30.8102 78.9724 31.0425 78.993 31.282C79.652 34.1407 79.979 37.0659 79.9676 39.9996C79.9534 50.5983 75.739 60.7594 68.2476 68.2569C60.7561 75.7543 50.5984 79.9769 39.9997 79.9995Z" fill="#F5F5F7"/>
<path d="M8.49347 79.9995C8.05223 79.9967 7.63004 79.8194 7.31903 79.5064C7.00803 79.1934 6.83348 78.7701 6.83349 78.3288L6.66214 61.6862C6.65938 61.2419 6.83265 60.8145 7.14407 60.4975C7.29819 60.338 7.4829 60.2112 7.68715 60.1247C7.89141 60.0382 8.11101 59.9938 8.33283 59.9941H24.9968C25.4399 59.9941 25.8649 60.1702 26.1782 60.4835C26.4915 60.7968 26.6675 61.2217 26.6675 61.6648C26.6675 62.1079 26.4915 62.5329 26.1782 62.8462C25.8649 63.1595 25.4399 63.3355 24.9968 63.3355H10.0035L10.1534 78.3288C10.1563 78.5477 10.1158 78.765 10.0343 78.9682C9.95281 79.1713 9.83194 79.3564 9.67865 79.5127C9.52536 79.669 9.34268 79.7934 9.14111 79.8788C8.93954 79.9641 8.72308 80.0088 8.50418 80.0102L8.49347 79.9995Z" fill="#F5F5F7"/>
<path d="M71.6688 19.9948H54.9941C54.5755 19.9612 54.1848 19.7712 53.9 19.4626C53.6152 19.154 53.457 18.7494 53.457 18.3295C53.457 17.9095 53.6152 17.5049 53.9 17.1963C54.1848 16.8877 54.5755 16.6977 54.9941 16.6641H69.9874V1.67082C70.021 1.25221 70.211 0.861604 70.5196 0.576776C70.8282 0.291948 71.2327 0.133789 71.6527 0.133789C72.0727 0.133789 72.4772 0.291948 72.7858 0.576776C73.0944 0.861604 73.2844 1.25221 73.318 1.67082V18.3562C73.3124 18.7909 73.1365 19.206 72.8281 19.5124C72.5198 19.8188 72.1035 19.992 71.6688 19.9948Z" fill="#F5F5F7"/>
</g>
<defs>
<clipPath id="clip0">
<rect width="80" height="80" fill="white"/>
</clipPath>
</defs>
</svg>
