<svg width="53" height="80" viewBox="0 0 53 80" fill="none" xmlns="http://www.w3.org/2000/svg">
<g clip-path="url(#clip0)">
<path d="M26.495 69.5488C25.9687 69.5488 25.4542 69.7038 25.0166 69.994C24.579 70.2843 24.238 70.6969 24.0365 71.1796C23.8351 71.6622 23.7824 72.1934 23.8851 72.7058C23.9878 73.2182 24.2412 73.6889 24.6134 74.0584C24.9855 74.4278 25.4597 74.6794 25.9759 74.7813C26.4921 74.8832 27.0271 74.8309 27.5134 74.631C27.9996 74.431 28.4152 74.0925 28.7076 73.6581C29 73.2236 29.1561 72.7129 29.1561 72.1905C29.1575 71.8432 29.0896 71.499 28.9563 71.1779C28.8231 70.8568 28.6272 70.5651 28.3798 70.3195C28.1324 70.0739 27.8385 69.8794 27.515 69.7471C27.1915 69.6149 26.8449 69.5475 26.495 69.5488ZM26.495 74.1429C26.1035 74.1429 25.7208 74.0275 25.3954 73.8114C25.07 73.5952 24.8165 73.288 24.6672 72.9288C24.5178 72.5695 24.4793 72.1743 24.5565 71.7932C24.6336 71.4122 24.823 71.0624 25.1006 70.7883C25.3782 70.5142 25.7315 70.3281 26.1158 70.2535C26.5 70.179 26.8979 70.2193 27.2591 70.3695C27.6202 70.5197 27.9283 70.7729 28.1443 71.0971C28.3603 71.4213 28.4745 71.8018 28.4724 72.1905C28.4724 72.4477 28.4212 72.7025 28.3217 72.9401C28.2222 73.1776 28.0764 73.3933 27.8926 73.5748C27.7089 73.7562 27.4908 73.8998 27.2509 73.9973C27.0111 74.0948 26.7542 74.1443 26.495 74.1429Z" fill="#F5F5F7" stroke="#F5F5F7" stroke-width="0.5" stroke-miterlimit="10"/>
<path d="M49.9393 -0.000393543H3.05021C2.267 -0.0229368 1.50663 0.263075 0.935134 0.795182C0.363639 1.32729 0.0274558 2.06226 0 2.8396V77.1596C0.0274558 77.937 0.363639 78.6719 0.935134 79.204C1.50663 79.7361 2.267 80.0221 3.05021 79.9996H49.9393C50.7243 80.025 51.4873 79.7402 52.0611 79.2078C52.6349 78.6754 52.9726 77.9388 53 77.1596V2.8396C52.9726 2.0604 52.6349 1.32381 52.0611 0.791405C51.4873 0.259 50.7243 -0.0257526 49.9393 -0.000393543ZM2.89244 4.91738C2.90885 4.37448 3.13771 3.85929 3.53044 3.48112C3.92318 3.10295 4.44889 2.89156 4.99603 2.8918H47.8252C48.3723 2.89156 48.898 3.10295 49.2907 3.48112C49.6835 3.85929 49.9123 4.37448 49.9288 4.91738V9.09384H2.89244V4.91738ZM49.9603 12.2262V64.7451H2.89244V12.2471L49.9603 12.2262ZM47.8567 76.9612H5.02758C4.48044 76.9615 3.95473 76.7501 3.562 76.3719C3.16926 75.9938 2.94041 75.4786 2.92399 74.9357V67.7313H49.9603V74.9357C49.9492 75.4877 49.7184 76.0129 49.3183 76.3964C48.9181 76.7799 48.3813 76.9905 47.8252 76.9821L47.8567 76.9612Z" fill="#F5F5F7"/>
<path d="M26.2853 18.8145C23.0609 18.8145 19.9089 19.7636 17.2279 21.5419C14.5469 23.3202 12.4573 25.8478 11.2234 28.805C9.98949 31.7622 9.66663 35.0162 10.2957 38.1555C10.9247 41.2949 12.4774 44.1785 14.7574 46.4419C17.0374 48.7052 19.9423 50.2466 23.1047 50.871C26.2672 51.4955 29.5451 51.175 32.5241 49.9501C35.503 48.7252 38.0492 46.6508 39.8406 43.9894C41.632 41.328 42.5881 38.1991 42.5881 34.9982C42.5825 30.7077 40.8631 26.5945 37.807 23.5607C34.7508 20.5268 30.6073 18.82 26.2853 18.8145ZM26.2853 48.8432C23.5282 48.837 20.8348 48.0197 18.5454 46.4947C16.2561 44.9696 14.4734 42.8052 13.4226 40.2748C12.3718 37.7444 12.1001 34.9616 12.6418 32.2781C13.1835 29.5945 14.5143 27.1305 16.4661 25.1973C18.4178 23.2642 20.903 21.9487 23.6075 21.417C26.3121 20.8854 29.1147 21.1614 31.6613 22.2102C34.2079 23.259 36.3842 25.0335 37.9153 27.3096C39.4465 29.5857 40.2636 32.2613 40.2636 34.9982C40.2623 36.8186 39.8995 38.6209 39.1962 40.3021C38.4928 41.9832 37.4626 43.5103 36.1645 44.7961C34.8663 46.0819 33.3257 47.1011 31.6305 47.7955C29.9354 48.4899 28.1191 48.8459 26.2853 48.8432Z" fill="#F5F5F7"/>
<path d="M33.6671 34.3825H26.9145V27.6688C26.8948 27.5179 26.8204 27.3793 26.7052 27.2789C26.5901 27.1784 26.442 27.123 26.2887 27.123C26.1354 27.123 25.9874 27.1784 25.8722 27.2789C25.7571 27.3793 25.6827 27.5179 25.6629 27.6688V34.3825H18.9104C18.828 34.3811 18.7462 34.396 18.6697 34.4263C18.5932 34.4567 18.5235 34.5018 18.4648 34.5592C18.406 34.6165 18.3594 34.6849 18.3275 34.7603C18.2957 34.8357 18.2793 34.9167 18.2793 34.9985C18.2793 35.1646 18.3458 35.324 18.4641 35.4415C18.5825 35.559 18.743 35.625 18.9104 35.625H25.6629V42.3282C25.6827 42.4791 25.7571 42.6177 25.8722 42.7181C25.9874 42.8185 26.1354 42.8739 26.2887 42.8739C26.442 42.8739 26.5901 42.8185 26.7052 42.7181C26.8204 42.6177 26.8948 42.4791 26.9145 42.3282V35.625H33.6671C33.8344 35.625 33.995 35.559 34.1133 35.4415C34.2317 35.324 34.2982 35.1646 34.2982 34.9985C34.2982 34.9167 34.2818 34.8357 34.2499 34.7603C34.2181 34.6849 34.1714 34.6165 34.1127 34.5592C34.0539 34.5018 33.9843 34.4567 33.9078 34.4263C33.8313 34.396 33.7494 34.3811 33.6671 34.3825Z" fill="#F5F5F7" stroke="#F5F5F7" stroke-width="0.5" stroke-miterlimit="10"/>
</g>
<defs>
<clipPath id="clip0">
<rect width="53" height="80" fill="white"/>
</clipPath>
</defs>
</svg>
