<svg width="65" height="80" viewBox="0 0 65 80" fill="none" xmlns="http://www.w3.org/2000/svg">
<g clip-path="url(#clip0)">
<path d="M20.0899 48.4798C19.9756 48.3434 19.835 48.2304 19.6763 48.1474C19.5176 48.0644 19.3439 48.013 19.165 47.9961C18.9861 47.9792 18.8056 47.9972 18.6338 48.049C18.462 48.1008 18.3022 48.1854 18.1636 48.298C18.025 48.4106 17.9102 48.5489 17.8259 48.7052C17.7416 48.8614 17.6894 49.0325 17.6723 49.2086C17.6551 49.3847 17.6734 49.5624 17.726 49.7316C17.7786 49.9008 17.8645 50.0581 17.9789 50.1946L24.7449 58.1863C24.8623 58.3274 25.0084 58.4429 25.1738 58.5252C25.3392 58.6075 25.5203 58.6549 25.7054 58.6643H25.7898C26.1355 58.6655 26.4683 58.5352 26.7187 58.3006L51.1227 35.635C51.2517 35.5149 51.3553 35.3709 51.4277 35.2114C51.5001 35.0519 51.5399 34.8799 51.5448 34.7052C51.5497 34.5305 51.5196 34.3566 51.4563 34.1934C51.3929 34.0302 51.2975 33.8809 51.1755 33.7539C51.0535 33.627 50.9074 33.525 50.7453 33.4537C50.5833 33.3824 50.4086 33.3432 50.2312 33.3384C50.0538 33.3336 49.8771 33.3632 49.7114 33.4256C49.5456 33.488 49.3939 33.5819 49.265 33.702L25.9376 55.3907L20.0899 48.4798Z" fill="#F5F5F7" stroke="#F5F5F7" stroke-width="0.25" stroke-miterlimit="10"/>
<path d="M59.5851 5.34139H56.8724V4.00078C56.8724 3.47536 56.7672 2.95508 56.563 2.46965C56.3588 1.98422 56.0595 1.54315 55.6821 1.17162C55.3047 0.800091 54.8567 0.505376 54.3637 0.304305C53.8706 0.103234 53.3422 -0.000256076 52.8085 -0.000256076C52.2749 -0.000256076 51.7464 0.103234 51.2534 0.304305C50.7603 0.505376 50.3123 0.800091 49.935 1.17162C49.5576 1.54315 49.2583 1.98422 49.0541 2.46965C48.8498 2.95508 48.7447 3.47536 48.7447 4.00078V5.34139H16.2447V4.00078C16.2728 3.4589 16.1886 2.91705 15.9974 2.4082C15.8061 1.89934 15.5117 1.43411 15.132 1.04079C14.7524 0.647468 14.2955 0.33428 13.7891 0.12027C13.2826 -0.0937409 12.7373 -0.204102 12.1862 -0.204102C11.6351 -0.204102 11.0897 -0.0937409 10.5833 0.12027C10.0769 0.33428 9.61996 0.647468 9.24033 1.04079C8.8607 1.43411 8.56629 1.89934 8.37501 2.4082C8.18372 2.91705 8.09956 3.4589 8.12764 4.00078V5.34139H5.41491C3.97878 5.34139 2.60148 5.90308 1.58599 6.90288C0.570497 7.90268 0 9.25871 0 10.6726V73.3487C0 75.1154 0.712844 76.8098 1.98171 78.059C3.25058 79.3083 4.97154 80.0101 6.76599 80.0101H58.234C60.0285 80.0101 61.7494 79.3083 63.0183 78.059C64.2872 76.8098 65 75.1154 65 73.3487V10.6726C65 9.25871 64.4295 7.90268 63.414 6.90288C62.3985 5.90308 61.0212 5.34139 59.5851 5.34139ZM51.2041 4.00078C51.2041 3.58735 51.3709 3.19085 51.6679 2.89851C51.9648 2.60617 52.3675 2.44194 52.7874 2.44194C53.2073 2.44194 53.6101 2.60617 53.907 2.89851C54.2039 3.19085 54.3707 3.58735 54.3707 4.00078V9.34243C54.3707 9.75586 54.2039 10.1524 53.907 10.4447C53.6101 10.737 53.2073 10.9013 52.7874 10.9013C52.3675 10.9013 51.9648 10.737 51.6679 10.4447C51.3709 10.1524 51.2041 9.75586 51.2041 9.34243V4.00078ZM10.7559 4.00078C10.7559 3.58735 10.9227 3.19085 11.2197 2.89851C11.5166 2.60617 11.9193 2.44194 12.3392 2.44194C12.7592 2.44194 13.1619 2.60617 13.4588 2.89851C13.7557 3.19085 13.9225 3.58735 13.9225 4.00078V9.34243C13.9225 9.75586 13.7557 10.1524 13.4588 10.4447C13.1619 10.737 12.7592 10.9013 12.3392 10.9013C11.9193 10.9013 11.5166 10.737 11.2197 10.4447C10.9227 10.1524 10.7559 9.75586 10.7559 9.34243V4.00078ZM61.96 73.0057C61.963 74.0497 61.5481 75.0527 60.8052 75.7977C60.0624 76.5427 59.0514 76.9696 57.9912 76.986H7.13543C6.60503 76.986 6.07985 76.883 5.58995 76.6828C5.10006 76.4827 4.65509 76.1893 4.28053 75.8196C3.90597 75.4498 3.60919 75.011 3.40717 74.5281C3.20516 74.0453 3.10189 73.5279 3.10328 73.0057V18.6747H61.96V73.0057ZM62.3612 15.6194H2.80773V10.735C2.83791 10.0577 3.13899 9.41972 3.64525 8.96022C4.15151 8.50073 4.82183 8.25706 5.5099 8.28242H8.22264V9.50871C8.26923 10.5251 8.72308 11.4819 9.48478 12.1695C10.2465 12.8571 11.2539 13.2195 12.2865 13.1772C13.3172 13.2167 14.3219 12.853 15.0813 12.1657C15.8407 11.4784 16.2931 10.5232 16.3397 9.50871V8.28242H48.8292V9.50871C48.9189 10.5075 49.3853 11.4371 50.1365 12.1142C50.8877 12.7913 51.8692 13.1668 52.8877 13.1668C53.9062 13.1668 54.8877 12.7913 55.6389 12.1142C56.3901 11.4371 56.8565 10.5075 56.9462 9.50871V8.28242H59.6484C60.3383 8.25425 61.0113 8.49665 61.5199 8.95644C62.0285 9.41623 62.331 10.0559 62.3612 10.735V15.6194Z" fill="#F5F5F7"/>
</g>
<defs>
<clipPath id="clip0">
<rect width="65" height="80" fill="white"/>
</clipPath>
</defs>
</svg>
