<svg width="80" height="80" viewBox="0 0 80 80" fill="none" xmlns="http://www.w3.org/2000/svg">
<g clip-path="url(#clip0)">
<path d="M43.4719 54.7539C43.0786 54.7655 42.7057 54.9321 42.4348 55.2175C42.1639 55.5029 42.0169 55.8839 42.0258 56.2773C42.0243 56.4739 42.0618 56.6689 42.136 56.851C42.2103 57.0331 42.3198 57.1987 42.4583 57.3382C42.5969 57.4778 42.7617 57.5885 42.9432 57.6641C43.1247 57.7397 43.3194 57.7786 43.516 57.7786C43.9065 57.7671 44.2771 57.6039 44.5492 57.3236C44.8213 57.0433 44.9734 56.6679 44.9732 56.2773C44.9761 56.0783 44.9395 55.8807 44.8653 55.696C44.7912 55.5113 44.6811 55.3432 44.5414 55.2014C44.4017 55.0597 44.2352 54.9471 44.0516 54.8703C43.868 54.7934 43.6709 54.7539 43.4719 54.7539Z" fill="#F5F5F7"/>
<path d="M65.3403 54.7539C65.1417 54.7539 64.9452 54.7935 64.7622 54.8704C64.5792 54.9474 64.4134 55.0601 64.2746 55.202C64.1358 55.344 64.0267 55.5122 63.9538 55.6968C63.8809 55.8815 63.8456 56.0788 63.85 56.2773C63.8485 56.4739 63.886 56.6689 63.9602 56.851C64.0345 57.0331 64.144 57.1987 64.2825 57.3382C64.4211 57.4778 64.5859 57.5885 64.7674 57.6641C64.9489 57.7397 65.1436 57.7786 65.3403 57.7786C65.7384 57.7786 66.1203 57.6204 66.4018 57.3389C66.6834 57.0573 66.8416 56.6755 66.8416 56.2773C66.8445 56.0783 66.8078 55.8807 66.7337 55.696C66.6595 55.5113 66.5494 55.3432 66.4097 55.2014C66.27 55.0597 66.1035 54.9471 65.9199 54.8703C65.7363 54.7934 65.5393 54.7539 65.3403 54.7539Z" fill="#F5F5F7"/>
<path d="M54.3999 54.7539C54.2009 54.7539 54.0038 54.7934 53.8202 54.8703C53.6366 54.9471 53.4701 55.0597 53.3304 55.2014C53.1907 55.3432 53.0806 55.5113 53.0065 55.696C52.9323 55.8807 52.8957 56.0783 52.8986 56.2773C52.8986 56.6755 53.0568 57.0573 53.3383 57.3389C53.6199 57.6204 54.0017 57.7786 54.3999 57.7786C54.7981 57.7786 55.18 57.6204 55.4615 57.3389C55.7431 57.0573 55.9012 56.6755 55.9012 56.2773C55.9042 56.0783 55.8675 55.8807 55.7933 55.696C55.7192 55.5113 55.6091 55.3432 55.4694 55.2014C55.3297 55.0597 55.1632 54.9471 54.9796 54.8703C54.796 54.7934 54.5989 54.7539 54.3999 54.7539Z" fill="#F5F5F7"/>
<path d="M78.3 31.6593H61.2778V1.69935C61.2938 1.47096 61.2611 1.24177 61.1816 1.02704C61.1022 0.812313 60.9779 0.616978 60.817 0.454042C60.6562 0.291107 60.4625 0.164311 60.2488 0.0820985C60.0351 -0.000113772 59.8064 -0.0358556 59.5778 -0.0227465H1.689C1.46132 -0.0342318 1.23379 0.00271324 1.02145 0.0856495C0.809101 0.168586 0.616765 0.295626 0.45714 0.458381C0.297515 0.621135 0.174233 0.815902 0.0954352 1.02982C0.0166375 1.24373 -0.015883 1.47193 2.06949e-05 1.69935V45.9659C-0.0144094 46.192 0.0193009 46.4185 0.0989236 46.6306C0.178546 46.8426 0.302268 47.0354 0.461911 47.1961C0.621555 47.3567 0.813484 47.4817 1.02501 47.5627C1.23654 47.6437 1.46286 47.6789 1.689 47.666H11.9112V56.166C11.9085 56.4968 12.0062 56.8205 12.1915 57.0945C12.3768 57.3685 12.6409 57.5798 12.9488 57.7005C13.2611 57.8318 13.6048 57.8694 13.9381 57.8086C14.2713 57.7479 14.5797 57.5914 14.8255 57.3582L24.5177 47.666H28.9334V69.9648C28.9188 70.1919 28.9528 70.4194 29.033 70.6323C29.1133 70.8451 29.238 71.0385 29.3989 71.1993C29.5598 71.3602 29.7531 71.4849 29.9659 71.5652C30.1788 71.6455 30.4063 71.6794 30.6334 71.6649H59.4122L67.2499 79.5026C67.4972 79.7487 67.8143 79.9127 68.1581 79.9724C68.5018 80.0321 68.8556 79.9846 69.1715 79.8364C69.4873 79.6881 69.7498 79.4462 69.9235 79.1436C70.0972 78.841 70.1735 78.4923 70.1421 78.1448V71.5213H78.3C78.527 71.5359 78.7546 71.502 78.9674 71.4217C79.1803 71.3414 79.3736 71.2167 79.5345 71.0558C79.6954 70.8949 79.8201 70.7016 79.9004 70.4888C79.9806 70.2759 80.0146 70.0484 80 69.8213V33.3925C80.0177 33.1632 79.9862 32.9328 79.9075 32.7167C79.8287 32.5006 79.7047 32.3039 79.5437 32.1397C79.3827 31.9756 79.1884 31.8478 78.9738 31.7649C78.7593 31.682 78.5296 31.646 78.3 31.6593ZM23.7119 44.6413L14.4281 54.2894L14.5274 44.6744H2.93641V2.96884H58.3524V44.6413H23.7119ZM77.0415 68.8499H67.4155L67.6032 76.0584L60.196 68.8499H31.7814V47.5776H59.6882C59.922 47.5924 60.1562 47.5569 60.3753 47.4738C60.5943 47.3906 60.793 47.2616 60.9582 47.0955C61.1233 46.9293 61.251 46.7297 61.3328 46.5102C61.4146 46.2906 61.4485 46.0562 61.4323 45.8224V34.5847H77.0415V68.8499Z" fill="#F5F5F7"/>
<path d="M30.0696 39.8286C30.7768 39.8286 31.3501 39.2553 31.3501 38.5481C31.3501 37.8409 30.7768 37.2676 30.0696 37.2676C29.3624 37.2676 28.7891 37.8409 28.7891 38.5481C28.7891 39.2553 29.3624 39.8286 30.0696 39.8286Z" fill="#F5F5F7"/>
<path d="M40.1261 17.0006C40.0302 14.3896 38.9229 11.9182 37.0383 10.1085C35.1537 8.29888 32.6394 7.29278 30.0267 7.30281C27.4139 7.31284 24.9074 8.33823 23.0367 10.1623C21.1661 11.9864 20.0778 14.4662 20.002 17.0779C20.002 17.4175 20.1369 17.7432 20.377 17.9834C20.6172 18.2235 20.9429 18.3584 21.2825 18.3584C21.6221 18.3584 21.9478 18.2235 22.188 17.9834C22.4281 17.7432 22.563 17.4175 22.563 17.0779C22.5243 16.0686 22.6896 15.062 23.0491 14.1181C23.4087 13.1742 23.955 12.3127 24.6553 11.5849C25.3557 10.8572 26.1957 10.2782 27.1251 9.88281C28.0544 9.48737 29.054 9.28354 30.064 9.28354C31.0741 9.28354 32.0737 9.48737 33.003 9.88281C33.9324 10.2782 34.7724 10.8572 35.4728 11.5849C36.1731 12.3127 36.7194 13.1742 37.0789 14.1181C37.4385 15.062 37.6038 16.0686 37.5651 17.0779V17.1441C37.5542 18.6036 37.1168 20.028 36.3067 21.2421C35.4967 22.4562 34.3494 23.4069 33.006 23.9773C31.7439 24.5214 30.67 25.4249 29.9182 26.5753C29.1663 27.7257 28.7698 29.0719 28.778 30.4462V33.4267C28.778 33.7664 28.9129 34.0921 29.1531 34.3322C29.3932 34.5724 29.7189 34.7073 30.0585 34.7073C30.3981 34.7073 30.7239 34.5724 30.964 34.3322C31.2041 34.0921 31.3391 33.7664 31.3391 33.4267V30.4462C31.3292 29.5744 31.5776 28.7193 32.0531 27.9885C32.5285 27.2577 33.2096 26.684 34.0105 26.3397C35.8262 25.5663 37.3742 24.2757 38.4617 22.6288C39.5492 20.9819 40.128 19.0515 40.1261 17.0779V17.0006Z" fill="#F5F5F7"/>
</g>
<defs>
<clipPath id="clip0">
<rect width="80" height="80" fill="white"/>
</clipPath>
</defs>
</svg>
