<svg width="100" height="100" viewBox="0 0 100 100" fill="none" xmlns="http://www.w3.org/2000/svg">
<circle cx="50" cy="50" r="48.5" stroke="black" stroke-width="3"/>
<path d="M35.5993 25.5814C31.0734 25.5814 27.3703 29.3024 27.3703 33.8502V44.1861H23.2559V50.3876H27.3703V73.1266C27.3703 74.2636 28.2961 75.1938 29.4276 75.1938H35.5993L36.307 73.1266H63.6931L64.4008 75.1938H70.5725C71.704 75.1938 72.6297 74.2636 72.6297 73.1266V50.3876H76.7442V44.1861H72.6297V33.8502C72.6297 29.3024 68.9267 25.5814 64.4008 25.5814H35.5993ZM35.5993 29.7158H64.4008C66.6987 29.7158 68.5152 31.5411 68.5152 33.8502H31.4848C31.4848 31.5411 33.3014 29.7158 35.5993 29.7158ZM31.4848 37.9845H47.9428V52.4548H31.4848V37.9845ZM52.0573 37.9845H68.5152V52.4548H52.0573V37.9845ZM31.4848 56.5892H68.5152V68.9923H31.4848V56.5892ZM33.5421 60.7235V64.8579H41.7711V60.7235H33.5421ZM58.229 60.7235V64.8579H66.458V60.7235H58.229Z" fill="#151515"/>
<circle cx="69.38" cy="29.845" r="15.1163" fill="#F9F9F9"/>
<path d="M62.0156 32.7343L65.5428 36.4341L72.0931 24.8062" stroke="#151515" stroke-width="4" stroke-linecap="round" stroke-linejoin="round"/>
</svg>
