<svg width="100" height="100" viewBox="0 0 100 100" fill="none" xmlns="http://www.w3.org/2000/svg">
<circle cx="50" cy="50" r="48.5" stroke="black" stroke-width="3"/>
<path d="M35.5993 25.5814C31.0733 25.5814 27.3703 29.3024 27.3703 33.8502V44.1861H23.2558V50.3876H27.3703V73.1266C27.3703 74.2636 28.296 75.1938 29.4275 75.1938H35.5993L36.307 73.1266H63.693L64.4007 75.1938H70.5724C71.7039 75.1938 72.6297 74.2636 72.6297 73.1266V50.3876H76.7442V44.1861H72.6297V33.8502C72.6297 29.3024 68.9266 25.5814 64.4007 25.5814H35.5993ZM35.5993 29.7158H64.4007C66.6986 29.7158 68.5152 31.5411 68.5152 33.8502H31.4848C31.4848 31.5411 33.3013 29.7158 35.5993 29.7158ZM31.4848 37.9845H47.9427V52.4548H31.4848V37.9845ZM52.0572 37.9845H68.5152V52.4548H52.0572V37.9845ZM31.4848 56.5892H68.5152V68.9923H31.4848V56.5892ZM33.542 60.7235V64.8579H41.771V60.7235H33.542ZM58.229 60.7235V64.8579H66.4579V60.7235H58.229Z" fill="#151515"/>
<circle cx="69.3798" cy="29.845" r="15.1163" fill="#F9F9F9"/>
<path d="M65.4775 34.7592V33.2474C65.4775 32.099 65.7119 31.1322 66.1806 30.347C66.6494 29.5502 67.4814 28.7767 68.6767 28.0267C69.6259 27.4291 70.3056 26.89 70.7158 26.4095C71.1377 25.9291 71.3486 25.3783 71.3486 24.7572C71.3486 24.265 71.1259 23.8783 70.6806 23.597C70.2353 23.3041 69.6552 23.1576 68.9404 23.1576C67.1709 23.1576 65.1025 23.7845 62.7353 25.0385L60.292 20.2572C63.2099 18.5931 66.2568 17.7611 69.4326 17.7611C72.0459 17.7611 74.0966 18.3353 75.5849 19.4838C77.0732 20.6322 77.8173 22.1967 77.8173 24.1771C77.8173 25.5951 77.4834 26.8256 76.8154 27.8685C76.1591 28.8998 75.1045 29.8783 73.6513 30.8041C72.4209 31.601 71.6474 32.1869 71.331 32.5619C71.0263 32.9252 70.874 33.3588 70.874 33.8627V34.7592H65.4775ZM64.7216 40.9115C64.7216 39.8334 65.0322 39.0013 65.6533 38.4154C66.2861 37.8295 67.2119 37.5365 68.4306 37.5365C69.6025 37.5365 70.499 37.8353 71.1201 38.433C71.7529 39.0189 72.0693 39.8451 72.0693 40.9115C72.0693 41.9779 71.7412 42.8041 71.0849 43.39C70.4404 43.976 69.5556 44.2689 68.4306 44.2689C67.2705 44.2689 66.3623 43.9818 65.706 43.4076C65.0498 42.8217 64.7216 41.9896 64.7216 40.9115Z" fill="#151515"/>
</svg>
