<svg width="100" height="100" viewBox="0 0 100 100" fill="none" xmlns="http://www.w3.org/2000/svg">
<circle cx="50" cy="50" r="48.5" stroke="black" stroke-width="3"/>
<path d="M52.2481 47.2868C51.0078 46.9768 49.7675 46.3566 48.8372 45.4264C47.907 45.1163 47.5969 44.1861 47.5969 43.5659C47.5969 42.9458 47.907 42.0155 48.5272 41.7055C49.4574 41.0853 50.3876 40.4651 51.3179 40.7752C53.1783 40.7752 54.7287 41.7055 55.6589 42.9458L58.4496 39.2248C57.5194 38.2946 56.5892 37.6744 55.6589 37.0543C54.7287 36.4341 53.4884 36.1241 52.2481 36.1241V31.783H48.5272V36.1241C46.9768 36.4341 45.4264 37.3644 44.1861 38.6047C42.9458 40.1551 42.0155 42.0155 42.3256 43.876C42.3256 45.7365 42.9458 47.5969 44.1861 48.8372C45.7365 50.3876 47.907 51.3179 49.7675 52.2481C50.6977 52.5582 51.938 53.1783 52.8682 53.7985C53.4884 54.4186 53.7985 55.3489 53.7985 56.2791C53.7985 57.2093 53.4884 58.1396 52.8682 59.0698C51.938 60 50.6977 60.3101 49.7675 60.3101C48.5272 60.3101 46.9768 60 46.0465 59.0698C45.1163 58.4496 44.1861 57.5194 43.5659 56.5892L40.4651 60C41.3954 61.2403 42.3256 62.1706 43.5659 63.1008C45.1163 64.031 46.9768 64.9613 48.8372 64.9613V68.9923H52.2481V64.3411C54.1086 64.031 55.6589 63.1008 56.8993 61.8605C58.4496 60.3101 59.3799 57.8295 59.3799 55.6589C59.3799 53.7985 58.7597 51.6279 57.2093 50.3876C55.6589 48.8372 54.1086 47.907 52.2481 47.2868V47.2868ZM50.3876 25.5814C36.7442 25.5814 25.5814 36.7442 25.5814 50.3876C25.5814 64.031 36.7442 75.1938 50.3876 75.1938C64.031 75.1938 75.1938 64.031 75.1938 50.3876C75.1938 36.7442 64.031 25.5814 50.3876 25.5814ZM50.3876 71.783C38.6047 71.783 28.9923 62.1706 28.9923 50.3876C28.9923 38.6047 38.6047 28.9923 50.3876 28.9923C62.1706 28.9923 71.783 38.6047 71.783 50.3876C71.783 62.1706 62.1706 71.783 50.3876 71.783V71.783Z" fill="#151515"/>
</svg>
