<svg width="100" height="100" viewBox="0 0 100 100" fill="none" xmlns="http://www.w3.org/2000/svg">
<circle cx="50" cy="50" r="48.5" stroke="black" stroke-width="3"/>
<path fill-rule="evenodd" clip-rule="evenodd" d="M62.7907 27.907H37.9845C37.1621 27.907 36.3734 28.2337 35.7919 28.8152C35.2104 29.3967 34.8837 30.1854 34.8837 31.0078V68.2171C34.8837 69.0394 35.2104 69.8281 35.7919 70.4096C36.3734 70.9912 37.1621 71.3178 37.9845 71.3178H62.7907C63.6131 71.3178 64.4018 70.9912 64.9833 70.4096C65.5648 69.8281 65.8915 69.0394 65.8915 68.2171V31.0078C65.8915 30.1854 65.5648 29.3967 64.9833 28.8152C64.4018 28.2337 63.6131 27.907 62.7907 27.907ZM37.9845 24.8062C36.3398 24.8062 34.7624 25.4596 33.5994 26.6226C32.4363 27.7856 31.783 29.363 31.783 31.0078V68.2171C31.783 69.8618 32.4363 71.4392 33.5994 72.6022C34.7624 73.7652 36.3398 74.4186 37.9845 74.4186H62.7907C64.4355 74.4186 66.0128 73.7652 67.1759 72.6022C68.3389 71.4392 68.9923 69.8618 68.9923 68.2171V31.0078C68.9923 29.363 68.3389 27.7856 67.1759 26.6226C66.0128 25.4596 64.4355 24.8062 62.7907 24.8062H37.9845Z" fill="#151515"/>
<path d="M37.9845 32.5581C37.9845 32.147 38.1478 31.7526 38.4386 31.4618C38.7293 31.1711 39.1237 31.0078 39.5349 31.0078H61.2403C61.6515 31.0078 62.0458 31.1711 62.3366 31.4618C62.6274 31.7526 62.7907 32.147 62.7907 32.5581V38.7597C62.7907 39.1709 62.6274 39.5652 62.3366 39.856C62.0458 40.1467 61.6515 40.3101 61.2403 40.3101H39.5349C39.1237 40.3101 38.7293 40.1467 38.4386 39.856C38.1478 39.5652 37.9845 39.1709 37.9845 38.7597V32.5581ZM37.9845 44.9612C37.9845 44.5501 38.1478 44.1557 38.4386 43.8649C38.7293 43.5742 39.1237 43.4109 39.5349 43.4109H42.6357C43.0468 43.4109 43.4412 43.5742 43.7319 43.8649C44.0227 44.1557 44.186 44.5501 44.186 44.9612V48.062C44.186 48.4732 44.0227 48.8675 43.7319 49.1583C43.4412 49.4491 43.0468 49.6124 42.6357 49.6124H39.5349C39.1237 49.6124 38.7293 49.4491 38.4386 49.1583C38.1478 48.8675 37.9845 48.4732 37.9845 48.062V44.9612ZM37.9845 54.2636C37.9845 53.8524 38.1478 53.458 38.4386 53.1673C38.7293 52.8765 39.1237 52.7132 39.5349 52.7132H42.6357C43.0468 52.7132 43.4412 52.8765 43.7319 53.1673C44.0227 53.458 44.186 53.8524 44.186 54.2636V57.3643C44.186 57.7755 44.0227 58.1699 43.7319 58.4606C43.4412 58.7514 43.0468 58.9147 42.6357 58.9147H39.5349C39.1237 58.9147 38.7293 58.7514 38.4386 58.4606C38.1478 58.1699 37.9845 57.7755 37.9845 57.3643V54.2636ZM37.9845 63.5659C37.9845 63.1547 38.1478 62.7604 38.4386 62.4696C38.7293 62.1788 39.1237 62.0155 39.5349 62.0155H42.6357C43.0468 62.0155 43.4412 62.1788 43.7319 62.4696C44.0227 62.7604 44.186 63.1547 44.186 63.5659V66.6667C44.186 67.0779 44.0227 67.4722 43.7319 67.763C43.4412 68.0537 43.0468 68.2171 42.6357 68.2171H39.5349C39.1237 68.2171 38.7293 68.0537 38.4386 67.763C38.1478 67.4722 37.9845 67.0779 37.9845 66.6667V63.5659ZM47.2868 44.9612C47.2868 44.5501 47.4502 44.1557 47.7409 43.8649C48.0317 43.5742 48.426 43.4109 48.8372 43.4109H51.938C52.3492 43.4109 52.7435 43.5742 53.0343 43.8649C53.325 44.1557 53.4884 44.5501 53.4884 44.9612V48.062C53.4884 48.4732 53.325 48.8675 53.0343 49.1583C52.7435 49.4491 52.3492 49.6124 51.938 49.6124H48.8372C48.426 49.6124 48.0317 49.4491 47.7409 49.1583C47.4502 48.8675 47.2868 48.4732 47.2868 48.062V44.9612ZM47.2868 54.2636C47.2868 53.8524 47.4502 53.458 47.7409 53.1673C48.0317 52.8765 48.426 52.7132 48.8372 52.7132H51.938C52.3492 52.7132 52.7435 52.8765 53.0343 53.1673C53.325 53.458 53.4884 53.8524 53.4884 54.2636V57.3643C53.4884 57.7755 53.325 58.1699 53.0343 58.4606C52.7435 58.7514 52.3492 58.9147 51.938 58.9147H48.8372C48.426 58.9147 48.0317 58.7514 47.7409 58.4606C47.4502 58.1699 47.2868 57.7755 47.2868 57.3643V54.2636ZM47.2868 63.5659C47.2868 63.1547 47.4502 62.7604 47.7409 62.4696C48.0317 62.1788 48.426 62.0155 48.8372 62.0155H51.938C52.3492 62.0155 52.7435 62.1788 53.0343 62.4696C53.325 62.7604 53.4884 63.1547 53.4884 63.5659V66.6667C53.4884 67.0779 53.325 67.4722 53.0343 67.763C52.7435 68.0537 52.3492 68.2171 51.938 68.2171H48.8372C48.426 68.2171 48.0317 68.0537 47.7409 67.763C47.4502 67.4722 47.2868 67.0779 47.2868 66.6667V63.5659ZM56.5891 44.9612C56.5891 44.5501 56.7525 44.1557 57.0432 43.8649C57.334 43.5742 57.7283 43.4109 58.1395 43.4109H61.2403C61.6515 43.4109 62.0458 43.5742 62.3366 43.8649C62.6274 44.1557 62.7907 44.5501 62.7907 44.9612V48.062C62.7907 48.4732 62.6274 48.8675 62.3366 49.1583C62.0458 49.4491 61.6515 49.6124 61.2403 49.6124H58.1395C57.7283 49.6124 57.334 49.4491 57.0432 49.1583C56.7525 48.8675 56.5891 48.4732 56.5891 48.062V44.9612ZM56.5891 54.2636C56.5891 53.8524 56.7525 53.458 57.0432 53.1673C57.334 52.8765 57.7283 52.7132 58.1395 52.7132H61.2403C61.6515 52.7132 62.0458 52.8765 62.3366 53.1673C62.6274 53.458 62.7907 53.8524 62.7907 54.2636V66.6667C62.7907 67.0779 62.6274 67.4722 62.3366 67.763C62.0458 68.0537 61.6515 68.2171 61.2403 68.2171H58.1395C57.7283 68.2171 57.334 68.0537 57.0432 67.763C56.7525 67.4722 56.5891 67.0779 56.5891 66.6667V54.2636Z" fill="#151515"/>
</svg>
