<svg width="54" height="36" viewBox="0 0 54 36" fill="none" xmlns="http://www.w3.org/2000/svg">
<path d="M21.0781 35H11.6797V16.8594C11.6797 14.6562 11.7266 12.6406 11.8203 10.8125C11.2422 11.5156 10.5234 12.25 9.66406 13.0156L5.77344 16.2266L0.96875 10.3203L12.7344 0.734375H21.0781V35ZM53.6797 16.4141C53.6797 23.1172 52.2344 27.9688 49.3438 30.9688C46.4531 33.9688 41.8281 35.4688 35.4688 35.4688C33.375 35.4688 31.7812 35.3906 30.6875 35.2344V27.8984C32.0312 28.1484 33.375 28.2734 34.7188 28.2734C38.0312 28.2734 40.5859 27.5938 42.3828 26.2344C44.1797 24.8594 45.1562 22.6953 45.3125 19.7422H45.0312C44.4219 20.8672 43.8203 21.6797 43.2266 22.1797C42.6328 22.6797 41.9062 23.0625 41.0469 23.3281C40.1875 23.5938 39.1172 23.7266 37.8359 23.7266C34.8672 23.7266 32.5469 22.7344 30.875 20.75C29.2031 18.7656 28.3672 16.0312 28.3672 12.5469C28.3672 8.75 29.4453 5.77344 31.6016 3.61719C33.7734 1.46094 36.7422 0.382812 40.5078 0.382812C44.6953 0.382812 47.9375 1.77344 50.2344 4.55469C52.5312 7.33594 53.6797 11.2891 53.6797 16.4141ZM40.7656 7.78906C39.75 7.78906 38.9219 8.15625 38.2812 8.89062C37.6562 9.625 37.3438 10.8047 37.3438 12.4297C37.3438 13.7109 37.6172 14.7344 38.1641 15.5C38.7109 16.25 39.5469 16.625 40.6719 16.625C41.6875 16.625 42.5703 16.2578 43.3203 15.5234C44.0703 14.7891 44.4453 13.9062 44.4453 12.875C44.4453 11.4844 44.0938 10.2891 43.3906 9.28906C42.7031 8.28906 41.8281 7.78906 40.7656 7.78906Z" fill="#2F3BAC"/>
</svg>
