<svg width="54" height="36" viewBox="0 0 54 36" fill="none" xmlns="http://www.w3.org/2000/svg">
<path d="M25.2969 35H0.429688V28.9062L8.79688 20.4453C11.1875 17.9453 12.75 16.2422 13.4844 15.3359C14.2188 14.4141 14.7266 13.625 15.0078 12.9688C15.3047 12.3125 15.4531 11.625 15.4531 10.9062C15.4531 10.0156 15.1641 9.3125 14.5859 8.79688C14.0078 8.28125 13.1953 8.02344 12.1484 8.02344C11.0703 8.02344 9.97656 8.33594 8.86719 8.96094C7.77344 9.57031 6.53125 10.4766 5.14062 11.6797L0.0546875 5.72656C1.82031 4.14844 3.30469 3.02344 4.50781 2.35156C5.71094 1.66406 7.01562 1.14062 8.42188 0.78125C9.84375 0.421875 11.4375 0.242188 13.2031 0.242188C15.4219 0.242188 17.3984 0.632813 19.1328 1.41406C20.8828 2.19531 22.2344 3.3125 23.1875 4.76562C24.1562 6.20312 24.6406 7.82031 24.6406 9.61719C24.6406 10.9609 24.4688 12.2031 24.125 13.3438C23.7969 14.4844 23.2812 15.6094 22.5781 16.7188C21.875 17.8125 20.9375 18.9688 19.7656 20.1875C18.6094 21.4062 16.1328 23.7188 12.3359 27.125V27.3594H25.2969V35ZM53.6797 16.4141C53.6797 23.1172 52.2344 27.9688 49.3438 30.9688C46.4531 33.9688 41.8281 35.4688 35.4688 35.4688C33.375 35.4688 31.7812 35.3906 30.6875 35.2344V27.8984C32.0312 28.1484 33.375 28.2734 34.7188 28.2734C38.0312 28.2734 40.5859 27.5938 42.3828 26.2344C44.1797 24.8594 45.1562 22.6953 45.3125 19.7422H45.0312C44.4219 20.8672 43.8203 21.6797 43.2266 22.1797C42.6328 22.6797 41.9062 23.0625 41.0469 23.3281C40.1875 23.5938 39.1172 23.7266 37.8359 23.7266C34.8672 23.7266 32.5469 22.7344 30.875 20.75C29.2031 18.7656 28.3672 16.0312 28.3672 12.5469C28.3672 8.75 29.4453 5.77344 31.6016 3.61719C33.7734 1.46094 36.7422 0.382812 40.5078 0.382812C44.6953 0.382812 47.9375 1.77344 50.2344 4.55469C52.5312 7.33594 53.6797 11.2891 53.6797 16.4141ZM40.7656 7.78906C39.75 7.78906 38.9219 8.15625 38.2812 8.89062C37.6562 9.625 37.3438 10.8047 37.3438 12.4297C37.3438 13.7109 37.6172 14.7344 38.1641 15.5C38.7109 16.25 39.5469 16.625 40.6719 16.625C41.6875 16.625 42.5703 16.2578 43.3203 15.5234C44.0703 14.7891 44.4453 13.9062 44.4453 12.875C44.4453 11.4844 44.0938 10.2891 43.3906 9.28906C42.7031 8.28906 41.8281 7.78906 40.7656 7.78906Z" fill="#2F3BAC"/>
</svg>
