<svg width="54" height="36" viewBox="0 0 54 36" fill="none" xmlns="http://www.w3.org/2000/svg">
<path d="M24.1484 8.16406C24.1484 10.2891 23.5 12.1172 22.2031 13.6484C20.9062 15.1641 19.0312 16.2656 16.5781 16.9531V17.0938C22.2969 17.8125 25.1562 20.5156 25.1562 25.2031C25.1562 28.3906 23.8906 30.8984 21.3594 32.7266C18.8438 34.5547 15.3438 35.4688 10.8594 35.4688C9.01562 35.4688 7.30469 35.3359 5.72656 35.0703C4.16406 34.8047 2.46875 34.3203 0.640625 33.6172V25.9297C2.14062 26.6953 3.66406 27.2656 5.21094 27.6406C6.77344 28 8.21094 28.1797 9.52344 28.1797C11.5547 28.1797 13.0312 27.8984 13.9531 27.3359C14.8906 26.7578 15.3594 25.8594 15.3594 24.6406C15.3594 23.7031 15.1172 22.9844 14.6328 22.4844C14.1484 21.9688 13.3672 21.5859 12.2891 21.3359C11.2109 21.0703 9.80469 20.9375 8.07031 20.9375H5.96094V13.9766H8.11719C12.8203 13.9766 15.1719 12.7734 15.1719 10.3672C15.1719 9.46094 14.8203 8.78906 14.1172 8.35156C13.4297 7.91406 12.5 7.69531 11.3281 7.69531C9.14062 7.69531 6.875 8.42969 4.53125 9.89844L0.6875 3.71094C2.5 2.46094 4.35156 1.57031 6.24219 1.03906C8.14844 0.507812 10.3281 0.242188 12.7812 0.242188C16.3281 0.242188 19.1094 0.945312 21.125 2.35156C23.1406 3.75781 24.1484 5.69531 24.1484 8.16406ZM53.6797 16.4141C53.6797 23.1172 52.2344 27.9688 49.3438 30.9688C46.4531 33.9688 41.8281 35.4688 35.4688 35.4688C33.375 35.4688 31.7812 35.3906 30.6875 35.2344V27.8984C32.0312 28.1484 33.375 28.2734 34.7188 28.2734C38.0312 28.2734 40.5859 27.5938 42.3828 26.2344C44.1797 24.8594 45.1562 22.6953 45.3125 19.7422H45.0312C44.4219 20.8672 43.8203 21.6797 43.2266 22.1797C42.6328 22.6797 41.9062 23.0625 41.0469 23.3281C40.1875 23.5938 39.1172 23.7266 37.8359 23.7266C34.8672 23.7266 32.5469 22.7344 30.875 20.75C29.2031 18.7656 28.3672 16.0312 28.3672 12.5469C28.3672 8.75 29.4453 5.77344 31.6016 3.61719C33.7734 1.46094 36.7422 0.382812 40.5078 0.382812C44.6953 0.382812 47.9375 1.77344 50.2344 4.55469C52.5312 7.33594 53.6797 11.2891 53.6797 16.4141ZM40.7656 7.78906C39.75 7.78906 38.9219 8.15625 38.2812 8.89062C37.6562 9.625 37.3438 10.8047 37.3438 12.4297C37.3438 13.7109 37.6172 14.7344 38.1641 15.5C38.7109 16.25 39.5469 16.625 40.6719 16.625C41.6875 16.625 42.5703 16.2578 43.3203 15.5234C44.0703 14.7891 44.4453 13.9062 44.4453 12.875C44.4453 11.4844 44.0938 10.2891 43.3906 9.28906C42.7031 8.28906 41.8281 7.78906 40.7656 7.78906Z" fill="#2F3BAC"/>
</svg>
