<svg width="55" height="36" viewBox="0 0 55 36" fill="none" xmlns="http://www.w3.org/2000/svg">
<path d="M27.3984 28.3672H23.625V35H14.4844V28.3672H0.820312V21.5703L15.0703 0.734375H23.625V21.4531H27.3984V28.3672ZM14.4844 21.4531V17.4688C14.4844 16.7188 14.5078 15.7109 14.5547 14.4453C14.6172 13.1641 14.6641 12.4922 14.6953 12.4297H14.4375C13.9062 13.6328 13.3047 14.7578 12.6328 15.8047L8.83594 21.4531H14.4844ZM43.6875 12.5469C45.6562 12.5469 47.4297 13.0078 49.0078 13.9297C50.6016 14.8359 51.8359 16.125 52.7109 17.7969C53.6016 19.4688 54.0469 21.3984 54.0469 23.5859C54.0469 27.4141 52.8906 30.3516 50.5781 32.3984C48.2812 34.4453 44.7969 35.4688 40.125 35.4688C36.125 35.4688 32.8594 34.8516 30.3281 33.6172V26.0234C31.6875 26.6484 33.2188 27.1641 34.9219 27.5703C36.6406 27.9766 38.1172 28.1797 39.3516 28.1797C41.0703 28.1797 42.3906 27.8203 43.3125 27.1016C44.2344 26.3672 44.6953 25.2891 44.6953 23.8672C44.6953 22.5547 44.2266 21.5312 43.2891 20.7969C42.3516 20.0625 40.9297 19.6953 39.0234 19.6953C37.5703 19.6953 36 19.9688 34.3125 20.5156L30.9141 18.8281L32.2031 0.734375H51.75V8.44531H40.0781L39.6562 12.9688C40.875 12.7344 41.7422 12.6094 42.2578 12.5938C42.7734 12.5625 43.25 12.5469 43.6875 12.5469Z" fill="#2F3BAC"/>
</svg>
