<svg width="53" height="36" viewBox="0 0 53 36" fill="none" xmlns="http://www.w3.org/2000/svg">
<path d="M13.5625 12.5469C15.5312 12.5469 17.3047 13.0078 18.8828 13.9297C20.4766 14.8359 21.7109 16.125 22.5859 17.7969C23.4766 19.4688 23.9219 21.3984 23.9219 23.5859C23.9219 27.4141 22.7656 30.3516 20.4531 32.3984C18.1562 34.4453 14.6719 35.4688 10 35.4688C6 35.4688 2.73438 34.8516 0.203125 33.6172V26.0234C1.5625 26.6484 3.09375 27.1641 4.79688 27.5703C6.51562 27.9766 7.99219 28.1797 9.22656 28.1797C10.9453 28.1797 12.2656 27.8203 13.1875 27.1016C14.1094 26.3672 14.5703 25.2891 14.5703 23.8672C14.5703 22.5547 14.1016 21.5312 13.1641 20.7969C12.2266 20.0625 10.8047 19.6953 8.89844 19.6953C7.44531 19.6953 5.875 19.9688 4.1875 20.5156L0.789062 18.8281L2.07812 0.734375H21.625V8.44531H9.95312L9.53125 12.9688C10.75 12.7344 11.6172 12.6094 12.1328 12.5938C12.6484 12.5625 13.125 12.5469 13.5625 12.5469ZM52.5625 17.9141C52.5625 23.9766 51.5469 28.4219 49.5156 31.25C47.4844 34.0625 44.375 35.4688 40.1875 35.4688C36.0938 35.4688 33.0078 34 30.9297 31.0625C28.8516 28.1094 27.8125 23.7266 27.8125 17.9141C27.8125 11.8203 28.8281 7.35156 30.8594 4.50781C32.8906 1.66406 36 0.242188 40.1875 0.242188C44.2656 0.242188 47.3438 1.72656 49.4219 4.69531C51.5156 7.64844 52.5625 12.0547 52.5625 17.9141ZM37.0234 17.9141C37.0234 21.7891 37.2656 24.4531 37.75 25.9062C38.2344 27.3594 39.0469 28.0859 40.1875 28.0859C41.3438 28.0859 42.1562 27.3359 42.625 25.8359C43.1094 24.3359 43.3516 21.6953 43.3516 17.9141C43.3516 14.1172 43.1094 11.4609 42.625 9.94531C42.1406 8.41406 41.3281 7.64844 40.1875 7.64844C39.0469 7.64844 38.2344 8.38281 37.75 9.85156C37.2656 11.3203 37.0234 14.0078 37.0234 17.9141Z" fill="#2F3BAC"/>
</svg>
