<svg width="53" height="36" viewBox="0 0 53 36" fill="none" xmlns="http://www.w3.org/2000/svg">
<path d="M13.5625 12.5469C15.5312 12.5469 17.3047 13.0078 18.8828 13.9297C20.4766 14.8359 21.7109 16.125 22.5859 17.7969C23.4766 19.4688 23.9219 21.3984 23.9219 23.5859C23.9219 27.4141 22.7656 30.3516 20.4531 32.3984C18.1562 34.4453 14.6719 35.4688 10 35.4688C6 35.4688 2.73438 34.8516 0.203125 33.6172V26.0234C1.5625 26.6484 3.09375 27.1641 4.79688 27.5703C6.51562 27.9766 7.99219 28.1797 9.22656 28.1797C10.9453 28.1797 12.2656 27.8203 13.1875 27.1016C14.1094 26.3672 14.5703 25.2891 14.5703 23.8672C14.5703 22.5547 14.1016 21.5312 13.1641 20.7969C12.2266 20.0625 10.8047 19.6953 8.89844 19.6953C7.44531 19.6953 5.875 19.9688 4.1875 20.5156L0.789062 18.8281L2.07812 0.734375H21.625V8.44531H9.95312L9.53125 12.9688C10.75 12.7344 11.6172 12.6094 12.1328 12.5938C12.6484 12.5625 13.125 12.5469 13.5625 12.5469ZM41.6875 12.5469C43.6562 12.5469 45.4297 13.0078 47.0078 13.9297C48.6016 14.8359 49.8359 16.125 50.7109 17.7969C51.6016 19.4688 52.0469 21.3984 52.0469 23.5859C52.0469 27.4141 50.8906 30.3516 48.5781 32.3984C46.2812 34.4453 42.7969 35.4688 38.125 35.4688C34.125 35.4688 30.8594 34.8516 28.3281 33.6172V26.0234C29.6875 26.6484 31.2188 27.1641 32.9219 27.5703C34.6406 27.9766 36.1172 28.1797 37.3516 28.1797C39.0703 28.1797 40.3906 27.8203 41.3125 27.1016C42.2344 26.3672 42.6953 25.2891 42.6953 23.8672C42.6953 22.5547 42.2266 21.5312 41.2891 20.7969C40.3516 20.0625 38.9297 19.6953 37.0234 19.6953C35.5703 19.6953 34 19.9688 32.3125 20.5156L28.9141 18.8281L30.2031 0.734375H49.75V8.44531H38.0781L37.6562 12.9688C38.875 12.7344 39.7422 12.6094 40.2578 12.5938C40.7734 12.5625 41.25 12.5469 41.6875 12.5469Z" fill="#2F3BAC"/>
</svg>
