<svg width="26" height="36" viewBox="0 0 26 36" fill="none" xmlns="http://www.w3.org/2000/svg">
<path d="M13.1562 0.242188C16.7656 0.242188 19.5703 0.96875 21.5703 2.42188C23.5859 3.875 24.5938 5.9375 24.5938 8.60938C24.5938 10.4219 24.1172 12.0156 23.1641 13.3906C22.2266 14.75 20.7344 15.9375 18.6875 16.9531C21.2188 18.3906 23 19.8281 24.0312 21.2656C25.0781 22.6875 25.6016 24.2266 25.6016 25.8828C25.6016 28.9297 24.5 31.2891 22.2969 32.9609C20.0938 34.6328 17.0156 35.4688 13.0625 35.4688C9.03125 35.4688 5.94531 34.6562 3.80469 33.0312C1.66406 31.3906 0.59375 29.0391 0.59375 25.9766C0.59375 23.9922 1.07031 22.3047 2.02344 20.9141C2.97656 19.5078 4.57812 18.2344 6.82812 17.0938C5.01562 15.875 3.6875 14.5703 2.84375 13.1797C2.01562 11.7734 1.60156 10.2344 1.60156 8.5625C1.60156 5.9375 2.625 3.89844 4.67188 2.44531C6.71875 0.976562 9.54688 0.242188 13.1562 0.242188ZM9.07812 25.6016C9.07812 26.5703 9.42188 27.3516 10.1094 27.9453C10.7969 28.5234 11.75 28.8125 12.9688 28.8125C15.7188 28.8125 17.0938 27.8047 17.0938 25.7891C17.0938 25.0234 16.7891 24.2734 16.1797 23.5391C15.5859 22.7891 14.5156 21.9531 12.9688 21.0312C11.5781 21.7656 10.5781 22.5078 9.96875 23.2578C9.375 23.9922 9.07812 24.7734 9.07812 25.6016ZM13.1094 6.92188C12.3125 6.92188 11.6406 7.15625 11.0938 7.625C10.5469 8.07812 10.2734 8.67188 10.2734 9.40625C10.2734 10.75 11.1875 11.9375 13.0156 12.9688C14.125 12.3281 14.8828 11.7422 15.2891 11.2109C15.6953 10.6797 15.8984 10.0781 15.8984 9.40625C15.8984 8.65625 15.625 8.05469 15.0781 7.60156C14.5312 7.14844 13.875 6.92188 13.1094 6.92188Z" fill="#2F3BAC"/>
</svg>
