<svg width="120" height="61" viewBox="0 0 120 61" fill="none" xmlns="http://www.w3.org/2000/svg">
<path d="M1.824 12.768H13.2C16.144 12.768 18.352 13.584 19.824 15.216C21.296 16.848 22.048 19.264 22.08 22.464L22.176 41.76C22.208 45.824 21.504 48.88 20.064 50.928C18.624 52.976 16.24 54 12.912 54H1.824V12.768ZM11.568 46.704C13.072 46.704 13.824 45.968 13.824 44.496V23.232C13.824 22.304 13.744 21.616 13.584 21.168C13.456 20.688 13.2 20.368 12.816 20.208C12.432 20.048 11.84 19.968 11.04 19.968H10.128V46.704H11.568ZM25.4959 12.768H36.6799C39.6879 12.768 41.8639 13.504 43.2079 14.976C44.5839 16.448 45.2719 18.848 45.2719 22.176V24C45.2719 27.936 43.8639 30.288 41.0479 31.056C42.7759 31.504 43.9919 32.544 44.6959 34.176C45.3999 35.808 45.7519 37.968 45.7519 40.656C45.7519 45.04 45.0959 48.368 43.7839 50.64C42.4719 52.88 40.1039 54 36.6799 54H25.4959V12.768ZM35.2399 28.272C35.9439 28.272 36.4239 28.016 36.6799 27.504C36.9359 26.96 37.0639 26.208 37.0639 25.248V21.12C37.0639 19.776 36.4719 19.104 35.2879 19.104H33.5599V28.272H35.2399ZM34.3759 46.752C36.5199 46.752 37.5919 45.728 37.5919 43.68V38.544C37.5919 37.296 37.3999 36.352 37.0159 35.712C36.6639 35.072 36.0239 34.752 35.0959 34.752H33.5599V46.704L34.3759 46.752ZM58.0646 54.384C55.0566 54.384 52.6406 53.44 50.8166 51.552C49.0246 49.664 48.1286 47.072 48.1286 43.776V24.768C48.1286 20.672 48.9446 17.584 50.5766 15.504C52.2086 13.424 54.7686 12.384 58.2566 12.384C61.2966 12.384 63.7446 13.216 65.6006 14.88C67.4566 16.544 68.3846 18.944 68.3846 22.08V29.184H60.1766V23.088C60.1766 21.904 60.0326 21.088 59.7446 20.64C59.4566 20.192 58.9606 19.968 58.2566 19.968C57.5206 19.968 57.0086 20.224 56.7206 20.736C56.4646 21.248 56.3366 22 56.3366 22.992V43.68C56.3366 44.768 56.4966 45.568 56.8166 46.08C57.1366 46.56 57.6166 46.8 58.2566 46.8C59.5366 46.8 60.1766 45.76 60.1766 43.68V36.24H68.4806V44.016C68.4806 50.928 65.0086 54.384 58.0646 54.384Z" fill="white"/>
<path d="M72.819 14.3755H75.107C76.2423 14.3755 77.044 14.6355 77.512 15.1555C77.9887 15.6755 78.227 16.4859 78.227 17.5865V21.4605C78.227 22.6219 77.993 23.4885 77.525 24.0605C77.0657 24.6239 76.2987 24.9055 75.224 24.9055H72.819V14.3755ZM75.12 23.8525C75.6313 23.8525 75.9997 23.7529 76.225 23.5535C76.459 23.3542 76.602 23.0855 76.654 22.7475C76.7147 22.4009 76.745 21.8809 76.745 21.1875V17.7685C76.745 17.1705 76.706 16.7155 76.628 16.4035C76.5587 16.0829 76.407 15.8489 76.173 15.7015C75.939 15.5455 75.575 15.4675 75.081 15.4675H74.288V23.8525H75.12ZM79.6745 14.3755H83.7565V15.4675H81.1435V18.9515H83.2625V19.9915H81.1435V23.8525H83.7825V24.9055H79.6745V14.3755ZM84.9684 14.3755H86.4374V23.8525H89.1284V24.9055H84.9684V14.3755ZM90.2134 14.3755H91.6564V24.9055H90.2134V14.3755ZM92.84 14.3755H94.218L95.882 22.1365L97.468 14.3755H98.807L96.48 24.9055H95.193L92.84 14.3755ZM99.9235 14.3755H104.005V15.4675H101.392V18.9515H103.511V19.9915H101.392V23.8525H104.031V24.9055H99.9235V14.3755ZM105.217 14.3755H107.336C108.402 14.3755 109.182 14.5965 109.676 15.0385C110.179 15.4719 110.43 16.1825 110.43 17.1705C110.43 18.5225 109.997 19.3415 109.13 19.6275L110.625 24.9055H109.208L107.83 19.9655H106.686V24.9055H105.217V14.3755ZM107.245 18.9125C107.878 18.9125 108.329 18.7869 108.597 18.5355C108.875 18.2842 109.013 17.8292 109.013 17.1705C109.013 16.7372 108.966 16.3992 108.87 16.1565C108.775 15.9052 108.606 15.7232 108.363 15.6105C108.121 15.4892 107.778 15.4285 107.336 15.4285H106.686V18.9125H107.245ZM113.571 21.1875L111.296 14.3755H112.661L114.273 19.4585L115.859 14.3755H117.237L114.975 21.1875V24.9055H113.571V21.1875ZM72.819 29.3755H75.237C76.1903 29.3755 76.8967 29.5922 77.356 30.0255C77.8153 30.4502 78.045 31.1132 78.045 32.0145C78.045 33.3579 77.5423 34.0989 76.537 34.2375C77.161 34.3849 77.616 34.6795 77.902 35.1215C78.188 35.5549 78.331 36.1485 78.331 36.9025C78.331 37.8472 78.1057 38.5839 77.655 39.1125C77.213 39.6412 76.537 39.9055 75.627 39.9055H72.819V29.3755ZM75.159 33.7695C75.7657 33.7695 76.186 33.6395 76.42 33.3795C76.654 33.1109 76.771 32.6559 76.771 32.0145C76.771 31.5465 76.6973 31.2042 76.55 30.9875C76.4113 30.7622 76.199 30.6192 75.913 30.5585C75.627 30.4979 75.2023 30.4675 74.639 30.4675H74.288V33.7695H75.159ZM75.276 38.8525C75.7093 38.8525 76.043 38.7875 76.277 38.6575C76.5197 38.5189 76.6887 38.3109 76.784 38.0335C76.8793 37.7562 76.927 37.3792 76.927 36.9025C76.927 36.2265 76.7883 35.7239 76.511 35.3945C76.2337 35.0565 75.783 34.8875 75.159 34.8875H74.288V38.8525H75.276ZM82.3534 40.0225C81.6167 40.0225 81.0404 39.8752 80.6244 39.5805C80.217 39.2859 79.9354 38.8742 79.7794 38.3455C79.6234 37.8169 79.5454 37.1539 79.5454 36.3565V29.3755H80.9494V36.4215C80.9494 37.2189 81.0404 37.8255 81.2224 38.2415C81.413 38.6575 81.79 38.8655 82.3534 38.8655C82.9167 38.8655 83.2894 38.6575 83.4714 38.2415C83.662 37.8255 83.7574 37.2189 83.7574 36.4215V29.3755H85.1484V36.3565C85.1484 37.1539 85.0704 37.8169 84.9144 38.3455C84.7584 38.8742 84.4767 39.2859 84.0694 39.5805C83.662 39.8752 83.09 40.0225 82.3534 40.0225ZM89.178 40.0225C88.294 40.0225 87.618 39.7495 87.15 39.2035C86.6906 38.6575 86.435 37.9079 86.383 36.9545L87.683 36.6035C87.7263 37.2795 87.8563 37.8255 88.073 38.2415C88.2983 38.6575 88.6666 38.8655 89.178 38.8655C89.5593 38.8655 89.8453 38.7615 90.036 38.5535C90.2353 38.3369 90.335 38.0292 90.335 37.6305C90.335 37.1972 90.244 36.8375 90.062 36.5515C89.88 36.2655 89.5896 35.9492 89.191 35.6025L87.423 34.0425C87.0676 33.7305 86.8076 33.3969 86.643 33.0415C86.487 32.6775 86.409 32.2355 86.409 31.7155C86.409 30.9442 86.63 30.3462 87.072 29.9215C87.514 29.4969 88.1163 29.2845 88.879 29.2845C89.711 29.2845 90.3393 29.5055 90.764 29.9475C91.1886 30.3895 91.4443 31.0742 91.531 32.0015L90.283 32.3395C90.2396 31.7242 90.1183 31.2519 89.919 30.9225C89.7283 30.5845 89.3816 30.4155 88.879 30.4155C88.5063 30.4155 88.2203 30.5152 88.021 30.7145C87.8216 30.9052 87.722 31.1912 87.722 31.5725C87.722 31.8845 87.774 32.1489 87.878 32.3655C87.982 32.5735 88.1596 32.7859 88.411 33.0025L90.192 34.5625C90.6513 34.9699 91.0153 35.4119 91.284 35.8885C91.5613 36.3652 91.7 36.9069 91.7 37.5135C91.7 38.2849 91.466 38.8959 90.998 39.3465C90.53 39.7972 89.9233 40.0225 89.178 40.0225ZM75.458 55.0225C74.418 55.0225 73.6857 54.7149 73.261 54.0995C72.8363 53.4755 72.624 52.6175 72.624 51.5255V47.8075C72.624 46.6549 72.832 45.7795 73.248 45.1815C73.664 44.5835 74.4007 44.2845 75.458 44.2845C76.4027 44.2845 77.0787 44.5402 77.486 45.0515C77.902 45.5629 78.11 46.3169 78.11 47.3135V48.1455H76.719V47.4045C76.719 46.9192 76.6973 46.5465 76.654 46.2865C76.6107 46.0265 76.498 45.8185 76.316 45.6625C76.1427 45.5065 75.861 45.4285 75.471 45.4285C75.0723 45.4285 74.7733 45.5152 74.574 45.6885C74.3833 45.8532 74.2577 46.0872 74.197 46.3905C74.1363 46.6852 74.106 47.0839 74.106 47.5865V51.7595C74.106 52.2969 74.1493 52.7172 74.236 53.0205C74.3227 53.3239 74.4613 53.5405 74.652 53.6705C74.8513 53.8005 75.1243 53.8655 75.471 53.8655C75.8437 53.8655 76.121 53.7832 76.303 53.6185C76.485 53.4539 76.5977 53.2285 76.641 52.9425C76.693 52.6565 76.719 52.2665 76.719 51.7725V50.9925H78.11V51.7725C78.11 52.8212 77.9107 53.6272 77.512 54.1905C77.122 54.7452 76.4373 55.0225 75.458 55.0225ZM82.2004 55.0225C81.1691 55.0225 80.4281 54.7322 79.9774 54.1515C79.5354 53.5622 79.3144 52.7129 79.3144 51.6035V47.6125C79.3144 46.5205 79.5398 45.6929 79.9904 45.1295C80.4411 44.5662 81.1778 44.2845 82.2004 44.2845C83.2231 44.2845 83.9554 44.5705 84.3974 45.1425C84.8481 45.7059 85.0734 46.5292 85.0734 47.6125V51.6165C85.0734 52.7085 84.8481 53.5492 84.3974 54.1385C83.9468 54.7279 83.2144 55.0225 82.2004 55.0225ZM82.2004 53.8655C82.7464 53.8655 83.1148 53.7052 83.3054 53.3845C83.4961 53.0639 83.5914 52.5785 83.5914 51.9285V47.3135C83.5914 46.6722 83.4961 46.1999 83.3054 45.8965C83.1148 45.5845 82.7464 45.4285 82.2004 45.4285C81.6458 45.4285 81.2731 45.5845 81.0824 45.8965C80.8918 46.1999 80.7964 46.6722 80.7964 47.3135V51.9285C80.7964 52.5785 80.8918 53.0639 81.0824 53.3845C81.2731 53.7052 81.6458 53.8655 82.2004 53.8655ZM86.6862 44.3755H88.1292L89.9882 52.9165L91.8602 44.3755H93.2902L93.4852 54.9055H92.3022L92.1852 47.2615L90.4042 54.9055H89.5722L87.8042 47.2615L87.6872 54.9055H86.4912L86.6862 44.3755ZM95.0993 44.3755H97.7123C98.6223 44.3755 99.2809 44.6225 99.6883 45.1165C100.104 45.6105 100.312 46.3342 100.312 47.2875C100.312 48.1455 100.091 48.8129 99.6493 49.2895C99.2073 49.7662 98.5659 50.0045 97.7253 50.0045H96.5683V54.9055H95.0993V44.3755ZM97.2443 48.9515C97.6776 48.9515 98.0113 48.9039 98.2453 48.8085C98.4879 48.7132 98.6613 48.5485 98.7653 48.3145C98.8693 48.0805 98.9213 47.7425 98.9213 47.3005C98.9213 46.7632 98.8823 46.3689 98.8043 46.1175C98.7263 45.8662 98.5703 45.6885 98.3363 45.5845C98.1109 45.4805 97.7513 45.4285 97.2573 45.4285H96.5683V48.9515H97.2443ZM102.514 44.3755H103.931L106.18 54.9055H104.789L104.308 52.2535H102.163L101.656 54.9055H100.278L102.514 44.3755ZM104.113 51.2005L103.229 46.4555L102.358 51.2005H104.113ZM107.249 44.3755H108.25L111.24 51.3695V44.3755H112.462V54.9055H111.526L108.497 47.7165V54.9055H107.249V44.3755ZM115.729 51.1875L113.454 44.3755H114.819L116.431 49.4585L118.017 44.3755H119.395L117.133 51.1875V54.9055H115.729V51.1875Z" fill="white"/>
</svg>
