<svg width="15" height="15" viewBox="0 0 15 15" fill="none" xmlns="http://www.w3.org/2000/svg">
<path d="M0.654313 2.37533L2.6512 0.380578C2.89495 0.136858 3.2212 0 3.5662 0C3.9112 0 4.23745 0.134983 4.4812 0.380578L6.63184 2.52718C6.87559 2.7709 7.01247 3.09899 7.01247 3.44394C7.01247 3.79078 6.87746 4.11511 6.63184 4.36071L4.95183 6.04237C5.33455 6.93398 5.88445 7.74409 6.57184 8.42895C7.25997 9.12074 8.06434 9.66629 8.95685 10.0525L10.6369 8.37083C10.8806 8.12711 11.2069 7.99025 11.5519 7.99025C11.722 7.98962 11.8906 8.02296 12.0477 8.08831C12.2049 8.15366 12.3473 8.24971 12.4669 8.37083L14.6194 10.5174C14.8631 10.7612 15 11.0892 15 11.4342C15 11.781 14.865 12.1054 14.6194 12.351L12.6244 14.3457C12.2081 14.7619 11.6344 15 11.0456 15C10.9237 15 10.8056 14.9906 10.6856 14.97C8.2031 14.5613 5.73933 13.2396 3.74995 11.2523C1.76244 9.26134 0.442436 6.7979 0.0299339 4.31384C-0.0881916 3.60892 0.148061 2.88339 0.654313 2.37533V2.37533ZM1.35931 4.09074C1.72494 6.30109 2.9137 8.50581 4.70433 10.2962C6.49496 12.0866 8.6981 13.2752 10.9087 13.6408C11.1862 13.6877 11.4712 13.5939 11.6737 13.3933L13.6331 11.4342L11.5556 9.35508L9.30935 11.6048L9.29248 11.6217L8.88747 11.4717C7.65948 11.0203 6.54434 10.3072 5.61935 9.38204C4.69436 8.45685 3.98164 7.34161 3.53057 6.11361L3.38057 5.70866L5.64558 3.44582L3.56807 1.3667L1.60869 3.32583C1.40619 3.52831 1.31244 3.81327 1.35931 4.09074Z" fill="#2F3BAC"/>
</svg>
