<svg width="21" height="21" viewBox="0 0 21 21" fill="none" xmlns="http://www.w3.org/2000/svg">
<path d="M0.916039 3.32546L3.71168 0.532808C4.05293 0.191601 4.50968 0 4.99268 0C5.47568 0 5.93243 0.188976 6.27369 0.532808L9.28457 3.53806C9.62583 3.87927 9.81745 4.33858 9.81745 4.82152C9.81745 5.30709 9.62845 5.76116 9.28457 6.10499L6.93256 8.45932C7.46837 9.70757 8.23823 10.8417 9.20057 11.8005C10.164 12.769 11.2901 13.5328 12.5396 14.0735L14.8916 11.7192C15.2328 11.378 15.6896 11.1864 16.1726 11.1864C16.4108 11.1855 16.6469 11.2321 16.8668 11.3236C17.0868 11.4151 17.2863 11.5496 17.4536 11.7192L20.4671 14.7244C20.8084 15.0656 21 15.5249 21 16.0079C21 16.4934 20.811 16.9475 20.4671 17.2913L17.6741 20.084C17.0914 20.6667 16.2881 21 15.4639 21C15.2932 21 15.1278 20.9869 14.9598 20.958C11.4843 20.3858 8.03507 18.5354 5.24993 15.7533C2.46742 12.9659 0.619411 9.51706 0.0419083 6.03937C-0.123468 5.05249 0.207285 4.03675 0.916039 3.32546ZM1.90304 5.72703C2.41492 8.82152 4.07918 11.9081 6.58606 14.4147C9.09295 16.9213 12.1773 18.5853 15.2722 19.0971C15.6607 19.1627 16.0597 19.0315 16.3432 18.7507L19.0864 16.0079L16.1779 13.0971L13.0331 16.2467L13.0095 16.2703L12.4425 16.0604C10.7233 15.4284 9.16208 14.4301 7.86709 13.1349C6.5721 11.8396 5.57429 10.2782 4.9428 8.55906L4.7328 7.99213L7.90382 4.82415L4.9953 1.91339L2.25217 4.65617C1.96867 4.93963 1.83742 5.33858 1.90304 5.72703Z" fill="white"/>
</svg>
