<svg width="36" height="22" viewBox="0 0 36 22" fill="none" xmlns="http://www.w3.org/2000/svg">
<path d="M35.1746 1.48983C35.4261 0.630315 35.1746 0 33.9853 0H30.0454C29.043 0 28.5849 0.545287 28.3333 1.14418C28.3333 1.14418 26.3302 6.17006 23.4916 9.42883C22.5754 10.3771 22.1568 10.6765 21.6574 10.6765C21.4076 10.6765 21.0447 10.3771 21.0447 9.51756V1.48983C21.0447 0.458411 20.7555 0 19.9201 0H13.7292C13.104 0 12.7267 0.476895 12.7267 0.931608C12.7267 1.90758 14.146 2.13309 14.2915 4.88355V10.8503C14.2915 12.1571 14.0634 12.3956 13.5603 12.3956C12.2255 12.3956 8.97734 7.3512 7.04965 1.57671C6.67417 0.454714 6.2951 0.00184918 5.28903 0.00184918H1.351C0.224568 0.00184918 0 0.547136 0 1.14603C0 2.22181 1.33483 7.54529 6.21785 14.586C9.47319 19.3937 14.0562 22 18.2314 22C20.7339 22 21.0429 21.4214 21.0429 20.4233V16.7893C21.0429 15.6322 21.2819 15.3993 22.0742 15.3993C22.6562 15.3993 23.6587 15.7024 25.996 18.0185C28.6657 20.7652 29.1076 21.9982 30.6078 21.9982H34.5458C35.6704 21.9982 36.2328 21.4196 35.9094 20.2773C35.5555 19.1405 34.2799 17.4861 32.5876 15.5286C31.6677 14.4122 30.2934 13.2107 29.8748 12.61C29.2909 11.8355 29.4598 11.4935 29.8748 10.8059C29.8766 10.8078 34.6751 3.85397 35.1746 1.48983Z" fill="white"/>
</svg>
