<svg width="21" height="24" viewBox="0 0 21 24" fill="none" xmlns="http://www.w3.org/2000/svg">
<path d="M13.09 15.4286C17.745 15.4286 21 12.2433 21 7.66452C21 3.08571 17.745 0 13.09 0H4.15625C3.79384 0 3.5 0.287839 3.5 0.642857V11.7124H0.65625C0.293836 11.7124 0 12.0003 0 12.3553V14.7857C0 15.1407 0.293836 15.4286 0.65625 15.4286H3.5V17.1429H0.65625C0.293836 17.1429 0 17.4307 0 17.7857V19.9286C0 20.2836 0.293836 20.5714 0.65625 20.5714H3.5V23.3571C3.5 23.7122 3.79384 24 4.15625 24H7.35875C7.72116 24 8.015 23.7122 8.015 23.3571V20.5714H16.8438C17.2062 20.5714 17.5 20.2836 17.5 19.9286V17.7857C17.5 17.4307 17.2062 17.1429 16.8438 17.1429H8.015V15.4286H13.09ZM8.015 3.68293H12.32C14.875 3.68293 16.415 5.24239 16.415 7.66452C16.415 10.1198 14.875 11.7124 12.25 11.7124H8.015V3.68293Z" fill="#475DA8"/>
</svg>
