<svg width="70" height="70" viewBox="0 0 70 70" fill="none" xmlns="http://www.w3.org/2000/svg">
<path d="M68.8333 11.0834H56V1.75004C56 1.10546 55.4779 0.583374 54.8333 0.583374H15.1667C14.5221 0.583374 14 1.10546 14 1.75004V18.0834H1.16667C0.522083 18.0834 0 18.6055 0 19.25V67.0834C0 67.728 0.522083 68.25 1.16667 68.25C1.81125 68.25 2.33333 67.728 2.33333 67.0834V20.4167H14V68.25C14 68.8946 14.5221 69.4167 15.1667 69.4167H54.8333C55.4779 69.4167 56 68.8946 56 68.25V13.4167H67.6667V67.0834C67.6667 67.728 68.1888 68.25 68.8333 68.25C69.4779 68.25 70 67.728 70 67.0834V12.25C70 11.6055 69.4779 11.0834 68.8333 11.0834ZM33.8333 67.0834H29.1667V56.5834H33.8333V67.0834ZM40.8333 67.0834H36.1667V56.5834H40.8333V67.0834ZM53.6667 67.0834H43.1667V55.4167C43.1667 54.7721 42.6446 54.25 42 54.25H28C27.3554 54.25 26.8333 54.7721 26.8333 55.4167V67.0834H16.3333V2.91671H53.6667V67.0834Z" fill="white"/>
<path d="M26.8327 5.25H19.8327C19.1881 5.25 18.666 5.77208 18.666 6.41667V13.4167C18.666 14.0612 19.1881 14.5833 19.8327 14.5833H26.8327C27.4773 14.5833 27.9993 14.0612 27.9993 13.4167V6.41667C27.9993 5.77208 27.4773 5.25 26.8327 5.25ZM25.666 12.25H20.9993V7.58333H25.666V12.25Z" fill="white"/>
<path d="M38.5007 5.25H31.5007C30.8561 5.25 30.334 5.77208 30.334 6.41667V13.4167C30.334 14.0612 30.8561 14.5833 31.5007 14.5833H38.5007C39.1452 14.5833 39.6673 14.0612 39.6673 13.4167V6.41667C39.6673 5.77208 39.1452 5.25 38.5007 5.25ZM37.334 12.25H32.6673V7.58333H37.334V12.25Z" fill="white"/>
<path d="M50.1667 5.25H43.1667C42.5221 5.25 42 5.77208 42 6.41667V13.4167C42 14.0612 42.5221 14.5833 43.1667 14.5833H50.1667C50.8113 14.5833 51.3333 14.0612 51.3333 13.4167V6.41667C51.3333 5.77208 50.8113 5.25 50.1667 5.25ZM49 12.25H44.3333V7.58333H49V12.25Z" fill="white"/>
<path d="M26.8327 16.9167H19.8327C19.1881 16.9167 18.666 17.4388 18.666 18.0834V25.0834C18.666 25.728 19.1881 26.2501 19.8327 26.2501H26.8327C27.4773 26.2501 27.9993 25.728 27.9993 25.0834V18.0834C27.9993 17.4388 27.4773 16.9167 26.8327 16.9167ZM25.666 23.9167H20.9993V19.2501H25.666V23.9167Z" fill="white"/>
<path d="M38.5007 16.9167H31.5007C30.8561 16.9167 30.334 17.4388 30.334 18.0834V25.0834C30.334 25.728 30.8561 26.2501 31.5007 26.2501H38.5007C39.1452 26.2501 39.6673 25.728 39.6673 25.0834V18.0834C39.6673 17.4388 39.1452 16.9167 38.5007 16.9167ZM37.334 23.9167H32.6673V19.2501H37.334V23.9167Z" fill="white"/>
<path d="M50.1667 16.9167H43.1667C42.5221 16.9167 42 17.4388 42 18.0834V25.0834C42 25.728 42.5221 26.2501 43.1667 26.2501H50.1667C50.8113 26.2501 51.3333 25.728 51.3333 25.0834V18.0834C51.3333 17.4388 50.8113 16.9167 50.1667 16.9167ZM49 23.9167H44.3333V19.2501H49V23.9167Z" fill="white"/>
<path d="M26.8327 28.5834H19.8327C19.1881 28.5834 18.666 29.1055 18.666 29.75V36.75C18.666 37.3946 19.1881 37.9167 19.8327 37.9167H26.8327C27.4773 37.9167 27.9993 37.3946 27.9993 36.75V29.75C27.9993 29.1055 27.4773 28.5834 26.8327 28.5834ZM25.666 35.5834H20.9993V30.9167H25.666V35.5834Z" fill="white"/>
<path d="M38.5007 28.5834H31.5007C30.8561 28.5834 30.334 29.1055 30.334 29.75V36.75C30.334 37.3946 30.8561 37.9167 31.5007 37.9167H38.5007C39.1452 37.9167 39.6673 37.3946 39.6673 36.75V29.75C39.6673 29.1055 39.1452 28.5834 38.5007 28.5834ZM37.334 35.5834H32.6673V30.9167H37.334V35.5834Z" fill="white"/>
<path d="M50.1667 28.5834H43.1667C42.5221 28.5834 42 29.1055 42 29.75V36.75C42 37.3946 42.5221 37.9167 43.1667 37.9167H50.1667C50.8113 37.9167 51.3333 37.3946 51.3333 36.75V29.75C51.3333 29.1055 50.8113 28.5834 50.1667 28.5834ZM49 35.5834H44.3333V30.9167H49V35.5834Z" fill="white"/>
<path d="M26.8327 40.25H19.8327C19.1881 40.25 18.666 40.7721 18.666 41.4167V48.4167C18.666 49.0612 19.1881 49.5833 19.8327 49.5833H26.8327C27.4773 49.5833 27.9993 49.0612 27.9993 48.4167V41.4167C27.9993 40.7721 27.4773 40.25 26.8327 40.25ZM25.666 47.25H20.9993V42.5833H25.666V47.25Z" fill="white"/>
<path d="M38.5007 40.25H31.5007C30.8561 40.25 30.334 40.7721 30.334 41.4167V48.4167C30.334 49.0612 30.8561 49.5833 31.5007 49.5833H38.5007C39.1452 49.5833 39.6673 49.0612 39.6673 48.4167V41.4167C39.6673 40.7721 39.1452 40.25 38.5007 40.25ZM37.334 47.25H32.6673V42.5833H37.334V47.25Z" fill="white"/>
<path d="M50.1667 40.25H43.1667C42.5221 40.25 42 40.7721 42 41.4167V48.4167C42 49.0612 42.5221 49.5833 43.1667 49.5833H50.1667C50.8113 49.5833 51.3333 49.0612 51.3333 48.4167V41.4167C51.3333 40.7721 50.8113 40.25 50.1667 40.25ZM49 47.25H44.3333V42.5833H49V47.25Z" fill="white"/>
<path d="M6.99935 22.75H5.83268C5.1881 22.75 4.66602 23.2721 4.66602 23.9167V25.0833C4.66602 25.7279 5.1881 26.25 5.83268 26.25H6.99935C7.64393 26.25 8.16602 25.7279 8.16602 25.0833V23.9167C8.16602 23.2721 7.64393 22.75 6.99935 22.75Z" fill="white"/>
<path d="M11.6673 22.75H10.5007C9.85607 22.75 9.33398 23.2721 9.33398 23.9167V25.0833C9.33398 25.7279 9.85607 26.25 10.5007 26.25H11.6673C12.3119 26.25 12.834 25.7279 12.834 25.0833V23.9167C12.834 23.2721 12.3119 22.75 11.6673 22.75Z" fill="white"/>
<path d="M6.99935 27.4167H5.83268C5.1881 27.4167 4.66602 27.9388 4.66602 28.5834V29.7501C4.66602 30.3947 5.1881 30.9167 5.83268 30.9167H6.99935C7.64393 30.9167 8.16602 30.3947 8.16602 29.7501V28.5834C8.16602 27.9388 7.64393 27.4167 6.99935 27.4167Z" fill="white"/>
<path d="M11.6673 27.4167H10.5007C9.85607 27.4167 9.33398 27.9388 9.33398 28.5834V29.7501C9.33398 30.3947 9.85607 30.9167 10.5007 30.9167H11.6673C12.3119 30.9167 12.834 30.3947 12.834 29.7501V28.5834C12.834 27.9388 12.3119 27.4167 11.6673 27.4167Z" fill="white"/>
<path d="M6.99935 32.0834H5.83268C5.1881 32.0834 4.66602 32.6055 4.66602 33.25V34.4167C4.66602 35.0613 5.1881 35.5834 5.83268 35.5834H6.99935C7.64393 35.5834 8.16602 35.0613 8.16602 34.4167V33.25C8.16602 32.6055 7.64393 32.0834 6.99935 32.0834Z" fill="white"/>
<path d="M11.6673 32.0834H10.5007C9.85607 32.0834 9.33398 32.6055 9.33398 33.25V34.4167C9.33398 35.0613 9.85607 35.5834 10.5007 35.5834H11.6673C12.3119 35.5834 12.834 35.0613 12.834 34.4167V33.25C12.834 32.6055 12.3119 32.0834 11.6673 32.0834Z" fill="white"/>
<path d="M6.99935 36.75H5.83268C5.1881 36.75 4.66602 37.2721 4.66602 37.9167V39.0833C4.66602 39.7279 5.1881 40.25 5.83268 40.25H6.99935C7.64393 40.25 8.16602 39.7279 8.16602 39.0833V37.9167C8.16602 37.2721 7.64393 36.75 6.99935 36.75Z" fill="white"/>
<path d="M11.6673 36.75H10.5007C9.85607 36.75 9.33398 37.2721 9.33398 37.9167V39.0833C9.33398 39.7279 9.85607 40.25 10.5007 40.25H11.6673C12.3119 40.25 12.834 39.7279 12.834 39.0833V37.9167C12.834 37.2721 12.3119 36.75 11.6673 36.75Z" fill="white"/>
<path d="M6.99935 41.4167H5.83268C5.1881 41.4167 4.66602 41.9388 4.66602 42.5834V43.7501C4.66602 44.3947 5.1881 44.9167 5.83268 44.9167H6.99935C7.64393 44.9167 8.16602 44.3947 8.16602 43.7501V42.5834C8.16602 41.9388 7.64393 41.4167 6.99935 41.4167Z" fill="white"/>
<path d="M11.6673 41.4167H10.5007C9.85607 41.4167 9.33398 41.9388 9.33398 42.5834V43.7501C9.33398 44.3947 9.85607 44.9167 10.5007 44.9167H11.6673C12.3119 44.9167 12.834 44.3947 12.834 43.7501V42.5834C12.834 41.9388 12.3119 41.4167 11.6673 41.4167Z" fill="white"/>
<path d="M6.99935 46.0834H5.83268C5.1881 46.0834 4.66602 46.6055 4.66602 47.25V48.4167C4.66602 49.0613 5.1881 49.5834 5.83268 49.5834H6.99935C7.64393 49.5834 8.16602 49.0613 8.16602 48.4167V47.25C8.16602 46.6055 7.64393 46.0834 6.99935 46.0834Z" fill="white"/>
<path d="M11.6673 46.0834H10.5007C9.85607 46.0834 9.33398 46.6055 9.33398 47.25V48.4167C9.33398 49.0613 9.85607 49.5834 10.5007 49.5834H11.6673C12.3119 49.5834 12.834 49.0613 12.834 48.4167V47.25C12.834 46.6055 12.3119 46.0834 11.6673 46.0834Z" fill="white"/>
<path d="M6.99935 50.75H5.83268C5.1881 50.75 4.66602 51.2721 4.66602 51.9167V53.0833C4.66602 53.7279 5.1881 54.25 5.83268 54.25H6.99935C7.64393 54.25 8.16602 53.7279 8.16602 53.0833V51.9167C8.16602 51.2721 7.64393 50.75 6.99935 50.75Z" fill="white"/>
<path d="M11.6673 50.75H10.5007C9.85607 50.75 9.33398 51.2721 9.33398 51.9167V53.0833C9.33398 53.7279 9.85607 54.25 10.5007 54.25H11.6673C12.3119 54.25 12.834 53.7279 12.834 53.0833V51.9167C12.834 51.2721 12.3119 50.75 11.6673 50.75Z" fill="white"/>
<path d="M6.99935 55.4167H5.83268C5.1881 55.4167 4.66602 55.9388 4.66602 56.5834V57.7501C4.66602 58.3947 5.1881 58.9167 5.83268 58.9167H6.99935C7.64393 58.9167 8.16602 58.3947 8.16602 57.7501V56.5834C8.16602 55.9388 7.64393 55.4167 6.99935 55.4167Z" fill="white"/>
<path d="M11.6673 55.4167H10.5007C9.85607 55.4167 9.33398 55.9388 9.33398 56.5834V57.7501C9.33398 58.3947 9.85607 58.9167 10.5007 58.9167H11.6673C12.3119 58.9167 12.834 58.3947 12.834 57.7501V56.5834C12.834 55.9388 12.3119 55.4167 11.6673 55.4167Z" fill="white"/>
<path d="M6.99935 60.0834H5.83268C5.1881 60.0834 4.66602 60.6055 4.66602 61.25V62.4167C4.66602 63.0613 5.1881 63.5834 5.83268 63.5834H6.99935C7.64393 63.5834 8.16602 63.0613 8.16602 62.4167V61.25C8.16602 60.6055 7.64393 60.0834 6.99935 60.0834Z" fill="white"/>
<path d="M11.6673 60.0834H10.5007C9.85607 60.0834 9.33398 60.6055 9.33398 61.25V62.4167C9.33398 63.0613 9.85607 63.5834 10.5007 63.5834H11.6673C12.3119 63.5834 12.834 63.0613 12.834 62.4167V61.25C12.834 60.6055 12.3119 60.0834 11.6673 60.0834Z" fill="white"/>
<path d="M64.1673 15.75H59.5007C58.8561 15.75 58.334 16.2721 58.334 16.9167V21.5833C58.334 22.2279 58.8561 22.75 59.5007 22.75H64.1673C64.8119 22.75 65.334 22.2279 65.334 21.5833V16.9167C65.334 16.2721 64.8119 15.75 64.1673 15.75ZM63.0007 20.4167H60.6673V18.0833H63.0007V20.4167Z" fill="white"/>
<path d="M64.1673 25.0834H59.5007C58.8561 25.0834 58.334 25.6055 58.334 26.25V30.9167C58.334 31.5613 58.8561 32.0834 59.5007 32.0834H64.1673C64.8119 32.0834 65.334 31.5613 65.334 30.9167V26.25C65.334 25.6055 64.8119 25.0834 64.1673 25.0834ZM63.0007 29.75H60.6673V27.4167H63.0007V29.75Z" fill="white"/>
<path d="M64.1673 34.4167H59.5007C58.8561 34.4167 58.334 34.9388 58.334 35.5834V40.2501C58.334 40.8947 58.8561 41.4167 59.5007 41.4167H64.1673C64.8119 41.4167 65.334 40.8947 65.334 40.2501V35.5834C65.334 34.9388 64.8119 34.4167 64.1673 34.4167ZM63.0007 39.0834H60.6673V36.7501H63.0007V39.0834Z" fill="white"/>
<path d="M64.1673 43.75H59.5007C58.8561 43.75 58.334 44.2721 58.334 44.9167V49.5833C58.334 50.2279 58.8561 50.75 59.5007 50.75H64.1673C64.8119 50.75 65.334 50.2279 65.334 49.5833V44.9167C65.334 44.2721 64.8119 43.75 64.1673 43.75ZM63.0007 48.4167H60.6673V46.0833H63.0007V48.4167Z" fill="white"/>
<path d="M64.1673 53.0834H59.5007C58.8561 53.0834 58.334 53.6055 58.334 54.25V58.9167C58.334 59.5613 58.8561 60.0834 59.5007 60.0834H64.1673C64.8119 60.0834 65.334 59.5613 65.334 58.9167V54.25C65.334 53.6055 64.8119 53.0834 64.1673 53.0834ZM63.0007 57.75H60.6673V55.4167H63.0007V57.75Z" fill="white"/>
</svg>
