<svg width="70" height="62" viewBox="0 0 70 62" fill="none" xmlns="http://www.w3.org/2000/svg">
<path d="M66.5 12.3333H53.6667V8.83329C53.6608 4.32558 50.0077 0.671001 45.5 0.666626H24.5C19.9923 0.671001 16.3392 4.32558 16.3333 8.83329V12.3333H3.5C1.56625 12.3333 0 13.901 0 15.8333V39.1666C0.00583333 40.6439 0.940625 41.9593 2.33333 42.4523V57.8333C2.33333 59.767 3.89958 61.3333 5.83333 61.3333H64.1667C66.1004 61.3333 67.6667 59.767 67.6667 57.8333V42.4523C69.0594 41.9593 69.9942 40.6454 70 39.1666V15.8333C70 13.901 68.4337 12.3333 66.5 12.3333ZM18.6667 8.83329C18.671 5.61329 21.28 3.00433 24.5 2.99996H45.5C48.72 3.00433 51.329 5.61329 51.3333 8.83329V12.3333H48.9533L49 8.83329C48.9956 6.90246 47.4308 5.33767 45.5 5.33329H24.4562C22.5254 5.33767 20.9606 6.90246 20.9562 8.83329V8.84496L20.9883 12.3333H18.6667V8.83329ZM46.6667 8.81725L46.62 12.3333H23.3217L23.2852 8.83329C23.2852 8.18871 23.8073 7.66663 24.4519 7.66663H45.5C46.1387 7.66663 46.6579 8.1785 46.6667 8.81725ZM65.3333 57.8333C65.3333 58.4779 64.8112 59 64.1667 59H5.83333C5.18875 59 4.66667 58.4779 4.66667 57.8333V42.6666H12.8333V46.1666C12.8333 46.8112 13.3554 47.3333 14 47.3333H18.6667C19.3112 47.3333 19.8333 46.8112 19.8333 46.1666V42.6666H50.1667V46.1666C50.1667 46.8112 50.6887 47.3333 51.3333 47.3333H56C56.6446 47.3333 57.1667 46.8112 57.1667 46.1666V42.6666H65.3333V57.8333ZM15.1667 45V39.1666C15.1667 38.8516 15.2965 38.5512 15.5254 38.3354C15.7383 38.1181 16.03 37.9956 16.3333 38C16.9779 38 17.5 38.522 17.5 39.1666V41.5V45H15.1667ZM52.5 45V39.1666C52.5 38.522 53.0221 38 53.6667 38C53.9817 37.9985 54.2821 38.1283 54.4979 38.3573C54.7137 38.5702 54.8348 38.8633 54.8333 39.1666V41.5V45H52.5ZM67.6667 39.1666C67.6667 39.8112 67.1446 40.3333 66.5 40.3333H57.1667V39.1666C57.1579 37.2373 55.596 35.6754 53.6667 35.6666C51.7329 35.6666 50.1667 37.2329 50.1667 39.1666V40.3333H19.8333V39.1666C19.8333 37.2329 18.2656 35.6666 16.3333 35.6666C14.4054 35.6768 12.8435 37.2387 12.8333 39.1666V40.3333H3.5C2.85542 40.3333 2.33333 39.8112 2.33333 39.1666V15.8333C2.33333 15.1887 2.85542 14.6666 3.5 14.6666H66.5C67.1446 14.6666 67.6667 15.1887 67.6667 15.8333V39.1666Z" fill="white"/>
</svg>
