<svg width="70" height="70" viewBox="0 0 70 70" fill="none" xmlns="http://www.w3.org/2000/svg">
<path d="M69.6992 18.9314L65.316 14.5468C65.1232 14.3541 64.8635 14.2461 64.5914 14.2461H61.4824L22.1963 0.0614915C21.9242 -0.036946 21.6234 -0.0150709 21.3678 0.120281L2.9627 9.86286H2.12188C0.951563 9.86286 0 10.8158 0 11.9847V18.5609C0 19.6957 0.895508 20.6213 2.0166 20.6773C2.05078 20.6814 2.08633 20.6828 2.12188 20.6828H13.1523V28.4252C13.1523 29.2236 13.5953 29.9195 14.2488 30.2804V63.566H13.0826C12.5166 63.566 12.0572 64.0254 12.0572 64.5914V67.9492H10.891C10.325 67.9492 9.86563 68.4086 9.86563 68.9746C9.86563 69.5406 10.325 70 10.891 70H26.235C26.801 70 27.2604 69.5406 27.2604 68.9746C27.2604 68.4086 26.801 67.9492 26.235 67.9492H25.0688V64.5914C25.0688 64.0254 24.6094 63.566 24.0434 63.566H22.8771V30.3857C23.5033 30.13 23.9846 29.5832 24.1391 28.8832L25.9615 20.6814H50.3453C50.9113 20.6814 51.3707 20.222 51.3707 19.656C51.3707 19.09 50.9113 18.6306 50.3453 18.6306H21.0369L23.3707 16.2968H55.8947V18.6306H54.7285C54.1625 18.6306 53.7031 19.09 53.7031 19.656C53.7031 20.222 54.1625 20.6814 54.7285 20.6814H55.8947V31.7119C55.8947 33.1269 56.8135 34.3314 58.0863 34.7607V36.255C58.0863 37.1847 58.6469 37.9968 59.4822 38.2771C59.958 38.4371 60.2779 38.8814 60.2779 39.3845C60.2779 40.0271 59.7543 40.5508 59.1117 40.5508C58.4691 40.5508 57.9455 40.0271 57.9455 39.3845C57.9455 38.8185 57.4861 38.3591 56.9201 38.3591C56.3541 38.3591 55.8947 38.8185 55.8947 39.3845C55.8947 41.1591 57.3385 42.6015 59.1117 42.6015C60.885 42.6015 62.3287 41.1578 62.3287 39.3845C62.3287 38.0078 61.4578 36.7882 60.1576 36.3412C60.148 36.3248 60.1371 36.292 60.1371 36.255V34.7607C61.41 34.3314 62.3287 33.1269 62.3287 31.7119V20.6814H68.9746C69.3889 20.6814 69.7635 20.4312 69.9221 20.0484C70.0807 19.6656 69.9932 19.2254 69.6992 18.9314ZM20.8236 2.72887V7.81345L18.0947 4.17399L20.8236 2.72887ZM16.2982 5.19802L19.7982 9.86423H16.2982V5.19802ZM20.8236 11.9136V15.9427L20.5516 16.2162L17.325 11.9136H20.8236ZM16.2982 13.9658L19.0859 17.6818L18.1357 18.632H16.2982V13.9658ZM15.2633 20.6814C15.266 20.6814 15.2688 20.6814 15.2729 20.6814C15.277 20.6814 15.2783 20.6814 15.2824 20.6814H17.5355V25.1357C17.5355 25.7017 17.9949 26.1611 18.5609 26.1611H22.6406L22.1348 28.4388C22.1279 28.4716 22.0992 28.4935 22.0664 28.4935H15.2742C15.2346 28.4935 15.2031 28.4621 15.2031 28.4224V20.68L15.2633 20.6814ZM19.7982 46.0304H16.2982V41.3642L19.7982 46.0304ZM17.3236 56.849H20.8236V61.5152L17.3236 56.849ZM19.7982 63.566H16.2982V58.8998L19.7982 63.566ZM16.2982 54.7982V50.132L19.7982 54.7982H16.2982ZM17.3236 48.0812H20.8236V52.7474L17.3236 48.0812ZM17.3236 39.3134H20.8236V43.9797L17.3236 39.3134ZM16.2982 37.2627V32.5965L19.7982 37.2627H16.2982ZM17.3236 30.5457H20.8236V35.2119L17.3236 30.5457ZM9.86289 14.2474H9.79316C9.22715 14.2474 8.76777 14.7068 8.76777 15.2728C8.76777 15.8388 9.22715 16.2982 9.79316 16.2982H9.86289V18.6306H2.12188C2.08359 18.6306 2.05078 18.5992 2.05078 18.5595V16.2968H5.40859C5.97461 16.2968 6.43398 15.8375 6.43398 15.2715C6.43398 14.7054 5.97461 14.2461 5.40859 14.2461H2.05078V11.9847C2.05078 11.9451 2.08223 11.9136 2.12188 11.9136H9.79316C9.83281 11.9136 9.86426 11.9451 9.86426 11.9847V14.2474H9.86289ZM14.1764 18.632H11.9137V11.9847C11.9137 10.8144 10.9621 9.86286 9.7918 9.86286H7.34453L14.2461 6.20837V10.8869V10.8882V10.8896V18.6306H14.1764V18.632ZM23.0152 65.6168V67.9492H14.1066V65.6168H23.0152ZM23.8588 20.6814L23.0973 24.1103H19.5877V20.6814H23.8588ZM22.9441 14.2474C22.9209 14.2474 22.8977 14.2488 22.873 14.2515V2.48551L55.4436 14.2474H22.9441ZM57.9441 20.6814H60.2766V28.7136C59.9143 28.5728 59.5219 28.4935 59.1104 28.4935C58.6988 28.4935 58.3051 28.5715 57.9441 28.7136V20.6814ZM59.1117 32.8781C58.4691 32.8781 57.9455 32.3545 57.9455 31.7119C57.9455 31.0693 58.4691 30.5457 59.1117 30.5457C59.7543 30.5457 60.2779 31.0693 60.2779 31.7119C60.2779 32.3558 59.7543 32.8781 59.1117 32.8781ZM60.2779 18.6306H57.9455V16.2982H60.2779V18.6306ZM62.3287 18.6306V16.2982H64.1662L66.4986 18.6306H62.3287Z" fill="white"/>
</svg>
