<svg width="70" height="70" viewBox="0 0 70 70" fill="none" xmlns="http://www.w3.org/2000/svg">
<g clip-path="url(#clip0)">
<path d="M31.3685 20.0047L30.6918 11.8781C30.648 11.3463 30.2037 10.9375 29.6705 10.9375H28.6451V9.91211C28.6451 8.21543 27.2656 6.83594 25.5689 6.83594C23.8722 6.83594 22.4928 8.21543 22.4928 9.91211V10.9375H21.4674C20.941 10.9375 20.4994 11.3367 20.4474 11.8604L19.6271 20.0635C19.5984 20.352 19.6928 20.6391 19.8869 20.8537C20.081 21.0684 20.3572 21.1914 20.6471 21.1914H30.3541C30.3554 21.1914 30.3554 21.1914 30.3568 21.1914C30.9228 21.1914 31.3822 20.732 31.3822 20.166C31.3808 20.1113 31.3767 20.0566 31.3685 20.0047ZM24.5422 9.91211C24.5422 9.34609 25.0015 8.88672 25.5676 8.88672C26.1336 8.88672 26.5929 9.34609 26.5929 9.91211V10.9375H24.5422V9.91211ZM21.7791 19.1406L22.3943 12.9883H28.7258L29.2385 19.1406H21.7791Z" fill="white"/>
<path d="M58.5768 9.12598C58.574 9.10137 58.5699 9.07676 58.5658 9.05215C58.5644 9.04395 58.5631 9.03437 58.5617 9.02617C58.5562 8.99746 58.548 8.96875 58.5398 8.94004C58.5385 8.93594 58.5385 8.93184 58.5371 8.9291C58.5289 8.90039 58.518 8.87168 58.507 8.84434C58.5057 8.8416 58.5043 8.8375 58.5029 8.83477C58.492 8.80879 58.4797 8.78281 58.466 8.75684C58.4633 8.75274 58.4619 8.74727 58.4592 8.74316C58.4469 8.71992 58.4332 8.69668 58.4182 8.6748C58.4141 8.66934 58.4113 8.6625 58.4072 8.65703C58.3922 8.63516 58.3771 8.61465 58.3621 8.59551C58.3566 8.59004 58.3525 8.5832 58.3484 8.57637C58.3266 8.55039 58.3047 8.52578 58.2814 8.50254L50.0797 0.299414C50.0564 0.276172 50.0305 0.25293 50.0045 0.232422C49.9977 0.226953 49.9908 0.222852 49.984 0.217383C49.9648 0.202344 49.9443 0.187305 49.9238 0.173633C49.917 0.169531 49.9102 0.16543 49.9047 0.161328C49.8828 0.147656 49.8609 0.133984 49.8391 0.12168C49.8336 0.118945 49.8281 0.116211 49.824 0.114844C49.7994 0.102539 49.7748 0.0902344 49.7488 0.0792969C49.7447 0.0779297 49.742 0.0765625 49.7379 0.0751953C49.7105 0.0642578 49.6832 0.0533203 49.6545 0.0451172C49.6504 0.04375 49.6463 0.04375 49.6422 0.0423828C49.6148 0.0341797 49.5861 0.0273438 49.5574 0.0205078C49.5492 0.0191406 49.5396 0.0177734 49.5314 0.0164062C49.5068 0.0123047 49.4822 0.00820312 49.4576 0.00546875C49.4234 0.00136719 49.3893 0 49.3537 0H12.4424C11.8764 0 11.417 0.459375 11.417 1.02539V63.0246C11.417 63.5906 11.8764 64.05 12.4424 64.05H35.6846C36.2506 64.05 36.71 63.5906 36.71 63.0246C36.71 62.4586 36.2506 61.9992 35.6846 61.9992H13.4678V2.05078H48.3297V9.22852C48.3297 9.79453 48.7891 10.2539 49.3551 10.2539H56.5328V61.9992H50.725C50.159 61.9992 49.6996 62.4586 49.6996 63.0246C49.6996 63.5906 50.159 64.05 50.725 64.05H57.5582C58.1242 64.05 58.5836 63.5906 58.5836 63.0246V9.22852C58.5822 9.19434 58.5809 9.16016 58.5768 9.12598ZM50.3791 8.20312V3.50137L55.0822 8.20312H50.3791Z" fill="white"/>
<path d="M49.3537 29.1881H20.6455C20.0795 29.1881 19.6201 29.6475 19.6201 30.2135C19.6201 30.7795 20.0795 31.2389 20.6455 31.2389H49.3551C49.9211 31.2389 50.3805 30.7795 50.3805 30.2135C50.3805 29.6475 49.9211 29.1881 49.3537 29.1881Z" fill="white"/>
<path d="M49.3537 34.6582H20.6455C20.0795 34.6582 19.6201 35.1176 19.6201 35.6836C19.6201 36.2496 20.0795 36.709 20.6455 36.709H49.3551C49.9211 36.709 50.3805 36.2496 50.3805 35.6836C50.3791 35.1176 49.9211 34.6582 49.3537 34.6582Z" fill="white"/>
<path d="M49.3537 40.127H20.6455C20.0795 40.127 19.6201 40.5863 19.6201 41.1523C19.6201 41.7184 20.0795 42.1777 20.6455 42.1777H49.3551C49.9211 42.1777 50.3805 41.7184 50.3805 41.1523C50.3805 40.5863 49.9211 40.127 49.3537 40.127Z" fill="white"/>
<path d="M32.9488 45.5957H20.6455C20.0795 45.5957 19.6201 46.0551 19.6201 46.6211C19.6201 47.1871 20.0795 47.6465 20.6455 47.6465H32.9488C33.5148 47.6465 33.9742 47.1871 33.9742 46.6211C33.9742 46.0551 33.5148 45.5957 32.9488 45.5957Z" fill="white"/>
<path d="M50.3818 55.5078C50.3818 51.5498 47.1621 48.3301 43.2041 48.3301C39.2461 48.3301 36.0264 51.5498 36.0264 55.5078C36.0264 57.7883 37.0969 59.8227 38.7607 61.1393V68.9746C38.7607 68.9855 38.7621 68.9965 38.7621 69.0074C38.7635 69.0279 38.7635 69.0484 38.7648 69.0703C38.7662 69.0854 38.7689 69.099 38.7703 69.1141C38.773 69.1332 38.7758 69.151 38.7785 69.1701C38.7813 69.1852 38.7854 69.2016 38.7895 69.2166C38.7936 69.2344 38.7977 69.2508 38.8031 69.2672C38.8086 69.2836 38.8141 69.2986 38.8195 69.315C38.825 69.3301 38.8305 69.3465 38.8373 69.3615C38.8441 69.3779 38.851 69.393 38.8592 69.4094C38.866 69.423 38.8729 69.4381 38.8797 69.4518C38.8893 69.4682 38.8988 69.4846 38.9084 69.501C38.9152 69.5133 38.9234 69.5256 38.9316 69.5379C38.9426 69.5557 38.9549 69.5721 38.9672 69.5885C38.974 69.598 38.9795 69.6062 38.9863 69.6158C38.9877 69.6172 38.9891 69.6186 38.9904 69.6213C39.0137 69.65 39.0383 69.6773 39.0643 69.7033C39.0711 69.7102 39.0793 69.717 39.0875 69.7238C39.1066 69.7416 39.1258 69.7594 39.1449 69.7744C39.1572 69.784 39.1695 69.7936 39.1818 69.8018C39.1982 69.8141 39.216 69.8264 39.2324 69.8373C39.2461 69.8455 39.2584 69.8537 39.2721 69.8619C39.2898 69.8728 39.309 69.8824 39.3281 69.892C39.3404 69.8988 39.3541 69.9043 39.3678 69.9111C39.3883 69.9207 39.4102 69.9289 39.432 69.9371C39.4443 69.9412 39.4553 69.9467 39.4676 69.9494C39.4922 69.9576 39.5168 69.9645 39.5414 69.9699C39.551 69.9727 39.5605 69.9754 39.5715 69.9781C39.5988 69.9836 39.6275 69.9891 39.6562 69.9918C39.6645 69.9932 39.6713 69.9945 39.6795 69.9959C39.7123 70 39.7465 70.0014 39.782 70.0014C39.7848 70.0014 39.7875 70.0014 39.7902 70.0014C39.7916 70.0014 39.793 70.0014 39.793 70.0014C39.8436 70.0014 39.8914 69.9959 39.9393 69.9891C39.9502 69.9877 39.9598 69.9863 39.9707 69.9836C40.0199 69.9754 40.0664 69.9631 40.1129 69.948C40.1211 69.9453 40.1293 69.9412 40.1375 69.9385C40.1867 69.9207 40.2346 69.9002 40.2797 69.8756C40.2811 69.8742 40.2824 69.8729 40.2852 69.8729C40.333 69.8469 40.3781 69.8154 40.4205 69.7826C40.4232 69.7799 40.4273 69.7785 40.4301 69.7758L43.2068 67.5541L45.9836 69.7758C45.9863 69.7785 45.9891 69.7799 45.9932 69.7812C46.0355 69.8154 46.0807 69.8455 46.1285 69.8715C46.1299 69.8728 46.1312 69.8728 46.1326 69.8742C46.1777 69.8988 46.2256 69.9193 46.2748 69.9371C46.283 69.9398 46.2912 69.9439 46.2994 69.9467C46.3459 69.9617 46.3924 69.974 46.4416 69.9822C46.4525 69.9836 46.4621 69.985 46.473 69.9863C46.5209 69.9932 46.5701 69.9986 46.6207 69.9986C46.6221 69.9986 46.6234 69.9986 46.6234 69.9986C46.6262 69.9986 46.6289 69.9986 46.6316 69.9986C46.6658 69.9986 46.7 69.9959 46.7342 69.9932C46.7424 69.9918 46.7492 69.9904 46.7574 69.9891C46.7861 69.985 46.8148 69.9809 46.8422 69.9754C46.8518 69.9727 46.8613 69.9699 46.8709 69.9686C46.8955 69.9617 46.9215 69.9562 46.9461 69.948C46.957 69.9439 46.9693 69.9398 46.9803 69.9357C47.0021 69.9275 47.024 69.9193 47.0445 69.9098C47.0582 69.9043 47.0705 69.8975 47.0828 69.8906C47.102 69.8811 47.1211 69.8715 47.1389 69.8605C47.1525 69.8523 47.1662 69.8455 47.1785 69.8359C47.1963 69.825 47.2127 69.8127 47.2291 69.8004C47.2414 69.7908 47.2537 69.7826 47.266 69.773C47.2865 69.7566 47.3057 69.7402 47.3234 69.7225C47.3303 69.7156 47.3385 69.7088 47.3467 69.702C47.3727 69.676 47.3973 69.6486 47.4205 69.6199C47.4219 69.6186 47.4232 69.6172 47.4246 69.6145C47.4314 69.6062 47.4369 69.5967 47.4437 69.5871C47.4561 69.5707 47.4684 69.5543 47.4807 69.5365C47.4889 69.5242 47.4957 69.5119 47.5039 69.4996C47.5135 69.4832 47.523 69.4668 47.5326 69.4504C47.5395 69.4367 47.5463 69.4217 47.5531 69.408C47.56 69.3916 47.5682 69.3766 47.575 69.3602C47.5818 69.3451 47.5859 69.3287 47.5928 69.3137C47.5982 69.2986 47.6037 69.2822 47.6092 69.2658C47.6146 69.2494 47.6187 69.2316 47.6228 69.2152C47.627 69.2002 47.6311 69.1852 47.6338 69.1687C47.6379 69.1496 47.6393 69.1318 47.642 69.1127C47.6434 69.0977 47.6461 69.084 47.6475 69.0689C47.6488 69.0484 47.6502 69.0266 47.6502 69.0061C47.6502 68.9951 47.6516 68.9842 47.6516 68.9732V61.1379C49.31 59.824 50.3818 57.7883 50.3818 55.5078ZM43.859 65.4514L43.8439 65.4391C43.8371 65.4336 43.8289 65.4281 43.8207 65.4227C43.8029 65.409 43.7838 65.3953 43.766 65.383C43.7551 65.3762 43.7441 65.3693 43.7318 65.3625C43.7141 65.3516 43.6977 65.342 43.6799 65.3324C43.6662 65.3256 43.6512 65.3187 43.6375 65.3119C43.6225 65.3051 43.6061 65.2969 43.591 65.2914C43.5746 65.2846 43.5568 65.2791 43.5404 65.2723C43.5268 65.2668 43.5117 65.2627 43.498 65.2586C43.4803 65.2531 43.4625 65.249 43.4434 65.2449C43.4297 65.2422 43.416 65.2381 43.401 65.2353C43.3832 65.2326 43.3654 65.2299 43.3477 65.2271C43.3326 65.2244 43.3176 65.223 43.3025 65.2217C43.2861 65.2203 43.2697 65.2189 43.2533 65.2189C43.2355 65.2176 43.2191 65.2176 43.2027 65.2176C43.1877 65.2176 43.174 65.2189 43.159 65.2189C43.1398 65.2203 43.1207 65.2203 43.1029 65.223C43.0906 65.2244 43.077 65.2258 43.0646 65.2285C43.0441 65.2312 43.025 65.234 43.0045 65.2381C42.9922 65.2408 42.9812 65.2436 42.9689 65.2463C42.9484 65.2518 42.9293 65.2559 42.9088 65.2613C42.8965 65.2654 42.8842 65.2695 42.8719 65.2736C42.8527 65.2805 42.835 65.2859 42.8172 65.2941C42.8021 65.2996 42.7885 65.3064 42.7734 65.3133C42.7584 65.3201 42.7434 65.327 42.7283 65.3352C42.7105 65.3447 42.6941 65.3543 42.6777 65.3639C42.6668 65.3707 42.6545 65.3775 42.6422 65.3844C42.623 65.3967 42.6053 65.4103 42.5875 65.424C42.5807 65.4295 42.5725 65.435 42.5643 65.4404L42.5506 65.4514C42.5506 65.4514 42.5506 65.4514 42.5492 65.4514L40.8129 66.8404V62.274C41.5621 62.5393 42.366 62.6855 43.2055 62.6855C44.0436 62.6855 44.8488 62.5393 45.598 62.274V66.8404L43.859 65.4514ZM43.2041 60.6348C40.3768 60.6348 38.0771 58.3352 38.0771 55.5078C38.0771 52.6805 40.3768 50.3809 43.2041 50.3809C46.0314 50.3809 48.3311 52.6805 48.3311 55.5078C48.3311 58.3352 46.0301 60.6348 43.2041 60.6348Z" fill="white"/>
<path d="M43.2041 52.4316C41.5074 52.4316 40.1279 53.8111 40.1279 55.5078C40.1279 57.2045 41.5074 58.584 43.2041 58.584C44.9008 58.584 46.2803 57.2045 46.2803 55.5078C46.2803 53.8111 44.9008 52.4316 43.2041 52.4316ZM43.2041 56.5332C42.6381 56.5332 42.1787 56.0738 42.1787 55.5078C42.1787 54.9418 42.6381 54.4824 43.2041 54.4824C43.7701 54.4824 44.2295 54.9418 44.2295 55.5078C44.2295 56.0738 43.7687 56.5332 43.2041 56.5332Z" fill="white"/>
</g>
<defs>
<clipPath id="clip0">
<rect width="70" height="70" rx="10" fill="white"/>
</clipPath>
</defs>
</svg>
