<svg width="70" height="70" viewBox="0 0 70 70" fill="none" xmlns="http://www.w3.org/2000/svg">
<g clip-path="url(#clip0)">
<path d="M21.5368 27.9251C21.665 28.2377 21.9242 28.4782 22.2454 28.5819C22.5666 28.687 22.9181 28.6438 23.2047 28.4667L28.9185 24.9379L29.437 26.8621L24.0069 59.4611C23.9436 59.8428 24.0761 60.2302 24.3584 60.4924L34.2491 69.6903C34.6913 70.1023 35.3755 70.1023 35.8176 69.6903L45.7113 60.4938C45.9907 60.2346 46.1232 59.8543 46.0641 59.477L41.0763 26.8477L41.4695 25.1337L46.865 28.4667C47.1516 28.6438 47.503 28.687 47.8242 28.5819C48.1454 28.4782 48.4047 28.2377 48.5329 27.9251L55.6654 10.5922C55.723 10.4539 55.7532 10.3041 55.7532 10.1543V1.14074C55.7518 1.08889 55.7475 1.03848 55.7403 0.988066C55.7388 0.976543 55.736 0.96358 55.7345 0.952058C55.7273 0.904527 55.7172 0.856996 55.7028 0.810905C55.7028 0.809465 55.7028 0.806584 55.7014 0.805144C55.687 0.756173 55.6683 0.708642 55.6467 0.663992C55.6423 0.653909 55.638 0.645267 55.6337 0.636625C55.6135 0.596296 55.5919 0.555967 55.5674 0.517078C55.5646 0.512757 55.5617 0.508436 55.5602 0.504115C55.5329 0.463786 55.5026 0.424897 55.4709 0.388889C55.4637 0.380247 55.4551 0.371605 55.4464 0.361523C55.4176 0.329835 55.386 0.299588 55.3543 0.272222C55.3485 0.267901 55.3442 0.26214 55.3384 0.257819C55.2995 0.227572 55.2606 0.197325 55.2189 0.171399C55.2088 0.165638 55.2002 0.159877 55.1901 0.154115C55.1008 0.100823 55.0057 0.0604938 54.9078 0.0331276C54.8977 0.0302469 54.8862 0.0273663 54.8761 0.0259259C54.8314 0.0144033 54.7868 0.00576132 54.7407 0C54.7349 0 54.7306 0.0187243 54.7248 0.0172839C54.6845 0.012963 54.6427 0.0316872 54.6024 0.0316872H15.4701C15.4298 0.0244856 15.388 0.0201646 15.3462 0.0172839C15.3419 0.0172839 15.339 0.00864197 15.3347 0.00864197C15.2872 0.012963 15.2411 0.0201646 15.1936 0.0288066C15.1835 0.0316872 15.1748 0.0316872 15.1648 0.0345679C15.0654 0.0619342 14.9703 0.102263 14.881 0.154115C14.8709 0.159877 14.8623 0.164198 14.8522 0.169959C14.8104 0.195885 14.7701 0.224691 14.7327 0.256379C14.7269 0.2607 14.7226 0.265021 14.7168 0.270782C14.6837 0.299588 14.6534 0.328395 14.6246 0.360082C14.616 0.368724 14.6074 0.377366 14.6002 0.387449C14.5685 0.423457 14.5382 0.462346 14.5109 0.502675C14.508 0.506996 14.5051 0.511317 14.5036 0.515638C14.4792 0.554527 14.4576 0.593416 14.4374 0.633745C14.4331 0.643827 14.4273 0.652469 14.4244 0.661111C14.4028 0.710082 14.3855 0.757613 14.3697 0.806584C14.3697 0.808025 14.3683 0.809465 14.3683 0.812346C14.3553 0.858436 14.3452 0.905967 14.3366 0.953498C14.3337 0.96502 14.3308 0.976543 14.3294 0.989506C14.3222 1.03992 14.3178 1.09033 14.3164 1.14218V10.1543C14.3164 10.3056 14.3467 10.4539 14.4043 10.5922L21.5368 27.9251ZM23.1485 25.7949L16.6195 9.92675V3.82984L33.1617 19.6115L23.1485 25.7949ZM35.0355 18.1654L27.7907 11.2533H42.279L35.0355 18.1654ZM44.6929 8.95165H25.3781L18.345 2.33333H51.7275L44.6929 8.95165ZM42.9041 54.0397L28.603 45.8932L29.6689 39.4909L41.8253 46.9835L42.9041 54.0397ZM30.0779 37.0381L30.9378 31.8788L40.4757 38.1428L41.3701 43.9977L30.0779 37.0381ZM38.9172 27.9453L40.0061 35.0763L31.3512 29.3885L31.5917 27.9453H38.9172ZM35.0355 67.2763L26.382 59.2292L26.915 56.0259L39.744 62.8977L35.0355 67.2763ZM41.5257 61.2414L27.3154 53.6278L28.2012 48.3115L43.3491 56.9405L43.6977 59.222L41.5257 61.2414ZM38.9878 25.6422H31.4967L30.9637 23.6689L35.0355 21.157L39.3997 23.849L38.9878 25.6422ZM46.9226 25.7949L36.9109 19.6101L53.453 3.82984V9.92675L46.9226 25.7949Z" fill="white"/>
</g>
<defs>
<clipPath id="clip0">
<rect width="70" height="70" rx="6" fill="white"/>
</clipPath>
</defs>
</svg>
