<svg width="24" height="24" viewBox="0 0 24 24" fill="none" xmlns="http://www.w3.org/2000/svg">
<g clip-path="url(#clip0)">
<path d="M3.33163 7.77399C2.91811 7.77399 2.56726 7.91819 2.27885 8.2066C1.99044 8.49501 1.84619 8.84109 1.84619 9.24502V15.4469C1.84619 15.8609 1.9904 16.2115 2.27885 16.4999C2.56726 16.7883 2.91811 16.9326 3.33163 16.9326C3.74485 16.9326 4.09358 16.7884 4.37752 16.4999C4.66089 16.2115 4.80297 15.8609 4.80297 15.4469V9.24502C4.80297 8.84105 4.65877 8.49501 4.37031 8.2066C4.08186 7.91819 3.73556 7.77399 3.33163 7.77399Z" fill="#2997FF"/>
<path d="M15.2743 2.20654L16.2984 0.317431C16.3656 0.192364 16.3417 0.0964594 16.2264 0.0290222C16.1013 -0.0291283 16.0052 0.00033753 15.938 0.115337L14.8997 2.01955C13.986 1.61558 13.0196 1.41322 12.0005 1.41322C10.9812 1.41322 10.0148 1.61562 9.10141 2.01955L8.06299 0.115337C7.99551 0.00033753 7.89938 -0.0288679 7.77458 0.0290222C7.65906 0.0967632 7.63515 0.192364 7.70263 0.317431L8.72673 2.20654C7.68831 2.7361 6.86127 3.47361 6.24591 4.42068C5.63056 5.36828 5.32275 6.40379 5.32275 7.52904H18.6638C18.6638 6.40405 18.3559 5.36849 17.7406 4.42068C17.1252 3.47361 16.303 2.7361 15.2743 2.20654ZM9.35371 4.95428C9.24296 5.06529 9.11069 5.12053 8.95694 5.12053C8.80289 5.12053 8.67331 5.06529 8.56759 4.95428C8.46188 4.84379 8.40903 4.71204 8.40903 4.55777C8.40903 4.40402 8.46188 4.27201 8.56759 4.16126C8.67331 4.05078 8.80319 3.99554 8.95694 3.99554C9.11069 3.99554 9.24296 4.05078 9.35371 4.16126C9.4642 4.27227 9.5197 4.40402 9.5197 4.55777C9.5194 4.71178 9.46394 4.84379 9.35371 4.95428ZM15.4329 4.95428C15.3269 5.06529 15.1971 5.12053 15.0436 5.12053C14.8895 5.12053 14.7572 5.06529 14.6467 4.95428C14.536 4.84379 14.4808 4.71204 14.4808 4.55777C14.4808 4.40402 14.536 4.27201 14.6467 4.16126C14.7572 4.05078 14.8895 3.99554 15.0436 3.99554C15.1973 3.99554 15.3269 4.05078 15.4329 4.16126C15.5387 4.27227 15.5914 4.40402 15.5914 4.55777C15.5914 4.71178 15.5386 4.84379 15.4329 4.95428Z" fill="#2997FF"/>
<path d="M5.37988 17.6536C5.37988 18.0964 5.53363 18.4711 5.84118 18.7787C6.14899 19.0862 6.52375 19.24 6.96618 19.24H8.03354L8.04816 22.5144C8.04816 22.9278 8.19237 23.279 8.48078 23.5674C8.76919 23.8559 9.11553 24.0001 9.5192 24.0001C9.93246 24.0001 10.2835 23.8559 10.572 23.5674C10.8604 23.279 11.0046 22.9279 11.0046 22.5144V19.2403H12.9949V22.5144C12.9949 22.9278 13.1391 23.279 13.4276 23.5674C13.716 23.8559 14.0668 24.0001 14.4803 24.0001C14.8936 24.0001 15.2447 23.8559 15.5331 23.5674C15.8216 23.279 15.9657 22.9279 15.9657 22.5144V19.2403H17.0475C17.4801 19.2403 17.8501 19.0865 18.1582 18.7789C18.4657 18.4714 18.6195 18.0966 18.6195 17.6539V8.04779H5.37988V17.6536Z" fill="#2997FF"/>
<path d="M20.6683 7.77399C20.2644 7.77399 19.9183 7.91606 19.6299 8.19944C19.3415 8.48333 19.1973 8.83206 19.1973 9.24502V15.4469C19.1973 15.8609 19.3414 16.2115 19.6299 16.4999C19.9183 16.7884 20.2646 16.9326 20.6683 16.9326C21.0816 16.9326 21.4327 16.7884 21.7211 16.4999C22.0096 16.2115 22.1537 15.8609 22.1537 15.4469V9.24502C22.1537 8.83202 22.0096 8.48333 21.7211 8.19944C21.4327 7.91606 21.0816 7.77399 20.6683 7.77399Z" fill="#2997FF"/>
</g>
<defs>
<clipPath id="clip0">
<rect width="24" height="24" fill="white"/>
</clipPath>
</defs>
</svg>
