<svg width="35" height="35" viewBox="0 0 35 35" fill="none" xmlns="http://www.w3.org/2000/svg">
<g clip-path="url(#clip0)">
<path d="M4.85865 11.3371C4.2556 11.3371 3.74394 11.5474 3.32334 11.968C2.90274 12.3886 2.69238 12.8933 2.69238 13.4824V22.5267C2.69238 23.1306 2.90268 23.6418 3.32334 24.0624C3.74394 24.483 4.2556 24.6934 4.85865 24.6934C5.46126 24.6934 5.96982 24.4831 6.3839 24.0624C6.79715 23.6418 7.00435 23.1306 7.00435 22.5267V13.4824C7.00435 12.8932 6.79405 12.3886 6.37339 11.968C5.95273 11.5474 5.44771 11.3371 4.85865 11.3371Z" fill="#2997FF"/>
<path d="M22.2744 3.21787L23.7679 0.46292C23.8659 0.280531 23.831 0.14067 23.6629 0.0423241C23.4805 -0.0424787 23.3403 0.000492231 23.2423 0.168199L21.728 2.94517C20.3956 2.35605 18.9863 2.06095 17.5001 2.06095C16.0137 2.06095 14.6042 2.35611 13.2723 2.94517L11.7579 0.168199C11.6595 0.000492231 11.5193 -0.042099 11.3373 0.0423241C11.1688 0.141113 11.134 0.280531 11.2324 0.46292L12.7258 3.21787C11.2115 3.99015 10.0054 5.06569 9.10799 6.44683C8.2106 7.82874 7.76172 9.33886 7.76172 10.9799H27.2174C27.2174 9.33924 26.7684 7.82905 25.8711 6.44683C24.9736 5.06569 23.7745 3.99015 22.2744 3.21787ZM13.6402 7.22499C13.4787 7.38688 13.2858 7.46744 13.0616 7.46744C12.8369 7.46744 12.6479 7.38688 12.4938 7.22499C12.3396 7.06387 12.2625 6.87173 12.2625 6.64675C12.2625 6.42253 12.3396 6.23002 12.4938 6.06851C12.6479 5.90738 12.8374 5.82682 13.0616 5.82682C13.2858 5.82682 13.4787 5.90738 13.6402 6.06851C13.8013 6.23039 13.8823 6.42253 13.8823 6.64675C13.8818 6.87135 13.8009 7.06387 13.6402 7.22499ZM22.5056 7.22499C22.3511 7.38688 22.1617 7.46744 21.9379 7.46744C21.7132 7.46744 21.5203 7.38688 21.3591 7.22499C21.1977 7.06387 21.1171 6.87173 21.1171 6.64675C21.1171 6.42253 21.1977 6.23002 21.3591 6.06851C21.5203 5.90738 21.7132 5.82682 21.9379 5.82682C22.1621 5.82682 22.3511 5.90738 22.5056 6.06851C22.6599 6.23039 22.7369 6.42253 22.7369 6.64675C22.7369 6.87135 22.6599 7.06387 22.5056 7.22499Z" fill="#2997FF"/>
<path d="M7.8457 25.7449C7.8457 26.3905 8.06992 26.937 8.51843 27.3855C8.96731 27.834 9.51385 28.0583 10.159 28.0583H11.7156L11.7369 32.8334C11.7369 33.4364 11.9472 33.9485 12.3678 34.3691C12.7884 34.7898 13.2935 35.0001 13.8822 35.0001C14.4849 35.0001 14.9969 34.7898 15.4175 34.3691C15.8382 33.9485 16.0485 33.4365 16.0485 32.8334V28.0587H18.951V32.8334C18.951 33.4364 19.1612 33.9485 19.5819 34.3691C20.0026 34.7898 20.5141 35.0001 21.1172 35.0001C21.7199 35.0001 22.2319 34.7898 22.6525 34.3691C23.0732 33.9485 23.2834 33.4365 23.2834 32.8334V28.0587H24.861C25.4919 28.0587 26.0314 27.8344 26.4807 27.3859C26.9292 26.9374 27.1535 26.3909 27.1535 25.7453V11.7363H7.8457V25.7449Z" fill="#2997FF"/>
<path d="M30.1414 11.3371C29.5523 11.3371 29.0476 11.5443 28.627 11.9575C28.2064 12.3716 27.9961 12.8801 27.9961 13.4824V22.5267C27.9961 23.1306 28.2063 23.6418 28.627 24.0624C29.0476 24.4831 29.5527 24.6934 30.1414 24.6934C30.7441 24.6934 31.2561 24.4831 31.6767 24.0624C32.0974 23.6418 32.3076 23.1306 32.3076 22.5267V13.4824C32.3076 12.8801 32.0974 12.3716 31.6767 11.9575C31.2561 11.5443 30.7441 11.3371 30.1414 11.3371Z" fill="#2997FF"/>
</g>
<defs>
<clipPath id="clip0">
<rect width="35" height="35" fill="white"/>
</clipPath>
</defs>
</svg>
