<svg width="35" height="35" viewBox="0 0 35 35" fill="none" xmlns="http://www.w3.org/2000/svg">
<path d="M31.683 25.7055C31.5889 25.9714 31.4976 26.2569 31.3927 26.5374C30.5234 28.891 29.2039 30.9806 27.6028 32.8956C27.2938 33.2684 26.9338 33.6059 26.562 33.9189C25.8271 34.5409 24.9815 34.9166 24.0034 34.9509C23.2686 34.9745 22.5632 34.8411 21.8833 34.5644C21.3908 34.3633 20.9062 34.1386 20.4068 33.9571C18.7861 33.3685 17.1743 33.446 15.5801 34.0759C15.0052 34.3035 14.4381 34.5546 13.8524 34.7518C13.1735 34.9794 12.4691 35.0716 11.752 34.9362C11.1261 34.8195 10.5787 34.5281 10.0705 34.1524C9.43966 33.6854 8.90989 33.1164 8.41446 32.514C6.06876 29.6533 4.49418 26.4187 3.73386 22.7957C3.40619 21.2378 3.24922 19.6671 3.34536 18.0749C3.45819 16.1658 3.90162 14.3479 4.92192 12.7095C6.20219 10.6503 8.0083 9.30135 10.3844 8.74509C11.8138 8.40859 13.204 8.54594 14.5666 9.0708C15.2838 9.3455 16.0029 9.61725 16.723 9.88704C17.3862 10.1362 18.0464 10.1362 18.7106 9.88213C19.4454 9.60155 20.1812 9.32195 20.9189 9.04824C21.6753 8.77256 22.4445 8.54692 23.247 8.48315C24.4478 8.38603 25.6192 8.54202 26.7591 8.92365C28.3749 9.46421 29.6895 10.4207 30.6824 11.8138C30.7089 11.8521 30.7383 11.8943 30.7579 11.9247C28.2543 13.67 26.8288 15.9754 27.0358 19.0972C27.2448 22.2208 28.9263 24.334 31.683 25.7055ZM17.6393 8.09662C18.378 8.11624 19.0883 7.97399 19.7721 7.70224C22.8909 6.46415 24.5214 3.16487 24.4723 0.641608C24.4684 0.43853 24.4547 0.235452 24.4458 0C24.125 0.0480715 23.8327 0.0706357 23.5521 0.141271C21.2751 0.69949 19.5229 1.96995 18.3712 4.02722C17.6972 5.23195 17.3224 6.51124 17.4372 7.90924C17.445 8.05738 17.499 8.09466 17.6393 8.09662Z" fill="#2997FF"/>
</svg>
