<svg width="24" height="24" viewBox="0 0 24 24" fill="none" xmlns="http://www.w3.org/2000/svg">
<path d="M21.7256 17.6266C21.6611 17.8089 21.5985 18.0047 21.5265 18.1971C20.9305 19.811 20.0257 21.2439 18.9278 22.557C18.7159 22.8126 18.469 23.0441 18.214 23.2587C17.7102 23.6852 17.1303 23.9428 16.4596 23.9664C15.9557 23.9825 15.472 23.891 15.0058 23.7013C14.6681 23.5634 14.3358 23.4093 13.9934 23.2849C12.882 22.8813 11.7768 22.9344 10.6836 23.3663C10.2894 23.5224 9.90055 23.6946 9.49893 23.8298C9.03341 23.9859 8.5504 24.0491 8.05864 23.9563C7.62944 23.8762 7.25406 23.6764 6.90559 23.4188C6.47303 23.0986 6.10976 22.7084 5.77004 22.2953C4.16156 20.3337 3.08185 18.1157 2.56049 15.6313C2.3358 14.5631 2.22816 13.486 2.29409 12.3942C2.37145 11.0851 2.67552 9.83855 3.37515 8.7151C4.25305 7.30306 5.49153 6.37807 7.12086 5.99664C8.10102 5.76589 9.05426 5.86007 9.98867 6.21998C10.4804 6.40834 10.9735 6.59469 11.4673 6.77968C11.9221 6.95055 12.3748 6.95055 12.8302 6.77632C13.3341 6.58392 13.8387 6.3922 14.3445 6.20451C14.8632 6.01547 15.3906 5.86075 15.9409 5.81702C16.7643 5.75042 17.5676 5.85738 18.3493 6.11907C19.4572 6.48974 20.3587 7.14564 21.0395 8.10091C21.0576 8.12714 21.0778 8.15607 21.0913 8.17693C19.3745 9.3737 18.397 10.9546 18.539 13.0952C18.6823 15.2371 19.8353 16.6862 21.7256 17.6266ZM12.0956 5.55197C12.6022 5.56542 13.0892 5.46788 13.5581 5.28153C15.6967 4.43256 16.8148 2.1702 16.7811 0.43996C16.7784 0.300706 16.769 0.161453 16.763 0C16.543 0.0329633 16.3425 0.0484359 16.1501 0.0968718C14.5887 0.47965 13.3873 1.35082 12.5975 2.76152C12.1353 3.58762 11.8783 4.46485 11.9571 5.42348C11.9624 5.52506 11.9994 5.55062 12.0956 5.55197Z" fill="#2997FF"/>
</svg>
