<svg width="27" height="31" viewBox="0 0 27 31" fill="none" xmlns="http://www.w3.org/2000/svg">
<path fill-rule="evenodd" clip-rule="evenodd" d="M3.29167 6.82992L3.29167 6.82943C3.29167 5.59769 7.81437 3.88627 13.5 3.88627C19.1856 3.88627 23.7083 5.59769 23.7083 6.82943C23.7083 8.06117 19.1856 9.77258 13.5 9.77258C7.81512 9.77258 3.29287 8.06162 3.29167 6.82992ZM13.5 0.943115C20.701 0.943115 26.625 3.18479 26.625 6.82943V15.6589V24.4884C26.625 28.133 20.701 30.3747 13.5 30.3747C6.29899 30.3747 0.375 28.133 0.375 24.4884V15.6589V6.82943C0.375 3.18479 6.29899 0.943115 13.5 0.943115ZM3.29167 19.5156V24.4884C3.29167 25.7201 7.81437 27.4315 13.5 27.4315C19.1856 27.4315 23.7083 25.7201 23.7083 24.4884V19.5156C21.2941 20.8169 17.6045 21.5452 13.5 21.5452C9.39548 21.5452 5.70585 20.8169 3.29167 19.5156ZM23.7083 15.6589C23.7083 16.8906 19.1856 18.602 13.5 18.602C7.81437 18.602 3.29167 16.8906 3.29167 15.6589V10.6862C5.70585 11.9874 9.39548 12.7157 13.5 12.7157C17.6045 12.7157 21.2941 11.9874 23.7083 10.6862V15.6589Z" fill="#747474"/>
</svg>
