<svg width="538" height="572" viewBox="0 0 538 572" fill="none" xmlns="http://www.w3.org/2000/svg">
<path d="M286.751 572C333.178 572 392.349 558.338 420.569 546.497L407.824 504.599C391.438 510.064 338.64 528.28 288.572 528.28C132.907 528.28 50.0677 440.841 50.0677 286C50.0677 133.892 134.728 42.8089 277.648 42.8089C422.389 42.8089 490.663 144.822 490.663 246.834C490.663 350.669 479.739 397.121 433.313 397.121C406.003 397.121 391.438 374.35 391.438 348.847V143H343.191V168.503H340.46C334.088 148.465 298.585 131.159 253.069 135.713C184.795 143 132.907 199.471 132.907 281.446C132.907 367.975 173.871 434.465 253.069 437.197C304.958 439.019 332.267 413.516 343.191 387.102H345.922C351.384 426.268 400.541 439.93 432.403 439.93C528.897 439.93 538 336.096 538 247.745C538 122.962 450.609 0 280.379 0C104.687 0 0 106.567 0 284.178C0 468.166 101.046 572 286.751 572ZM260.352 390.745C201.181 390.745 180.244 337.006 180.244 278.713C180.244 225.885 210.284 180.344 262.173 180.344C316.792 180.344 345.922 202.204 345.922 278.713C345.922 354.312 321.343 390.745 260.352 390.745Z" fill="#2997FF"/>
</svg>
