<svg width="22" height="22" viewBox="0 0 22 22" fill="none" xmlns="http://www.w3.org/2000/svg">
<path d="M18.7782 18.7782C16.7006 20.8558 13.9382 22 11 22C8.06181 22 5.29943 20.8558 3.22185 18.7782C1.14417 16.7006 0 13.9382 0 11C0 8.06177 1.14417 5.29943 3.22185 3.2218C5.29943 1.14417 8.06181 0 11 0C13.9383 0 16.7006 1.14417 18.7782 3.22185C20.8558 5.29943 22 8.06181 22 11C22 13.9382 20.8558 16.7006 18.7782 18.7782ZM4.13429 17.8657C5.10156 18.833 6.2371 19.5708 7.47477 20.0523C7.14512 19.6408 6.83664 19.1677 6.55395 18.6357C6.22563 18.0178 5.94233 17.3392 5.70639 16.6143C4.88904 16.75 4.13171 16.9168 3.45512 17.1126C3.66718 17.3732 3.89341 17.6248 4.13429 17.8657ZM2.67391 16.0022C3.46526 15.7488 4.37027 15.5351 5.35778 15.3659C5.08278 14.1986 4.92092 12.9425 4.88229 11.6452H1.3121C1.4135 13.202 1.88109 14.6879 2.67391 16.0022ZM2.60365 6.11709C1.85363 7.40181 1.41045 8.84479 1.31205 10.3548H4.88474C4.92694 9.09457 5.08558 7.87417 5.3513 6.73743C4.3435 6.57406 3.41576 6.36579 2.60365 6.11709ZM4.13429 4.13424C3.86015 4.40843 3.60483 4.69632 3.36811 4.99599C4.06949 5.19046 4.85359 5.35516 5.69762 5.48725C5.93524 4.75235 6.22159 4.06476 6.55391 3.43927C6.86199 2.85949 7.20072 2.35005 7.56411 1.91366C6.2918 2.39418 5.12481 3.14381 4.13429 4.13424ZM10.3548 1.45596C9.37477 1.73048 8.44767 2.62544 7.69348 4.04478C7.4297 4.54116 7.19801 5.0827 6.99954 5.65985C8.06216 5.77682 9.19288 5.84595 10.3548 5.86219V1.45596ZM10.3548 7.15268C9.06625 7.1351 7.81032 7.05419 6.63413 6.91605C6.37468 7.98859 6.21858 9.14948 6.17574 10.3548H10.3548V7.15268H10.3548ZM10.3548 11.6452H6.17329C6.21243 12.8842 6.37103 14.0774 6.63856 15.1773C7.80722 15.0312 9.06054 14.9423 10.3548 14.9169V11.6452ZM10.3548 16.2075C9.18837 16.231 8.06014 16.307 7.00504 16.4311C7.20231 17.0023 7.43219 17.5383 7.69348 18.0302C8.44763 19.4495 9.37477 20.3445 10.3548 20.619V16.2075ZM19.3668 15.9337C20.1348 14.6363 20.5883 13.1751 20.688 11.6452H17.1178C17.0796 12.9276 16.9209 14.1696 16.6516 15.3253C17.6456 15.4859 18.5618 15.6901 19.3668 15.9337ZM17.8657 17.8657C18.1248 17.6067 18.3668 17.3351 18.5925 17.0532C17.9018 16.8646 17.1327 16.7045 16.3064 16.5757C16.068 17.3151 15.7803 18.0068 15.4461 18.6357C15.1634 19.1677 14.855 19.6408 14.5253 20.0523C15.7629 19.5708 16.8985 18.833 17.8657 17.8657ZM11.6452 10.3548H15.8243C15.7812 9.14012 15.623 7.97042 15.3599 6.89095C14.1914 7.03623 12.9386 7.12427 11.6452 7.14902V10.3548ZM11.6452 11.6452V14.9126C12.9345 14.9295 14.1914 15.0097 15.3687 15.1474C15.6319 14.0558 15.788 12.8729 15.8268 11.6452H11.6452ZM11.6452 20.619H11.6452C12.6252 20.3445 13.5523 19.4495 14.3065 18.0302C14.572 17.5306 14.805 16.9853 15.0043 16.4039C13.9403 16.2874 12.8083 16.2188 11.6452 16.2031V20.619ZM11.6452 1.45596V5.85846C12.8106 5.8356 13.9379 5.76023 14.9926 5.63691C14.7959 5.06835 14.5668 4.53459 14.3066 4.04478C13.5524 2.62544 12.6253 1.73048 11.6452 1.45596ZM17.8657 4.13424C16.8752 3.14377 15.7082 2.39418 14.4359 1.9137C14.7993 2.35009 15.138 2.85949 15.4461 3.43927C15.7735 4.05548 16.0562 4.73211 16.2917 5.45476C17.1281 5.31671 17.9019 5.14599 18.5912 4.9452C18.3659 4.66392 18.1243 4.39288 17.8657 4.13424ZM19.362 6.05818C18.5613 6.3156 17.6433 6.53221 16.641 6.70314C16.9115 7.84955 17.0727 9.08189 17.1154 10.3548H20.6881C20.588 8.82172 20.133 7.35755 19.362 6.05818Z" fill="#9E9E9E"/>
</svg>
