<svg width="24" height="24" viewBox="0 0 24 24" fill="none" xmlns="http://www.w3.org/2000/svg">
<path d="M17.625 1.45312C15.0682 1.45312 13.1711 3.0233 12 5.2507C10.829 3.02344 8.93184 1.45312 6.375 1.45312C2.6902 1.45312 0 4.54758 0 8.32102C0 13.3112 4.76119 16.444 11.537 22.3729C11.8021 22.6049 12.1979 22.6048 12.463 22.3729C19.2326 16.4495 24 13.3118 24 8.32102C24 4.54697 21.3094 1.45312 17.625 1.45312ZM12 20.911C5.75991 15.4906 1.40625 12.4795 1.40625 8.32102C1.40625 5.20739 3.54234 2.85938 6.375 2.85938C9.10556 2.85938 10.7977 5.38814 11.3223 7.26544C11.5115 7.95028 12.4862 7.95333 12.6777 7.26544C13.1954 5.41303 14.8679 2.85938 17.625 2.85938C20.4577 2.85938 22.5938 5.20739 22.5938 8.32102C22.5938 12.4819 18.233 15.4968 12 20.911Z" fill="#FF0000"/>
</svg>
