<svg width="16" height="13" viewBox="0 0 16 13" fill="none" xmlns="http://www.w3.org/2000/svg">
<path d="M13 12H10.375C10.125 12 10 11.875 10 11.625V10.375C10 10.125 10.125 10 10.375 10H13C13.2708 10 13.5 9.90625 13.6875 9.71875C13.8958 9.51042 14 9.27083 14 9V3C14 2.72917 13.8958 2.5 13.6875 2.3125C13.5 2.10417 13.2708 2 13 2H10.375C10.125 2 10 1.875 10 1.625V0.375C10 0.125 10.125 0 10.375 0H13C13.8333 0 14.5417 0.291667 15.125 0.875C15.7083 1.45833 16 2.16667 16 3V9C16 9.83333 15.7083 10.5417 15.125 11.125C14.5417 11.7083 13.8333 12 13 12ZM11.5312 5.71875C11.6771 5.86458 11.75 6.04167 11.75 6.25C11.75 6.45833 11.6771 6.63542 11.5312 6.78125L6.28125 12.0312C6.05208 12.2604 5.78125 12.3125 5.46875 12.1875C5.15625 12.0625 5 11.8333 5 11.5V8.5H0.75C0.541667 8.5 0.364583 8.42708 0.21875 8.28125C0.0729167 8.13542 0 7.95833 0 7.75V4.75C0 4.54167 0.0729167 4.36458 0.21875 4.21875C0.364583 4.07292 0.541667 4 0.75 4H5V1C5 0.666667 5.15625 0.4375 5.46875 0.3125C5.78125 0.1875 6.05208 0.239583 6.28125 0.46875L11.5312 5.71875Z" fill="white"/>
</svg>
