<svg width="139" height="54" viewBox="0 0 139 54" fill="none" xmlns="http://www.w3.org/2000/svg">
<path d="M38.1719 24.957V42.4742H41.3804V25.0462L38.1719 24.957Z" fill="black"/>
<path d="M67.7118 24.7471H64.1733V42.4744H67.7118V24.7471Z" fill="black"/>
<path d="M24.3311 25.0459H34.9254V26.646H27.3574V32.4734H32.6011V34.2439H27.3574V41.2144H34.9254V42.6425H24.3311V25.0459Z" fill="black"/>
<path d="M7.58496 25.0455C7.58496 25.0455 19.0726 23.9262 19.0726 29.6086C19.0726 35.291 11.488 34.2004 11.488 34.2004L10.4576 33.7116C10.4576 33.7116 16.2752 33.9122 16.2752 29.6197C16.2752 25.3273 10.31 26.4768 10.31 26.4768V42.4733H7.58496V25.0455Z" fill="black"/>
<path d="M10.3101 34.6695C17.5271 34.6695 18.1161 42.4744 18.1161 42.4744H20.9888C20.9888 42.4744 17.8962 33.7158 13.3303 33.7158C8.76451 33.7158 9.95606 33.7158 9.95606 33.7158L10.3101 34.6695Z" fill="black"/>
<path d="M38.1719 24.9576C38.1719 24.9576 53.4767 22.598 53.4767 33.7161C53.4767 44.8342 38.1719 42.4746 38.1719 42.4746V40.8331L41.2163 41.0942C41.2163 41.0942 50.3494 43.293 50.3494 33.8451C50.3494 24.3971 40.8864 26.3093 40.8864 26.3093L38.1719 24.9576Z" fill="black"/>
<path d="M75.6938 24.7471H79.2307V42.4744H75.6938" fill="black"/>
<path d="M75.6942 31.9629H67.7119V34.1377H75.6942V31.9629Z" fill="black"/>
<path d="M105.026 24.7471H108.494L114.084 36.7489L120.123 24.7471H123.478V42.4744H120.012V28.8294L114.253 41.5939H112.855L106.816 29.0667V42.4744H105.026V24.7471Z" fill="black"/>
<path d="M127.28 24.7471V41.8311H138.462V40.4125H130.969V33.6107H135.891V31.9628H130.969V26.1116H138.462V24.7471H127.28Z" fill="black"/>
<path d="M83.1507 33.4881C83.1507 28.6813 86.3894 24.1563 92.674 24.1563C97.8062 24.0799 101.757 28.218 101.62 32.8974C101.62 37.7312 98.1903 42.2037 92.0699 42.1782C86.9648 42.2801 83.0679 38.3458 83.1507 33.4881ZM97.7791 33.3336C97.7791 28.5253 95.8585 25.0559 92.207 25.0559C90.6705 25.0559 89.4082 25.7756 88.4471 27.1894C87.4861 28.6033 87.0206 30.5059 87.0206 32.9483C87.0206 37.9366 88.7499 41.2786 92.5369 41.2786C95.8027 41.277 97.7791 37.9095 97.7791 33.3336Z" fill="black"/>
<path d="M0 18.1922L30.2766 0L60.4644 18.1922V23.3238H57.9925V19.1252L30.2315 2.7051L2.47196 19.2191V23.3238H0V18.1922Z" fill="#FF0000"/>
<path d="M0 44.5791H2.20684V50.736C2.20684 50.736 58.0813 51.0162 58.0813 50.736C58.0813 50.4558 58.0813 44.5791 58.0813 44.5791H60.4644V53.1625H0V44.5791Z" fill="#FF0000"/>
</svg>
