<svg width="162" height="59" viewBox="0 0 162 59" fill="none" xmlns="http://www.w3.org/2000/svg">
<path d="M44.6606 27.6975V47.138H48.4147V27.7965L44.6606 27.6975Z" fill="black"/>
<path d="M79.2225 27.4644H75.0825V47.1381H79.2225V27.4644Z" fill="black"/>
<path d="M28.4673 27.7966H40.8627V29.5725H32.0081V36.0397H38.1432V38.0046H32.0081V45.7405H40.8627V47.3255H28.4673V27.7966Z" fill="black"/>
<path d="M8.87402 27.7965C8.87402 27.7965 22.3145 26.5543 22.3145 32.8607C22.3145 39.1671 13.4406 37.9567 13.4406 37.9567L12.235 37.4142C12.235 37.4142 19.0417 37.6369 19.0417 32.8731C19.0417 28.1092 12.0623 29.385 12.0623 29.385V47.138H8.87402V27.7965Z" fill="black"/>
<path d="M12.0625 38.4762C20.5065 38.4762 21.1956 47.138 21.1956 47.138H24.5566C24.5566 47.138 20.9383 37.4177 15.5962 37.4177C10.2542 37.4177 11.6483 37.4177 11.6483 37.4177L12.0625 38.4762Z" fill="black"/>
<path d="M44.6606 27.6976C44.6606 27.6976 62.5672 25.0789 62.5672 37.4179C62.5672 49.7568 44.6606 47.1381 44.6606 47.1381V45.3163L48.2226 45.6061C48.2226 45.6061 58.9084 48.0463 58.9084 37.561C58.9084 27.0756 47.8366 29.1978 47.8366 29.1978L44.6606 27.6976Z" fill="black"/>
<path d="M88.562 27.4644H92.7003V47.1381H88.562" fill="black"/>
<path d="M88.5619 35.4724H79.2227V37.8861H88.5619V35.4724Z" fill="black"/>
<path d="M122.88 27.4644H126.938L133.478 40.784L140.544 27.4644H144.469V47.1381H140.413V31.9949L133.675 46.1609H132.04L124.974 32.2582V47.1381H122.88V27.4644Z" fill="black"/>
<path d="M148.917 27.4644V46.4242H162V44.8498H153.234V37.3012H158.992V35.4724H153.234V28.9787H162V27.4644H148.917Z" fill="black"/>
<path d="M97.2862 37.1651C97.2862 31.8306 101.075 26.8088 108.428 26.8088C114.433 26.724 119.056 31.3164 118.896 36.5096C118.896 41.8742 114.883 46.8377 107.722 46.8094C101.749 46.9225 97.1892 42.5562 97.2862 37.1651ZM114.401 36.9937C114.401 31.6574 112.154 27.8071 107.882 27.8071C106.084 27.8071 104.607 28.6058 103.483 30.1749C102.359 31.744 101.814 33.8556 101.814 36.5661C101.814 42.1021 103.837 45.8111 108.268 45.8111C112.089 45.8093 114.401 42.0721 114.401 36.9937Z" fill="black"/>
<path d="M0 20.1897L35.4237 0L70.7434 20.1897V25.8847H67.8512V21.2252L35.3708 3.00213L2.8922 21.3294V25.8847H0V20.1897Z" fill="#FF0000"/>
<path d="M0 49.4741H2.582V56.3071C2.582 56.3071 67.9552 56.6181 67.9552 56.3071C67.9552 55.9961 67.9552 49.4741 67.9552 49.4741H70.7434V59H0V49.4741Z" fill="#FF0000"/>
</svg>
