<svg width="162" height="59" viewBox="0 0 162 59" fill="none" xmlns="http://www.w3.org/2000/svg">
<path d="M44.6602 27.6977V47.1382H48.4142V27.7966L44.6602 27.6977Z" fill="white"/>
<path d="M79.222 27.4644H75.082V47.1382H79.222V27.4644Z" fill="white"/>
<path d="M28.4668 27.7966H40.8622V29.5725H32.0076V36.0397H38.1427V38.0046H32.0076V45.7405H40.8622V47.3255H28.4668V27.7966Z" fill="white"/>
<path d="M8.87305 27.7966C8.87305 27.7966 22.3136 26.5544 22.3136 32.8608C22.3136 39.1672 13.4396 37.9568 13.4396 37.9568L12.2341 37.4144C12.2341 37.4144 19.0407 37.637 19.0407 32.8732C19.0407 28.1094 12.0613 29.3851 12.0613 29.3851V47.1381H8.87305V27.7966Z" fill="white"/>
<path d="M12.0606 38.4763C20.5045 38.4763 21.1936 47.1382 21.1936 47.1382H24.5546C24.5546 47.1382 20.9363 37.4179 15.5943 37.4179C10.2523 37.4179 11.6464 37.4179 11.6464 37.4179L12.0606 38.4763Z" fill="white"/>
<path d="M44.6602 27.6977C44.6602 27.6977 62.5668 25.079 62.5668 37.4179C62.5668 49.7569 44.6602 47.1382 44.6602 47.1382V45.3164L48.2221 45.6062C48.2221 45.6062 58.9079 48.0464 58.9079 37.561C58.9079 27.0757 47.8361 29.1978 47.8361 29.1978L44.6602 27.6977Z" fill="white"/>
<path d="M88.5605 27.4644H92.6988V47.1382H88.5605" fill="white"/>
<path d="M88.56 35.4724H79.2207V37.8862H88.56V35.4724Z" fill="white"/>
<path d="M122.879 27.4644H126.936L133.477 40.784L140.542 27.4644H144.467V47.1382H140.412V31.995L133.674 46.161H132.038L124.973 32.2583V47.1382H122.879V27.4644Z" fill="white"/>
<path d="M148.916 27.4644V46.4243H161.999V44.8499H153.232V37.3013H158.99V35.4724H153.232V28.9787H161.999V27.4644H148.916Z" fill="white"/>
<path d="M97.2847 37.1652C97.2847 31.8307 101.074 26.8089 108.427 26.8089C114.432 26.724 119.055 31.3165 118.894 36.5097C118.894 41.8743 114.881 46.8378 107.72 46.8095C101.747 46.9226 97.1878 42.5563 97.2847 37.1652ZM114.4 36.9938C114.4 31.6575 112.153 27.8072 107.881 27.8072C106.083 27.8072 104.606 28.6059 103.482 30.175C102.357 31.7441 101.812 33.8556 101.812 36.5662C101.812 42.1022 103.836 45.8111 108.267 45.8111C112.088 45.8094 114.4 42.0722 114.4 36.9938Z" fill="white"/>
<path d="M0 20.1897L35.4237 0L70.7434 20.1897V25.8847H67.8512V21.2252L35.3708 3.00213L2.8922 21.3294V25.8847H0V20.1897Z" fill="#FF0000"/>
<path d="M0 49.4741H2.582V56.3071C2.582 56.3071 67.9552 56.6181 67.9552 56.3071C67.9552 55.9961 67.9552 49.4741 67.9552 49.4741H70.7434V59H0V49.4741Z" fill="#FF0000"/>
</svg>
