<svg width="275" height="100" viewBox="0 0 275 100" fill="none" xmlns="http://www.w3.org/2000/svg">
<path d="M75.8125 46.9448V79.8948H82.1851V47.1125L75.8125 46.9448Z" fill="white"/>
<path d="M134.482 46.5498H127.454V79.8951H134.482V46.5498Z" fill="white"/>
<path d="M48.3232 47.1128H69.3648V50.1227H54.3338V61.084H64.7484V64.4144H54.3338V77.5261H69.3648V80.2125H48.3232V47.1128Z" fill="white"/>
<path d="M15.0635 47.113C15.0635 47.113 37.8792 45.0076 37.8792 55.6964C37.8792 66.3852 22.8153 64.3337 22.8153 64.3337L20.7689 63.4143C20.7689 63.4143 32.3233 63.7916 32.3233 55.7174C32.3233 47.6431 20.4757 49.8054 20.4757 49.8054V79.8952H15.0635V47.113Z" fill="white"/>
<path d="M20.4756 65.2144C34.8094 65.2144 35.9792 79.8954 35.9792 79.8954H41.6846C41.6846 79.8954 35.5424 63.4204 26.4742 63.4204C17.4059 63.4204 19.7725 63.4204 19.7725 63.4204L20.4756 65.2144Z" fill="white"/>
<path d="M75.8125 46.9449C75.8125 46.9449 106.21 42.5064 106.21 63.4199C106.21 84.3333 75.8125 79.8949 75.8125 79.8949V76.8071L81.859 77.2983C81.859 77.2983 99.9985 81.4343 99.9985 63.6625C99.9985 45.8907 81.2038 49.4876 81.2038 49.4876L75.8125 46.9449Z" fill="white"/>
<path d="M150.336 46.5498H157.361V79.8951H150.336" fill="white"/>
<path d="M150.336 60.1226H134.482V64.2136H150.336V60.1226Z" fill="white"/>
<path d="M208.593 46.5498H215.48L226.583 69.1254L238.577 46.5498H245.24V79.8951H238.355V54.2288L226.918 78.2389H224.141L212.147 54.675V79.8951H208.593V46.5498Z" fill="white"/>
<path d="M252.791 46.5498V78.6852H274.999V76.0167H260.118V63.2225H269.892V60.1227H260.118V49.1164H274.999V46.5498H252.791Z" fill="white"/>
<path d="M165.145 62.9916C165.145 53.95 171.578 45.4385 184.059 45.4385C194.253 45.2947 202.1 53.0785 201.828 61.8805C201.828 70.9731 195.016 79.3858 182.86 79.3378C172.72 79.5295 164.981 72.1291 165.145 62.9916ZM194.199 62.7011C194.199 53.6565 190.384 47.1306 183.132 47.1306C180.08 47.1306 177.573 48.4843 175.664 51.1438C173.756 53.8033 172.831 57.3822 172.831 61.9764C172.831 71.3594 176.266 77.6457 183.787 77.6457C190.274 77.6427 194.199 71.3085 194.199 62.7011Z" fill="white"/>
<path d="M0 34.2198L60.1328 0L120.089 34.2198V43.8724H115.179V35.9748L60.043 5.08835L4.90959 36.1515V43.8724H0V34.2198Z" fill="#FF0000"/>
<path d="M0 83.8545H4.38303V95.4358C4.38303 95.4358 115.356 95.9629 115.356 95.4358C115.356 94.9087 115.356 83.8545 115.356 83.8545H120.089V100H0V83.8545Z" fill="#FF0000"/>
</svg>
