<svg width="14" height="19" viewBox="0 0 14 19" fill="none" xmlns="http://www.w3.org/2000/svg">
<path d="M6.04688 17.8984C5.48438 17.0781 4.83984 16.1523 4.11328 15.1211C3.41016 14.0898 2.90625 13.3633 2.60156 12.9414C2.29688 12.5195 1.94531 12.0039 1.54688 11.3945C1.14844 10.7617 0.878906 10.3164 0.738281 10.0586C0.621094 9.80078 0.480469 9.47266 0.316406 9.07422C0.175781 8.67578 0.0820312 8.33594 0.0351562 8.05469C0.0117187 7.75 0 7.39844 0 7C0 5.125 0.65625 3.53125 1.96875 2.21875C3.28125 0.90625 4.875 0.25 6.75 0.25C8.625 0.25 10.2188 0.90625 11.5312 2.21875C12.8438 3.53125 13.5 5.125 13.5 7C13.5 7.39844 13.4766 7.75 13.4297 8.05469C13.4062 8.33594 13.3125 8.67578 13.1484 9.07422C13.0078 9.47266 12.8672 9.80078 12.7266 10.0586C12.6094 10.3164 12.3516 10.7617 11.9531 11.3945C11.5547 12.0039 11.2031 12.5195 10.8984 12.9414C10.5938 13.3633 10.0781 14.0898 9.35156 15.1211C8.64844 16.1523 8.01562 17.0781 7.45312 17.8984C7.28906 18.1328 7.05469 18.25 6.75 18.25C6.44531 18.25 6.21094 18.1328 6.04688 17.8984ZM4.74609 9.00391C5.30859 9.54297 5.97656 9.8125 6.75 9.8125C7.52344 9.8125 8.17969 9.54297 8.71875 9.00391C9.28125 8.44141 9.5625 7.77344 9.5625 7C9.5625 6.22656 9.28125 5.57031 8.71875 5.03125C8.17969 4.46875 7.52344 4.1875 6.75 4.1875C5.97656 4.1875 5.30859 4.46875 4.74609 5.03125C4.20703 5.57031 3.9375 6.22656 3.9375 7C3.9375 7.77344 4.20703 8.44141 4.74609 9.00391Z" fill="#747474"/>
</svg>
