<svg width="15" height="24" viewBox="0 0 15 24" fill="none" xmlns="http://www.w3.org/2000/svg">
<path d="M12.75 0H2.25C0.984375 0 0 1.03125 0 2.25V21.75C0 23.0156 0.984375 24 2.25 24H12.75C13.9688 24 15 23.0156 15 21.75V2.25C15 1.03125 13.9688 0 12.75 0ZM7.5 22.5C6.65625 22.5 6 21.8438 6 21C6 20.2031 6.65625 19.5 7.5 19.5C8.29688 19.5 9 20.2031 9 21C9 21.8438 8.29688 22.5 7.5 22.5ZM12.75 17.4375C12.75 17.7656 12.4688 18 12.1875 18H2.8125C2.48438 18 2.25 17.7656 2.25 17.4375V2.8125C2.25 2.53125 2.48438 2.25 2.8125 2.25H12.1875C12.4688 2.25 12.75 2.53125 12.75 2.8125V17.4375Z" fill="white"/>
</svg>
