<svg width="120" height="120" viewBox="0 0 120 120" fill="none" xmlns="http://www.w3.org/2000/svg">
<g clip-path="url(#clip0)">
<path d="M70.1485 89.2973C69.5012 88.1763 68.0678 87.7922 66.947 88.4395L62.3437 91.0973V85.7818C62.3437 84.4873 61.2942 83.438 60 83.438C58.7058 83.438 57.6563 84.4873 57.6563 85.7818V91.0973L53.053 88.4395C51.9315 87.7924 50.4988 88.1763 49.8515 89.2973C49.2042 90.4183 49.5883 91.8517 50.7093 92.4988L55.3126 95.1566L50.7093 97.8144C49.5883 98.4615 49.2042 99.8949 49.8515 101.016C50.2858 101.768 51.0733 102.188 51.8835 102.188C52.281 102.188 52.6841 102.087 53.053 101.874L57.6563 99.2159V104.531C57.6563 105.826 58.7058 106.875 60 106.875C61.2942 106.875 62.3437 105.826 62.3437 104.531V99.2159L66.947 101.874C67.3161 102.087 67.719 102.188 68.1165 102.188C68.9265 102.188 69.7142 101.768 70.1485 101.016C70.7958 99.8949 70.4117 98.4615 69.2907 97.8144L64.6874 95.1566L69.2907 92.4988C70.4117 91.8517 70.7956 90.4183 70.1485 89.2973Z" fill="#F5F5F7"/>
<path d="M38.0396 89.2973C37.3925 88.1763 35.9591 87.7922 34.8381 88.4395L30.2348 91.0973V85.7818C30.2348 84.4873 29.1853 83.438 27.8911 83.438C26.5969 83.438 25.5474 84.4873 25.5474 85.7818V91.0973L20.9441 88.4395C19.8229 87.7924 18.3902 88.1763 17.7426 89.2973C17.0953 90.4183 17.4794 91.8517 18.6004 92.4988L23.2037 95.1566L18.6004 97.8144C17.4794 98.4615 17.0953 99.8949 17.7426 101.016C18.1769 101.768 18.9644 102.188 19.7746 102.188C20.1721 102.188 20.5752 102.087 20.9441 101.874L25.5474 99.2159V104.531C25.5474 105.826 26.5969 106.875 27.8911 106.875C29.1853 106.875 30.2348 105.826 30.2348 104.531V99.2159L34.8381 101.874C35.2072 102.087 35.6101 102.188 36.0076 102.188C36.8176 102.188 37.6053 101.768 38.0396 101.016C38.687 99.8949 38.3028 98.4615 37.1818 97.8144L32.5785 95.1566L37.1818 92.4988C38.3028 91.8517 38.6867 90.4183 38.0396 89.2973Z" fill="#F5F5F7"/>
<path d="M81.9603 101.016C82.3946 101.768 83.1821 102.188 83.9923 102.188C84.3898 102.188 84.793 102.087 85.1619 101.874L89.7651 99.2159V104.531C89.7651 105.826 90.8147 106.875 92.1089 106.875C93.4031 106.875 94.4526 105.826 94.4526 104.531V99.2159L99.0559 101.874C99.425 102.087 99.8279 102.188 100.225 102.188C101.035 102.188 101.823 101.768 102.257 101.016C102.905 99.8949 102.521 98.4615 101.4 97.8144L96.7963 95.1566L101.4 92.4988C102.521 91.8517 102.905 90.4183 102.257 89.2973C101.61 88.1763 100.177 87.7922 99.0559 88.4395L94.4526 91.0973V85.7818C94.4526 84.4873 93.4031 83.438 92.1089 83.438C90.8147 83.438 89.7651 84.4873 89.7651 85.7818V91.0973L85.1619 88.4395C84.0404 87.7924 82.6077 88.1763 81.9603 89.2973C81.313 90.4183 81.6971 91.8517 82.8181 92.4988L87.4214 95.1566L82.8181 97.8144C81.6971 98.4615 81.313 99.8949 81.9603 101.016Z" fill="#F5F5F7"/>
<path d="M108.28 70.3132H70.5614C69.2673 70.3132 68.2177 71.3625 68.2177 72.6569C68.2177 73.9513 69.2673 75.0006 70.5614 75.0006H108.28C112.157 75.0006 115.312 78.1548 115.312 82.0317V108.281C115.312 112.158 112.157 115.312 108.28 115.312H11.7195C7.84251 115.312 4.68834 112.158 4.68834 108.281V82.0317C4.68834 78.1548 7.84251 75.0006 11.7195 75.0006H49.468C50.7622 75.0006 51.8117 73.9513 51.8117 72.6569C51.8117 71.3625 50.7622 70.3132 49.468 70.3132H11.7195C5.25786 70.3132 0.000915527 75.5701 0.000915527 82.0317V108.281C0.000915527 114.743 5.25786 120 11.7195 120H108.28C114.742 120 119.999 114.743 119.999 108.281V82.0317C119.999 75.5701 114.742 70.3132 108.28 70.3132Z" fill="#F5F5F7"/>
<path d="M60 49.9231C61.2942 49.9231 62.3438 48.8738 62.3438 47.5793V37.5657C62.3438 36.2712 61.2942 35.2219 60 35.2219C58.7058 35.2219 57.6563 36.2712 57.6563 37.5657V47.5793C57.6563 48.8738 58.7056 49.9231 60 49.9231Z" fill="#F5F5F7"/>
<path d="M43.1252 64.6884H76.8747C82.3025 64.6884 86.7183 60.2726 86.7183 54.8448V30.3002C86.7183 24.8724 82.3025 20.4566 76.8747 20.4566H76.406V16.406C76.406 7.35973 69.0462 0 60 0C50.9537 0 43.594 7.35973 43.594 16.406V20.4566H43.1252C37.6974 20.4566 33.2816 24.8724 33.2816 30.3002V54.8448C33.2816 60.2726 37.6974 64.6884 43.1252 64.6884ZM48.2814 16.406C48.2814 9.94438 53.5383 4.68743 60 4.68743C66.4616 4.68743 71.7185 9.94438 71.7185 16.406V20.4566H48.2814V16.406ZM37.9691 30.3002C37.9691 27.4571 40.2821 25.1441 43.1252 25.1441H76.8747C79.7179 25.1441 82.0309 27.4571 82.0309 30.3002V54.8448C82.0309 57.6879 79.7179 60.0009 76.8747 60.0009H43.1252C40.2821 60.0009 37.9691 57.6879 37.9691 54.8448V30.3002Z" fill="#F5F5F7"/>
<path d="M60.0138 75.0162C60.6302 75.0162 61.2349 74.7655 61.6709 74.3295C62.1091 73.8936 62.3576 73.2889 62.3576 72.6725C62.3576 72.0537 62.1091 71.4514 61.6709 71.0155C61.2349 70.5795 60.6302 70.3287 60.0138 70.3287C59.3974 70.3287 58.7927 70.5795 58.357 71.0155C57.9211 71.4514 57.6701 72.0537 57.6701 72.6725C57.6701 73.2889 57.9209 73.8936 58.357 74.3295C58.793 74.7655 59.3977 75.0162 60.0138 75.0162Z" fill="#F5F5F7"/>
</g>
<defs>
<clipPath id="clip0">
<rect width="120" height="120" fill="white"/>
</clipPath>
</defs>
</svg>
