<svg width="90" height="90" viewBox="0 0 90 90" fill="none" xmlns="http://www.w3.org/2000/svg">
<g clip-path="url(#clip0)">
<path d="M52.611 66.9731C52.1255 66.1323 51.0504 65.8442 50.2098 66.3297L46.7574 68.3231V64.3364C46.7574 63.3656 45.9702 62.5786 44.9996 62.5786C44.0289 62.5786 43.2418 63.3656 43.2418 64.3364V68.3231L39.7893 66.3297C38.9482 65.8444 37.8737 66.1323 37.3882 66.9731C36.9027 67.8138 37.1908 68.8889 38.0315 69.3742L41.484 71.3675L38.0315 73.3609C37.1908 73.8462 36.9027 74.9212 37.3882 75.762C37.7139 76.3259 38.3045 76.6411 38.9122 76.6411C39.2103 76.6411 39.5127 76.5651 39.7893 76.4053L43.2418 74.412V78.3987C43.2418 79.3695 44.0289 80.1565 44.9996 80.1565C45.9702 80.1565 46.7574 79.3695 46.7574 78.3987V74.412L50.2098 76.4053C50.4867 76.5651 50.7888 76.6411 51.087 76.6411C51.6945 76.6411 52.2852 76.3259 52.611 75.762C53.0965 74.9212 52.8084 73.8462 51.9676 73.3609L48.5152 71.3675L51.9676 69.3742C52.8084 68.8889 53.0963 67.8138 52.611 66.9731Z" fill="#F5F5F7"/>
<path d="M28.5289 66.9731C28.0436 66.1323 26.9685 65.8442 26.1278 66.3297L22.6753 68.3231V64.3364C22.6753 63.3656 21.8882 62.5786 20.9175 62.5786C19.9469 62.5786 19.1598 63.3656 19.1598 64.3364V68.3231L15.7073 66.3297C14.8664 65.8444 13.7918 66.1323 13.3062 66.9731C12.8207 67.8138 13.1088 68.8889 13.9495 69.3742L17.402 71.3675L13.9495 73.3609C13.1088 73.8462 12.8207 74.9212 13.3062 75.762C13.6319 76.3259 14.2225 76.6411 14.8302 76.6411C15.1283 76.6411 15.4306 76.5651 15.7073 76.4053L19.1598 74.412V78.3987C19.1598 79.3695 19.9469 80.1565 20.9175 80.1565C21.8882 80.1565 22.6753 79.3695 22.6753 78.3987V74.412L26.1278 76.4053C26.4046 76.5651 26.7068 76.6411 27.0049 76.6411C27.6124 76.6411 28.2032 76.3259 28.5289 75.762C29.0144 74.9212 28.7263 73.8462 27.8856 73.3609L24.4331 71.3675L27.8856 69.3742C28.7263 68.8889 29.0143 67.8138 28.5289 66.9731Z" fill="#F5F5F7"/>
<path d="M61.4697 75.762C61.7955 76.3259 62.3861 76.6411 62.9937 76.6411C63.2919 76.6411 63.5942 76.5651 63.8709 76.4053L67.3233 74.412V78.3987C67.3233 79.3695 68.1105 80.1565 69.0811 80.1565C70.0518 80.1565 70.8389 79.3695 70.8389 78.3987V74.412L74.2914 76.4053C74.5682 76.5651 74.8704 76.6411 75.1685 76.6411C75.776 76.6411 76.3668 76.3259 76.6925 75.762C77.178 74.9212 76.8899 73.8462 76.0492 73.3609L72.5967 71.3675L76.0492 69.3742C76.8899 68.8889 77.178 67.8138 76.6925 66.9731C76.2072 66.1323 75.1321 65.8442 74.2914 66.3297L70.8389 68.3231V64.3364C70.8389 63.3656 70.0518 62.5786 69.0811 62.5786C68.1105 62.5786 67.3233 63.3656 67.3233 64.3364V68.3231L63.8709 66.3297C63.0298 65.8444 61.9552 66.1323 61.4697 66.9731C60.9842 67.8138 61.2723 68.8889 62.1131 69.3742L65.5656 71.3675L62.1131 73.3609C61.2723 73.8462 60.9842 74.9212 61.4697 75.762Z" fill="#F5F5F7"/>
<path d="M81.2097 52.7349H52.9204C51.9498 52.7349 51.1626 53.5218 51.1626 54.4926C51.1626 55.4635 51.9498 56.2504 52.9204 56.2504H81.2097C84.1174 56.2504 86.483 58.6161 86.483 61.5238V81.211C86.483 84.1187 84.1174 86.4843 81.2097 86.4843H8.78893C5.8812 86.4843 3.51557 84.1187 3.51557 81.211V61.5238C3.51557 58.6161 5.8812 56.2504 8.78893 56.2504H37.1003C38.071 56.2504 38.8581 55.4635 38.8581 54.4926C38.8581 53.5218 38.071 52.7349 37.1003 52.7349H8.78893C3.94271 52.7349 0 56.6776 0 61.5238V81.211C0 86.0572 3.94271 89.9999 8.78893 89.9999H81.2097C86.0559 89.9999 89.9986 86.0572 89.9986 81.211V61.5238C89.9986 56.6776 86.0559 52.7349 81.2097 52.7349Z" fill="#F5F5F7"/>
<path d="M44.999 37.4424C45.9697 37.4424 46.7568 36.6554 46.7568 35.6846V28.1743C46.7568 27.2035 45.9697 26.4165 44.999 26.4165C44.0284 26.4165 43.2412 27.2035 43.2412 28.1743V35.6846C43.2412 36.6554 44.0282 37.4424 44.999 37.4424Z" fill="#F5F5F7"/>
<path d="M32.3431 48.5163H57.6553C61.7261 48.5163 65.0379 45.2044 65.0379 41.1336V22.7252C65.0379 18.6543 61.7261 15.3425 57.6553 15.3425H57.3037V12.3045C57.3037 5.5198 51.7839 0 44.9992 0C38.2145 0 32.6947 5.5198 32.6947 12.3045V15.3425H32.3431C28.2723 15.3425 24.9604 18.6543 24.9604 22.7252V41.1336C24.9604 45.2044 28.2723 48.5163 32.3431 48.5163ZM36.2103 12.3045C36.2103 7.45828 40.153 3.51557 44.9992 3.51557C49.8454 3.51557 53.7881 7.45828 53.7881 12.3045V15.3425H36.2103V12.3045ZM28.476 22.7252C28.476 20.5928 30.2108 18.858 32.3431 18.858H57.6553C59.7876 18.858 61.5224 20.5928 61.5224 22.7252V41.1336C61.5224 43.2659 59.7876 45.0007 57.6553 45.0007H32.3431C30.2108 45.0007 28.476 43.2659 28.476 41.1336V22.7252Z" fill="#F5F5F7"/>
<path d="M45.0098 56.2622C45.4721 56.2622 45.9256 56.0741 46.2525 55.7472C46.5812 55.4202 46.7676 54.9667 46.7676 54.5044C46.7676 54.0403 46.5812 53.5886 46.2525 53.2616C45.9256 52.9347 45.4721 52.7466 45.0098 52.7466C44.5475 52.7466 44.0939 52.9347 43.7672 53.2616C43.4402 53.5886 43.252 54.0403 43.252 54.5044C43.252 54.9667 43.44 55.4202 43.7672 55.7472C44.0941 56.0741 44.5476 56.2622 45.0098 56.2622Z" fill="#F5F5F7"/>
</g>
<defs>
<clipPath id="clip0">
<rect width="90" height="90" fill="white"/>
</clipPath>
</defs>
</svg>
