<svg width="90" height="90" viewBox="0 0 90 90" fill="none" xmlns="http://www.w3.org/2000/svg">
<path d="M30.4839 31.9355H4.35485C3.19987 31.9355 2.0922 32.3944 1.2755 33.2111C0.458813 34.0277 0 35.1354 0 36.2904V85.6453C0 86.8003 0.458813 87.908 1.2755 88.7247C2.0922 89.5413 3.19987 90.0002 4.35485 90.0002H30.4839C31.6389 90.0002 32.7466 89.5413 33.5633 88.7247C34.38 87.908 34.8388 86.8003 34.8388 85.6453V36.2904C34.8388 35.1354 34.38 34.0277 33.5633 33.2111C32.7466 32.3944 31.6389 31.9355 30.4839 31.9355ZM22.8179 34.8388L22.0921 37.742H12.7466L12.0208 34.8388H22.8179ZM31.9355 85.6453C31.9355 86.0303 31.7826 86.3995 31.5104 86.6718C31.2381 86.944 30.8689 87.0969 30.4839 87.0969H4.35485C3.96985 87.0969 3.60063 86.944 3.3284 86.6718C3.05617 86.3995 2.90323 86.0303 2.90323 85.6453V36.2904C2.90323 35.9054 3.05617 35.5362 3.3284 35.2639C3.60063 34.9917 3.96985 34.8388 4.35485 34.8388H9.0276L10.2049 39.5464C10.2835 39.8603 10.4648 40.1389 10.7199 40.338C10.975 40.5371 11.2893 40.6452 11.6129 40.6452H23.2258C23.5495 40.6452 23.8638 40.5371 24.1189 40.338C24.374 40.1389 24.5553 39.8603 24.6339 39.5464L25.8112 34.8388H30.4839C30.8689 34.8388 31.2381 34.9917 31.5104 35.2639C31.7826 35.5362 31.9355 35.9054 31.9355 36.2904V85.6453Z" fill="#F5F5F7"/>
<path d="M13.0647 82.7422H5.8066C5.4216 82.7422 5.05238 82.8951 4.78015 83.1674C4.50792 83.4396 4.35498 83.8088 4.35498 84.1938C4.35498 84.5788 4.50792 84.948 4.78015 85.2203C5.05238 85.4925 5.4216 85.6454 5.8066 85.6454H13.0647C13.4497 85.6454 13.8189 85.4925 14.0911 85.2203C14.3633 84.948 14.5163 84.5788 14.5163 84.1938C14.5163 83.8088 14.3633 83.4396 14.0911 83.1674C13.8189 82.8951 13.4497 82.7422 13.0647 82.7422Z" fill="#F5F5F7"/>
<path d="M18.871 82.7422H17.4194C17.0344 82.7422 16.6652 82.8951 16.3929 83.1674C16.1207 83.4396 15.9678 83.8088 15.9678 84.1938C15.9678 84.5788 16.1207 84.948 16.3929 85.2203C16.6652 85.4925 17.0344 85.6454 17.4194 85.6454H18.871C19.256 85.6454 19.6252 85.4925 19.8975 85.2203C20.1697 84.948 20.3226 84.5788 20.3226 84.1938C20.3226 83.8088 20.1697 83.4396 19.8975 83.1674C19.6252 82.8951 19.256 82.7422 18.871 82.7422Z" fill="#F5F5F7"/>
<path d="M85.6455 0H59.5165C58.3615 0 57.2538 0.458813 56.4371 1.2755C55.6204 2.0922 55.1616 3.19987 55.1616 4.35485V53.7098C55.1616 54.8647 55.6204 55.9724 56.4371 56.7891C57.2538 57.6058 58.3615 58.0646 59.5165 58.0646H85.6455C86.8005 58.0646 87.9082 57.6058 88.7249 56.7891C89.5416 55.9724 90.0004 54.8647 90.0004 53.7098V4.35485C90.0004 3.19987 89.5416 2.0922 88.7249 1.2755C87.9082 0.458813 86.8005 0 85.6455 0ZM77.9796 2.90323L77.2538 5.80646H67.9083L67.1824 2.90323H77.9796ZM87.0972 53.7098C87.0972 54.0948 86.9442 54.464 86.672 54.7362C86.3998 55.0084 86.0305 55.1614 85.6455 55.1614H59.5165C59.1315 55.1614 58.7622 55.0084 58.49 54.7362C58.2178 54.464 58.0649 54.0948 58.0649 53.7098V4.35485C58.0649 3.96985 58.2178 3.60063 58.49 3.3284C58.7622 3.05617 59.1315 2.90323 59.5165 2.90323H64.1892L65.3665 7.61082C65.4451 7.92473 65.6264 8.20336 65.8815 8.40245C66.1366 8.60154 66.4509 8.70968 66.7745 8.70969H78.3875C78.7111 8.70968 79.0254 8.60154 79.2805 8.40245C79.5356 8.20336 79.7169 7.92473 79.7955 7.61082L80.9728 2.90323H85.6455C86.0305 2.90323 86.3998 3.05617 86.672 3.3284C86.9442 3.60063 87.0972 3.96985 87.0972 4.35485V53.7098Z" fill="#F5F5F7"/>
<path d="M68.2258 50.8066H60.9677C60.5827 50.8066 60.2135 50.9596 59.9413 51.2318C59.669 51.504 59.5161 51.8733 59.5161 52.2583C59.5161 52.6432 59.669 53.0125 59.9413 53.2847C60.2135 53.5569 60.5827 53.7099 60.9677 53.7099H68.2258C68.6108 53.7099 68.98 53.5569 69.2523 53.2847C69.5245 53.0125 69.6774 52.6432 69.6774 52.2583C69.6774 51.8733 69.5245 51.504 69.2523 51.2318C68.98 50.9596 68.6108 50.8066 68.2258 50.8066Z" fill="#F5F5F7"/>
<path d="M74.0321 50.8066H72.5805C72.1955 50.8066 71.8263 50.9596 71.5541 51.2318C71.2818 51.504 71.1289 51.8733 71.1289 52.2583C71.1289 52.6432 71.2818 53.0125 71.5541 53.2847C71.8263 53.5569 72.1955 53.7099 72.5805 53.7099H74.0321C74.4171 53.7099 74.7864 53.5569 75.0586 53.2847C75.3308 53.0125 75.4838 52.6432 75.4838 52.2583C75.4838 51.8733 75.3308 51.504 75.0586 51.2318C74.7864 50.9596 74.4171 50.8066 74.0321 50.8066Z" fill="#F5F5F7"/>
<path d="M72.581 59.5161C72.196 59.5161 71.8268 59.669 71.5545 59.9413C71.2823 60.2135 71.1294 60.5827 71.1294 60.9677V71.129H43.3208C42.9358 71.129 42.5665 71.282 42.2943 71.5542C42.0221 71.8264 41.8691 72.1957 41.8691 72.5807C41.8691 72.9656 42.0221 73.3349 42.2943 73.6071C42.5665 73.8793 42.9358 74.0323 43.3208 74.0323H72.581C72.966 74.0323 73.3352 73.8793 73.6074 73.6071C73.8797 73.3349 74.0326 72.9656 74.0326 72.5807V60.9677C74.0326 60.5827 73.8797 60.2135 73.6074 59.9413C73.3352 59.669 72.966 59.5161 72.581 59.5161Z" fill="#F5F5F7"/>
<path d="M17.4194 30.4839C17.8044 30.4839 18.1736 30.331 18.4458 30.0588C18.7181 29.7865 18.871 29.4173 18.871 29.0323V18.871H52.5195C52.9044 18.871 53.2737 18.7181 53.5459 18.4458C53.8181 18.1736 53.9711 17.8044 53.9711 17.4194C53.9711 17.0344 53.8181 16.6652 53.5459 16.3929C53.2737 16.1207 52.9044 15.9678 52.5195 15.9678H17.4194C17.0344 15.9678 16.6652 16.1207 16.3929 16.3929C16.1207 16.6652 15.9678 17.0344 15.9678 17.4194V29.0323C15.9678 29.4173 16.1207 29.7865 16.3929 30.0588C16.6652 30.331 17.0344 30.4839 17.4194 30.4839Z" fill="#F5F5F7"/>
<path d="M39.1938 71.1294H37.7421C37.3572 71.1294 36.9879 71.2823 36.7157 71.5546C36.4435 71.8268 36.2905 72.196 36.2905 72.581C36.2905 72.966 36.4435 73.3352 36.7157 73.6075C36.9879 73.8797 37.3572 74.0326 37.7421 74.0326H39.1938C39.5788 74.0326 39.948 73.8797 40.2202 73.6075C40.4924 73.3352 40.6454 72.966 40.6454 72.581C40.6454 72.196 40.4924 71.8268 40.2202 71.5546C39.948 71.2823 39.5788 71.1294 39.1938 71.1294Z" fill="#F5F5F7"/>
<path d="M17.4192 52.2583C15.6966 52.2583 14.0126 52.7691 12.5803 53.7261C11.148 54.6832 10.0317 56.0434 9.37246 57.6349C8.71325 59.2264 8.54077 60.9777 8.87683 62.6672C9.2129 64.3567 10.0424 65.9086 11.2605 67.1267C12.4786 68.3447 14.0305 69.1743 15.72 69.5103C17.4095 69.8464 19.1607 69.6739 20.7522 69.0147C22.3437 68.3555 23.704 67.2391 24.661 65.8068C25.618 64.3745 26.1289 62.6906 26.1289 60.968C26.1266 58.6587 25.2082 56.4447 23.5753 54.8119C21.9424 53.179 19.7284 52.2606 17.4192 52.2583ZM17.4192 66.7745C16.2708 66.7745 15.1481 66.4339 14.1933 65.7959C13.2384 65.1579 12.4942 64.251 12.0547 63.19C11.6152 62.129 11.5002 60.9615 11.7243 59.8352C11.9483 58.7089 12.5013 57.6743 13.3134 56.8622C14.1254 56.0502 15.16 55.4971 16.2864 55.2731C17.4127 55.0491 18.5802 55.164 19.6412 55.6035C20.7022 56.043 21.609 56.7872 22.2471 57.7421C22.8851 58.697 23.2256 59.8196 23.2256 60.968C23.2256 62.508 22.6139 63.9849 21.525 65.0738C20.436 66.1627 18.9591 66.7745 17.4192 66.7745Z" fill="#F5F5F7"/>
<path d="M72.5808 20.3228C70.8582 20.3228 69.1742 20.8336 67.7419 21.7906C66.3096 22.7476 65.1933 24.1079 64.5341 25.6994C63.8749 27.2909 63.7024 29.0421 64.0385 30.7316C64.3745 32.4211 65.204 33.9731 66.4221 35.1911C67.6402 36.4092 69.1921 37.2387 70.8816 37.5748C72.5711 37.9108 74.3224 37.7384 75.9138 37.0791C77.5053 36.4199 78.8656 35.3036 79.8226 33.8713C80.7797 32.439 81.2905 30.7551 81.2905 29.0324C81.2882 26.7232 80.3698 24.5092 78.7369 22.8763C77.104 21.2434 74.89 20.3251 72.5808 20.3228ZM72.5808 34.8389C71.4324 34.8389 70.3098 34.4984 69.3549 33.8603C68.4 33.2223 67.6558 32.3155 67.2163 31.2545C66.7768 30.1935 66.6619 29.026 66.8859 27.8997C67.1099 26.7733 67.663 25.7387 68.475 24.9267C69.2871 24.1146 70.3217 23.5616 71.448 23.3376C72.5743 23.1135 73.7418 23.2285 74.8028 23.668C75.8638 24.1075 76.7707 24.8517 77.4087 25.8065C78.0467 26.7614 78.3872 27.884 78.3872 29.0324C78.3872 30.5724 77.7755 32.0493 76.6866 33.1382C75.5977 34.2272 74.1208 34.8389 72.5808 34.8389Z" fill="#F5F5F7"/>
</svg>
