<svg width="120" height="120" viewBox="0 0 120 120" fill="none" xmlns="http://www.w3.org/2000/svg">
<path d="M40.6452 42.5806H5.80646C4.26649 42.5806 2.7896 43.1923 1.70067 44.2812C0.61175 45.3702 0 46.8471 0 48.387V114.194C0 115.734 0.61175 117.21 1.70067 118.299C2.7896 119.388 4.26649 120 5.80646 120H40.6452C42.1852 120 43.6621 119.388 44.751 118.299C45.8399 117.21 46.4517 115.734 46.4517 114.194V48.387C46.4517 46.8471 45.8399 45.3702 44.751 44.2812C43.6621 43.1923 42.1852 42.5806 40.6452 42.5806ZM30.4239 46.4515L29.4562 50.3225H16.9955L16.0278 46.4515H30.4239ZM42.5807 114.194C42.5807 114.707 42.3768 115.199 42.0138 115.562C41.6509 115.925 41.1586 116.129 40.6452 116.129H5.80646C5.29314 116.129 4.80084 115.925 4.43787 115.562C4.07489 115.199 3.87097 114.707 3.87097 114.194V48.387C3.87097 47.8737 4.07489 47.3814 4.43787 47.0184C4.80084 46.6555 5.29314 46.4515 5.80646 46.4515H12.0368L13.6065 52.7283C13.7113 53.1469 13.953 53.5184 14.2932 53.7838C14.6333 54.0493 15.0524 54.1935 15.4839 54.1935H30.9678C31.3993 54.1935 31.8184 54.0493 32.1585 53.7838C32.4987 53.5184 32.7404 53.1469 32.8452 52.7283L34.4149 46.4515H40.6452C41.1586 46.4515 41.6509 46.6555 42.0138 47.0184C42.3768 47.3814 42.5807 47.8737 42.5807 48.387V114.194Z" fill="#F5F5F7"/>
<path d="M17.4193 110.323H7.74188C7.22856 110.323 6.73626 110.527 6.37329 110.89C6.01031 111.253 5.8064 111.745 5.8064 112.258C5.8064 112.772 6.01031 113.264 6.37329 113.627C6.73626 113.99 7.22856 114.194 7.74188 114.194H17.4193C17.9326 114.194 18.4249 113.99 18.7879 113.627C19.1509 113.264 19.3548 112.772 19.3548 112.258C19.3548 111.745 19.1509 111.253 18.7879 110.89C18.4249 110.527 17.9326 110.323 17.4193 110.323Z" fill="#F5F5F7"/>
<path d="M25.1614 110.323H23.2259C22.7126 110.323 22.2203 110.527 21.8573 110.89C21.4943 111.253 21.2904 111.745 21.2904 112.258C21.2904 112.772 21.4943 113.264 21.8573 113.627C22.2203 113.99 22.7126 114.194 23.2259 114.194H25.1614C25.6747 114.194 26.167 113.99 26.53 113.627C26.8929 113.264 27.0969 112.772 27.0969 112.258C27.0969 111.745 26.8929 111.253 26.53 110.89C26.167 110.527 25.6747 110.323 25.1614 110.323Z" fill="#F5F5F7"/>
<path d="M114.194 0H79.355C77.8151 0 76.3382 0.61175 75.2493 1.70067C74.1603 2.7896 73.5486 4.26649 73.5486 5.80646V71.613C73.5486 73.153 74.1603 74.6299 75.2493 75.7188C76.3382 76.8077 77.8151 77.4195 79.355 77.4195H114.194C115.734 77.4195 117.211 76.8077 118.3 75.7188C119.389 74.6299 120 73.153 120 71.613V5.80646C120 4.26649 119.389 2.7896 118.3 1.70067C117.211 0.61175 115.734 0 114.194 0ZM103.973 3.87097L103.005 7.74195H90.5441L89.5763 3.87097H103.973ZM116.129 71.613C116.129 72.1264 115.925 72.6186 115.562 72.9816C115.199 73.3446 114.707 73.5485 114.194 73.5485H79.355C78.8417 73.5485 78.3494 73.3446 77.9864 72.9816C77.6235 72.6186 77.4196 72.1264 77.4196 71.613V5.80646C77.4196 5.29314 77.6235 4.80084 77.9864 4.43787C78.3494 4.07489 78.8417 3.87097 79.355 3.87097H85.5854L87.1551 10.1478C87.2599 10.5663 87.5016 10.9378 87.8418 11.2033C88.1819 11.4687 88.601 11.6129 89.0325 11.6129H104.516C104.948 11.6129 105.367 11.4687 105.707 11.2033C106.047 10.9378 106.289 10.5663 106.394 10.1478L107.963 3.87097H114.194C114.707 3.87097 115.199 4.07489 115.562 4.43787C115.925 4.80084 116.129 5.29314 116.129 5.80646V71.613Z" fill="#F5F5F7"/>
<path d="M90.9679 67.7422H81.2905C80.7771 67.7422 80.2848 67.9461 79.9219 68.3091C79.5589 68.6721 79.355 69.1644 79.355 69.6777C79.355 70.191 79.5589 70.6833 79.9219 71.0463C80.2848 71.4092 80.7771 71.6132 81.2905 71.6132H90.9679C91.4812 71.6132 91.9735 71.4092 92.3365 71.0463C92.6995 70.6833 92.9034 70.191 92.9034 69.6777C92.9034 69.1644 92.6995 68.6721 92.3365 68.3091C91.9735 67.9461 91.4812 67.7422 90.9679 67.7422Z" fill="#F5F5F7"/>
<path d="M98.7098 67.7422H96.7744C96.261 67.7422 95.7687 67.9461 95.4058 68.3091C95.0428 68.6721 94.8389 69.1644 94.8389 69.6777C94.8389 70.191 95.0428 70.6833 95.4058 71.0463C95.7687 71.4092 96.261 71.6132 96.7744 71.6132H98.7098C99.2232 71.6132 99.7155 71.4092 100.078 71.0463C100.441 70.6833 100.645 70.191 100.645 69.6777C100.645 69.1644 100.441 68.6721 100.078 68.3091C99.7155 67.9461 99.2232 67.7422 98.7098 67.7422Z" fill="#F5F5F7"/>
<path d="M96.7743 79.355C96.261 79.355 95.7687 79.5589 95.4057 79.9219C95.0427 80.2848 94.8388 80.7771 94.8388 81.2905V94.8389H57.7607C57.2474 94.8389 56.7551 95.0428 56.3921 95.4058C56.0291 95.7687 55.8252 96.261 55.8252 96.7744C55.8252 97.2877 56.0291 97.78 56.3921 98.143C56.7551 98.5059 57.2474 98.7099 57.7607 98.7099H96.7743C97.2876 98.7099 97.7799 98.5059 98.1429 98.143C98.5059 97.78 98.7098 97.2877 98.7098 96.7744V81.2905C98.7098 80.7771 98.5059 80.2848 98.1429 79.9219C97.7799 79.5589 97.2876 79.355 96.7743 79.355Z" fill="#F5F5F7"/>
<path d="M23.2259 40.6454C23.7392 40.6454 24.2315 40.4415 24.5945 40.0785C24.9575 39.7155 25.1614 39.2232 25.1614 38.7099V25.1615H70.026C70.5393 25.1615 71.0316 24.9576 71.3946 24.5946C71.7575 24.2316 71.9615 23.7393 71.9615 23.226C71.9615 22.7127 71.7575 22.2204 71.3946 21.8574C71.0316 21.4944 70.5393 21.2905 70.026 21.2905H23.2259C22.7126 21.2905 22.2203 21.4944 21.8573 21.8574C21.4943 22.2204 21.2904 22.7127 21.2904 23.226V38.7099C21.2904 39.2232 21.4943 39.7155 21.8573 40.0785C22.2203 40.4415 22.7126 40.6454 23.2259 40.6454Z" fill="#F5F5F7"/>
<path d="M52.2581 94.8394H50.3226C49.8092 94.8394 49.3169 95.0433 48.954 95.4062C48.591 95.7692 48.3871 96.2615 48.3871 96.7748C48.3871 97.2882 48.591 97.7805 48.954 98.1434C49.3169 98.5064 49.8092 98.7103 50.3226 98.7103H52.2581C52.7714 98.7103 53.2637 98.5064 53.6267 98.1434C53.9896 97.7805 54.1935 97.2882 54.1935 96.7748C54.1935 96.2615 53.9896 95.7692 53.6267 95.4062C53.2637 95.0433 52.7714 94.8394 52.2581 94.8394Z" fill="#F5F5F7"/>
<path d="M23.2258 69.6777C20.929 69.6777 18.6838 70.3588 16.774 71.6349C14.8643 72.9109 13.3759 74.7246 12.4969 76.8466C11.6179 78.9686 11.388 81.3035 11.8361 83.5562C12.2841 85.8089 13.3902 87.8781 15.0143 89.5022C16.6384 91.1263 18.7076 92.2323 20.9603 92.6804C23.213 93.1285 25.5479 92.8985 27.6699 92.0196C29.7919 91.1406 31.6056 89.6522 32.8816 87.7424C34.1577 85.8327 34.8388 83.5875 34.8388 81.2907C34.8357 78.2117 33.6112 75.2597 31.434 73.0825C29.2568 70.9053 26.3048 69.6808 23.2258 69.6777ZM23.2258 89.0326C21.6946 89.0326 20.1978 88.5785 18.9246 87.7278C17.6515 86.8772 16.6592 85.668 16.0732 84.2534C15.4872 82.8387 15.3339 81.2821 15.6327 79.7803C15.9314 78.2785 16.6687 76.899 17.7515 75.8163C18.8342 74.7335 20.2137 73.9962 21.7155 73.6975C23.2173 73.3987 24.7739 73.5521 26.1886 74.138C27.6032 74.724 28.8123 75.7163 29.663 76.9895C30.5137 78.2626 30.9678 79.7594 30.9678 81.2907C30.9678 83.3439 30.1521 85.3131 28.7002 86.765C27.2483 88.2169 25.2791 89.0326 23.2258 89.0326Z" fill="#F5F5F7"/>
<path d="M96.7743 27.0972C94.4775 27.0972 92.2322 27.7783 90.3225 29.0543C88.4128 30.3303 86.9243 32.144 86.0454 34.266C85.1664 36.388 84.9364 38.723 85.3845 40.9757C85.8326 43.2283 86.9386 45.2976 88.5627 46.9217C90.1868 48.5458 92.256 49.6518 94.5087 50.0999C96.7614 50.548 99.0964 50.318 101.218 49.439C103.34 48.5601 105.154 47.0716 106.43 45.1619C107.706 43.2521 108.387 41.0069 108.387 38.7101C108.384 35.6311 107.16 32.6791 104.982 30.5019C102.805 28.3247 99.8533 27.1002 96.7743 27.0972ZM96.7743 46.452C95.2431 46.452 93.7463 45.998 92.4731 45.1473C91.1999 44.2966 90.2076 43.0875 89.6217 41.6728C89.0357 40.2581 88.8824 38.7015 89.1811 37.1997C89.4798 35.6979 90.2172 34.3184 91.2999 33.2357C92.3827 32.153 93.7621 31.4156 95.2639 31.1169C96.7657 30.8182 98.3224 30.9715 99.737 31.5575C101.152 32.1434 102.361 33.1357 103.211 34.4089C104.062 35.6821 104.516 37.1789 104.516 38.7101C104.516 40.7634 103.701 42.7326 102.249 44.1845C100.797 45.6364 98.8276 46.452 96.7743 46.452Z" fill="#F5F5F7"/>
</svg>
