<svg width="22" height="18" viewBox="0 0 22 18" fill="none" xmlns="http://www.w3.org/2000/svg">
<path d="M21 1.64062L17.8125 16.5469C17.5625 17.6094 16.9844 17.8906 16.0781 17.3906L11.25 13.8281L8.90625 16.0781C8.59375 16.3906 8.26562 16.5469 7.92188 16.5469L8.29688 11.625L17.25 3.5625C17.4688 3.34375 17.4688 3.21875 17.25 3.1875C17.0625 3.125 16.8594 3.17188 16.6406 3.32812L5.57812 10.3125L0.796875 8.8125C0.265625 8.65625 0.015625 8.42188 0.046875 8.10938C0.078125 7.79688 0.40625 7.53125 1.03125 7.3125L19.6406 0.09375C20.1094 -0.0625 20.4844 0 20.7656 0.28125C21.0469 0.53125 21.125 0.984375 21 1.64062Z" fill="#131313"/>
</svg>
